M48
; DRILL file {KiCad 8.0.7} date 2024-12-29T04:50:59+0100
; FORMAT={-:-/ absolute / metric / decimal}
; #@! TF.CreationDate,2024-12-29T04:50:59+01:00
; #@! TF.GenerationSoftware,Kicad,Pcbnew,8.0.7
; #@! TF.FileFunction,Plated,1,2,PTH
FMAT,2
METRIC
; #@! TA.AperFunction,Plated,PTH,ComponentDrill
T1C0.700
; #@! TA.AperFunction,Plated,PTH,ComponentDrill
T2C0.800
; #@! TA.AperFunction,Plated,PTH,ComponentDrill
T3C1.000
; #@! TA.AperFunction,Plated,PTH,ComponentDrill
T4C1.100
; #@! TA.AperFunction,Plated,PTH,ComponentDrill
T5C3.500
%
G90
G05
T1
X186.69Y-87.63
X186.69Y-92.71
X189.23Y-87.63
X189.23Y-92.71
T2
X163.83Y-87.67
X163.83Y-90.17
X167.635Y-87.63
X167.635Y-95.25
X170.175Y-87.63
X170.175Y-95.25
X172.715Y-87.63
X172.715Y-95.25
X175.255Y-87.63
X175.255Y-95.25
X177.795Y-87.63
X177.795Y-95.25
X180.335Y-87.63
X180.335Y-95.25
X182.875Y-87.63
X182.875Y-95.25
T3
X142.25Y-99.035
X142.25Y-124.435
X144.79Y-99.035
X144.79Y-124.435
X147.33Y-99.035
X147.33Y-124.435
X149.87Y-99.035
X149.87Y-124.435
X152.41Y-99.035
X152.41Y-124.435
X154.95Y-99.035
X154.95Y-124.435
X157.49Y-99.035
X157.49Y-124.435
X160.03Y-99.035
X160.03Y-124.435
X162.57Y-99.035
X162.57Y-124.435
X165.11Y-99.035
X165.11Y-124.435
X167.65Y-99.035
X167.65Y-124.435
X170.19Y-99.035
X170.19Y-124.435
X172.73Y-99.035
X172.73Y-124.435
X175.27Y-99.035
X175.27Y-124.435
X177.81Y-99.035
X177.81Y-124.435
X180.35Y-99.035
X180.35Y-124.435
X182.89Y-99.035
X182.89Y-124.435
X185.43Y-99.035
X185.43Y-124.435
X187.97Y-99.035
X187.97Y-124.435
T4
X137.16Y-82.55
X139.7Y-82.55
X157.48Y-82.55
X160.02Y-82.55
X162.56Y-82.55
X167.64Y-82.55
X170.18Y-82.55
X172.72Y-82.55
X177.8Y-82.55
X180.34Y-82.55
X185.42Y-82.55
X187.96Y-82.55
T5
X130.81Y-80.01
X130.81Y-123.19
X194.31Y-80.01
X194.31Y-123.19
M30
