M48
; DRILL file {KiCad 8.0.7-8.0.7-0~ubuntu24.04.1} date 2025-01-02T00:55:25+0100
; FORMAT={-:-/ absolute / metric / decimal}
; #@! TF.CreationDate,2025-01-02T00:55:25+01:00
; #@! TF.GenerationSoftware,Kicad,Pcbnew,8.0.7-8.0.7-0~ubuntu24.04.1
; #@! TF.FileFunction,Plated,1,2,PTH
FMAT,2
METRIC
; #@! TA.AperFunction,Plated,PTH,ComponentDrill
T1C0.700
; #@! TA.AperFunction,Plated,PTH,ComponentDrill
T2C0.762
; #@! TA.AperFunction,Plated,PTH,ComponentDrill
T3C0.800
; #@! TA.AperFunction,Plated,PTH,ComponentDrill
T4C1.100
%
G90
G05
T1
X25.4Y82.55
X30.48Y82.55
X33.02Y82.55
X38.1Y82.55
X40.64Y82.55
X45.72Y82.55
X48.26Y82.55
X53.34Y82.55
T2
X26.67Y72.39
X26.67Y69.85
X26.67Y67.31
X26.67Y64.77
X26.67Y62.23
X26.67Y59.69
X26.67Y57.15
X26.67Y54.61
X26.67Y52.07
X26.67Y49.53
X26.67Y46.99
X26.67Y44.45
X26.67Y41.91
X26.67Y39.37
X26.67Y36.83
X26.67Y34.29
X26.67Y31.75
X26.67Y29.21
X26.67Y26.67
X52.07Y72.39
X52.07Y69.85
X52.07Y67.31
X52.07Y64.77
X52.07Y62.23
X52.07Y59.69
X52.07Y57.15
X52.07Y54.61
X52.07Y52.07
X52.07Y49.53
X52.07Y46.99
X52.07Y44.45
X52.07Y41.91
X52.07Y39.37
X52.07Y36.83
X52.07Y34.29
X52.07Y31.75
X52.07Y29.21
X52.07Y26.67
T3
X15.484Y59.695
X15.484Y57.155
X15.484Y54.615
X15.484Y52.075
X15.484Y49.535
X15.484Y46.995
X15.484Y44.455
X15.484Y41.915
X15.484Y39.375
X15.484Y36.835
X17.82Y33.782
X20.32Y33.782
X23.104Y59.695
X23.104Y57.155
X23.104Y54.615
X23.104Y52.075
X23.104Y49.535
X23.104Y46.995
X23.104Y44.455
X23.104Y41.915
X23.104Y39.375
X23.104Y36.835
X35.56Y23.114
X35.56Y15.494
X38.1Y23.114
X38.1Y15.494
X40.64Y23.114
X40.64Y15.494
X43.18Y23.114
X43.18Y15.494
X45.72Y23.114
X45.72Y15.494
X48.26Y23.114
X48.26Y15.494
X50.8Y23.114
X50.8Y15.494
X53.848Y20.32
X53.848Y17.82
X55.636Y54.605
X55.636Y52.065
X55.636Y49.525
X55.636Y46.985
X55.636Y44.445
X55.636Y41.905
X55.636Y39.365
X55.636Y36.825
X55.636Y34.285
X55.636Y31.745
X58.46Y57.658
X60.96Y57.658
X63.256Y54.605
X63.256Y52.065
X63.256Y49.525
X63.256Y46.985
X63.256Y44.445
X63.256Y41.905
X63.256Y39.365
X63.256Y36.825
X63.256Y34.285
X63.256Y31.745
T4
X10.16Y87.63
X10.16Y85.09
X10.16Y82.55
X10.16Y77.47
X10.16Y74.93
X10.16Y72.39
X10.16Y67.31
X10.16Y64.77
X10.16Y62.23
X10.16Y57.15
X10.16Y54.61
X10.16Y52.07
X10.16Y46.99
X10.16Y44.45
X10.16Y41.91
X10.16Y36.83
X10.16Y34.29
X10.16Y31.75
X10.16Y26.67
X10.16Y24.13
X10.16Y21.59
X10.16Y16.51
X10.16Y13.97
X10.16Y11.43
X17.78Y10.16
X20.32Y10.16
X25.4Y10.16
X26.67Y87.63
X27.94Y10.16
X29.21Y87.63
X30.48Y10.16
X34.29Y87.63
X35.56Y10.16
X36.83Y87.63
X38.1Y10.16
X40.64Y10.16
X41.91Y87.63
X44.45Y87.63
X45.72Y10.16
X48.26Y10.16
X49.53Y87.63
X50.8Y10.16
X52.07Y87.63
X55.88Y10.16
X58.42Y10.16
X60.96Y10.16
X68.58Y87.63
X68.58Y85.09
X68.58Y82.55
X68.58Y77.47
X68.58Y74.93
X68.58Y72.39
X68.58Y67.31
X68.58Y64.77
X68.58Y62.23
X68.58Y57.15
X68.58Y54.61
X68.58Y52.07
X68.58Y46.99
X68.58Y44.45
X68.58Y41.91
X68.58Y36.83
X68.58Y34.29
X68.58Y31.75
X68.58Y26.67
X68.58Y24.13
X68.58Y21.59
X68.58Y16.51
X68.58Y13.97
X68.58Y11.43
M30
