%TF.GenerationSoftware,KiCad,Pcbnew,8.0.7*%
%TF.CreationDate,2024-12-29T04:50:49+01:00*%
%TF.ProjectId,TeteDeLit,54657465-4465-44c6-9974-2e6b69636164,rev?*%
%TF.SameCoordinates,Original*%
%TF.FileFunction,Legend,Top*%
%TF.FilePolarity,Positive*%
%FSLAX46Y46*%
G04 Gerber Fmt 4.6, Leading zero omitted, Abs format (unit mm)*
G04 Created by KiCad (PCBNEW 8.0.7) date 2024-12-29 04:50:49*
%MOMM*%
%LPD*%
G01*
G04 APERTURE LIST*
%ADD10C,0.100000*%
%ADD11C,0.150000*%
%ADD12C,0.558000*%
%ADD13C,0.120000*%
G04 APERTURE END LIST*
D10*
X186917419Y-112521904D02*
X187726942Y-112521904D01*
X187726942Y-112521904D02*
X187822180Y-112474285D01*
X187822180Y-112474285D02*
X187869800Y-112426666D01*
X187869800Y-112426666D02*
X187917419Y-112331428D01*
X187917419Y-112331428D02*
X187917419Y-112140952D01*
X187917419Y-112140952D02*
X187869800Y-112045714D01*
X187869800Y-112045714D02*
X187822180Y-111998095D01*
X187822180Y-111998095D02*
X187726942Y-111950476D01*
X187726942Y-111950476D02*
X186917419Y-111950476D01*
X187917419Y-110950476D02*
X187917419Y-111521904D01*
X187917419Y-111236190D02*
X186917419Y-111236190D01*
X186917419Y-111236190D02*
X187060276Y-111331428D01*
X187060276Y-111331428D02*
X187155514Y-111426666D01*
X187155514Y-111426666D02*
X187203133Y-111521904D01*
D11*
X164759819Y-93471904D02*
X165569342Y-93471904D01*
X165569342Y-93471904D02*
X165664580Y-93424285D01*
X165664580Y-93424285D02*
X165712200Y-93376666D01*
X165712200Y-93376666D02*
X165759819Y-93281428D01*
X165759819Y-93281428D02*
X165759819Y-93090952D01*
X165759819Y-93090952D02*
X165712200Y-92995714D01*
X165712200Y-92995714D02*
X165664580Y-92948095D01*
X165664580Y-92948095D02*
X165569342Y-92900476D01*
X165569342Y-92900476D02*
X164759819Y-92900476D01*
X164855057Y-92471904D02*
X164807438Y-92424285D01*
X164807438Y-92424285D02*
X164759819Y-92329047D01*
X164759819Y-92329047D02*
X164759819Y-92090952D01*
X164759819Y-92090952D02*
X164807438Y-91995714D01*
X164807438Y-91995714D02*
X164855057Y-91948095D01*
X164855057Y-91948095D02*
X164950295Y-91900476D01*
X164950295Y-91900476D02*
X165045533Y-91900476D01*
X165045533Y-91900476D02*
X165188390Y-91948095D01*
X165188390Y-91948095D02*
X165759819Y-92519523D01*
X165759819Y-92519523D02*
X165759819Y-91900476D01*
X161649580Y-87796666D02*
X161697200Y-87844285D01*
X161697200Y-87844285D02*
X161744819Y-87987142D01*
X161744819Y-87987142D02*
X161744819Y-88082380D01*
X161744819Y-88082380D02*
X161697200Y-88225237D01*
X161697200Y-88225237D02*
X161601961Y-88320475D01*
X161601961Y-88320475D02*
X161506723Y-88368094D01*
X161506723Y-88368094D02*
X161316247Y-88415713D01*
X161316247Y-88415713D02*
X161173390Y-88415713D01*
X161173390Y-88415713D02*
X160982914Y-88368094D01*
X160982914Y-88368094D02*
X160887676Y-88320475D01*
X160887676Y-88320475D02*
X160792438Y-88225237D01*
X160792438Y-88225237D02*
X160744819Y-88082380D01*
X160744819Y-88082380D02*
X160744819Y-87987142D01*
X160744819Y-87987142D02*
X160792438Y-87844285D01*
X160792438Y-87844285D02*
X160840057Y-87796666D01*
X161744819Y-86844285D02*
X161744819Y-87415713D01*
X161744819Y-87129999D02*
X160744819Y-87129999D01*
X160744819Y-87129999D02*
X160887676Y-87225237D01*
X160887676Y-87225237D02*
X160982914Y-87320475D01*
X160982914Y-87320475D02*
X161030533Y-87415713D01*
X189684819Y-95416666D02*
X189208628Y-95749999D01*
X189684819Y-95988094D02*
X188684819Y-95988094D01*
X188684819Y-95988094D02*
X188684819Y-95607142D01*
X188684819Y-95607142D02*
X188732438Y-95511904D01*
X188732438Y-95511904D02*
X188780057Y-95464285D01*
X188780057Y-95464285D02*
X188875295Y-95416666D01*
X188875295Y-95416666D02*
X189018152Y-95416666D01*
X189018152Y-95416666D02*
X189113390Y-95464285D01*
X189113390Y-95464285D02*
X189161009Y-95511904D01*
X189161009Y-95511904D02*
X189208628Y-95607142D01*
X189208628Y-95607142D02*
X189208628Y-95988094D01*
X188780057Y-95035713D02*
X188732438Y-94988094D01*
X188732438Y-94988094D02*
X188684819Y-94892856D01*
X188684819Y-94892856D02*
X188684819Y-94654761D01*
X188684819Y-94654761D02*
X188732438Y-94559523D01*
X188732438Y-94559523D02*
X188780057Y-94511904D01*
X188780057Y-94511904D02*
X188875295Y-94464285D01*
X188875295Y-94464285D02*
X188970533Y-94464285D01*
X188970533Y-94464285D02*
X189113390Y-94511904D01*
X189113390Y-94511904D02*
X189684819Y-95083332D01*
X189684819Y-95083332D02*
X189684819Y-94464285D01*
X188684819Y-77803333D02*
X189399104Y-77803333D01*
X189399104Y-77803333D02*
X189541961Y-77850952D01*
X189541961Y-77850952D02*
X189637200Y-77946190D01*
X189637200Y-77946190D02*
X189684819Y-78089047D01*
X189684819Y-78089047D02*
X189684819Y-78184285D01*
X188684819Y-77422380D02*
X188684819Y-76755714D01*
X188684819Y-76755714D02*
X189684819Y-77184285D01*
X181064819Y-77803333D02*
X181779104Y-77803333D01*
X181779104Y-77803333D02*
X181921961Y-77850952D01*
X181921961Y-77850952D02*
X182017200Y-77946190D01*
X182017200Y-77946190D02*
X182064819Y-78089047D01*
X182064819Y-78089047D02*
X182064819Y-78184285D01*
X181064819Y-77422380D02*
X181064819Y-76803333D01*
X181064819Y-76803333D02*
X181445771Y-77136666D01*
X181445771Y-77136666D02*
X181445771Y-76993809D01*
X181445771Y-76993809D02*
X181493390Y-76898571D01*
X181493390Y-76898571D02*
X181541009Y-76850952D01*
X181541009Y-76850952D02*
X181636247Y-76803333D01*
X181636247Y-76803333D02*
X181874342Y-76803333D01*
X181874342Y-76803333D02*
X181969580Y-76850952D01*
X181969580Y-76850952D02*
X182017200Y-76898571D01*
X182017200Y-76898571D02*
X182064819Y-76993809D01*
X182064819Y-76993809D02*
X182064819Y-77279523D01*
X182064819Y-77279523D02*
X182017200Y-77374761D01*
X182017200Y-77374761D02*
X181969580Y-77422380D01*
X140424819Y-77803333D02*
X141139104Y-77803333D01*
X141139104Y-77803333D02*
X141281961Y-77850952D01*
X141281961Y-77850952D02*
X141377200Y-77946190D01*
X141377200Y-77946190D02*
X141424819Y-78089047D01*
X141424819Y-78089047D02*
X141424819Y-78184285D01*
X140424819Y-76898571D02*
X140424819Y-77089047D01*
X140424819Y-77089047D02*
X140472438Y-77184285D01*
X140472438Y-77184285D02*
X140520057Y-77231904D01*
X140520057Y-77231904D02*
X140662914Y-77327142D01*
X140662914Y-77327142D02*
X140853390Y-77374761D01*
X140853390Y-77374761D02*
X141234342Y-77374761D01*
X141234342Y-77374761D02*
X141329580Y-77327142D01*
X141329580Y-77327142D02*
X141377200Y-77279523D01*
X141377200Y-77279523D02*
X141424819Y-77184285D01*
X141424819Y-77184285D02*
X141424819Y-76993809D01*
X141424819Y-76993809D02*
X141377200Y-76898571D01*
X141377200Y-76898571D02*
X141329580Y-76850952D01*
X141329580Y-76850952D02*
X141234342Y-76803333D01*
X141234342Y-76803333D02*
X140996247Y-76803333D01*
X140996247Y-76803333D02*
X140901009Y-76850952D01*
X140901009Y-76850952D02*
X140853390Y-76898571D01*
X140853390Y-76898571D02*
X140805771Y-76993809D01*
X140805771Y-76993809D02*
X140805771Y-77184285D01*
X140805771Y-77184285D02*
X140853390Y-77279523D01*
X140853390Y-77279523D02*
X140901009Y-77327142D01*
X140901009Y-77327142D02*
X140996247Y-77374761D01*
X187144819Y-95416666D02*
X186668628Y-95749999D01*
X187144819Y-95988094D02*
X186144819Y-95988094D01*
X186144819Y-95988094D02*
X186144819Y-95607142D01*
X186144819Y-95607142D02*
X186192438Y-95511904D01*
X186192438Y-95511904D02*
X186240057Y-95464285D01*
X186240057Y-95464285D02*
X186335295Y-95416666D01*
X186335295Y-95416666D02*
X186478152Y-95416666D01*
X186478152Y-95416666D02*
X186573390Y-95464285D01*
X186573390Y-95464285D02*
X186621009Y-95511904D01*
X186621009Y-95511904D02*
X186668628Y-95607142D01*
X186668628Y-95607142D02*
X186668628Y-95988094D01*
X187144819Y-94464285D02*
X187144819Y-95035713D01*
X187144819Y-94749999D02*
X186144819Y-94749999D01*
X186144819Y-94749999D02*
X186287676Y-94845237D01*
X186287676Y-94845237D02*
X186382914Y-94940475D01*
X186382914Y-94940475D02*
X186430533Y-95035713D01*
X138934819Y-124768333D02*
X139649104Y-124768333D01*
X139649104Y-124768333D02*
X139791961Y-124815952D01*
X139791961Y-124815952D02*
X139887200Y-124911190D01*
X139887200Y-124911190D02*
X139934819Y-125054047D01*
X139934819Y-125054047D02*
X139934819Y-125149285D01*
X139934819Y-123768333D02*
X139934819Y-124339761D01*
X139934819Y-124054047D02*
X138934819Y-124054047D01*
X138934819Y-124054047D02*
X139077676Y-124149285D01*
X139077676Y-124149285D02*
X139172914Y-124244523D01*
X139172914Y-124244523D02*
X139220533Y-124339761D01*
X138934819Y-99368333D02*
X139649104Y-99368333D01*
X139649104Y-99368333D02*
X139791961Y-99415952D01*
X139791961Y-99415952D02*
X139887200Y-99511190D01*
X139887200Y-99511190D02*
X139934819Y-99654047D01*
X139934819Y-99654047D02*
X139934819Y-99749285D01*
X139030057Y-98939761D02*
X138982438Y-98892142D01*
X138982438Y-98892142D02*
X138934819Y-98796904D01*
X138934819Y-98796904D02*
X138934819Y-98558809D01*
X138934819Y-98558809D02*
X138982438Y-98463571D01*
X138982438Y-98463571D02*
X139030057Y-98415952D01*
X139030057Y-98415952D02*
X139125295Y-98368333D01*
X139125295Y-98368333D02*
X139220533Y-98368333D01*
X139220533Y-98368333D02*
X139363390Y-98415952D01*
X139363390Y-98415952D02*
X139934819Y-98987380D01*
X139934819Y-98987380D02*
X139934819Y-98368333D01*
X173444819Y-77803333D02*
X174159104Y-77803333D01*
X174159104Y-77803333D02*
X174301961Y-77850952D01*
X174301961Y-77850952D02*
X174397200Y-77946190D01*
X174397200Y-77946190D02*
X174444819Y-78089047D01*
X174444819Y-78089047D02*
X174444819Y-78184285D01*
X173444819Y-76850952D02*
X173444819Y-77327142D01*
X173444819Y-77327142D02*
X173921009Y-77374761D01*
X173921009Y-77374761D02*
X173873390Y-77327142D01*
X173873390Y-77327142D02*
X173825771Y-77231904D01*
X173825771Y-77231904D02*
X173825771Y-76993809D01*
X173825771Y-76993809D02*
X173873390Y-76898571D01*
X173873390Y-76898571D02*
X173921009Y-76850952D01*
X173921009Y-76850952D02*
X174016247Y-76803333D01*
X174016247Y-76803333D02*
X174254342Y-76803333D01*
X174254342Y-76803333D02*
X174349580Y-76850952D01*
X174349580Y-76850952D02*
X174397200Y-76898571D01*
X174397200Y-76898571D02*
X174444819Y-76993809D01*
X174444819Y-76993809D02*
X174444819Y-77231904D01*
X174444819Y-77231904D02*
X174397200Y-77327142D01*
X174397200Y-77327142D02*
X174349580Y-77374761D01*
X163284819Y-77803333D02*
X163999104Y-77803333D01*
X163999104Y-77803333D02*
X164141961Y-77850952D01*
X164141961Y-77850952D02*
X164237200Y-77946190D01*
X164237200Y-77946190D02*
X164284819Y-78089047D01*
X164284819Y-78089047D02*
X164284819Y-78184285D01*
X163618152Y-76898571D02*
X164284819Y-76898571D01*
X163237200Y-77136666D02*
X163951485Y-77374761D01*
X163951485Y-77374761D02*
X163951485Y-76755714D01*
%TO.C,U1*%
D10*
X140970000Y-125730000D02*
X189230000Y-125730000D01*
X189230000Y-97790000D01*
X140970000Y-97790000D01*
X140970000Y-125730000D01*
X134620000Y-121793000D02*
X140970000Y-121793000D01*
X140970000Y-101727000D01*
X134620000Y-101727000D01*
X134620000Y-121793000D01*
D12*
X142519000Y-124460000D02*
G75*
G02*
X141961000Y-124460000I-279000J0D01*
G01*
X141961000Y-124460000D02*
G75*
G02*
X142519000Y-124460000I279000J0D01*
G01*
X145059000Y-124460000D02*
G75*
G02*
X144501000Y-124460000I-279000J0D01*
G01*
X144501000Y-124460000D02*
G75*
G02*
X145059000Y-124460000I279000J0D01*
G01*
X147599000Y-124460000D02*
G75*
G02*
X147041000Y-124460000I-279000J0D01*
G01*
X147041000Y-124460000D02*
G75*
G02*
X147599000Y-124460000I279000J0D01*
G01*
X150139000Y-124460000D02*
G75*
G02*
X149581000Y-124460000I-279000J0D01*
G01*
X149581000Y-124460000D02*
G75*
G02*
X150139000Y-124460000I279000J0D01*
G01*
X152679000Y-124460000D02*
G75*
G02*
X152121000Y-124460000I-279000J0D01*
G01*
X152121000Y-124460000D02*
G75*
G02*
X152679000Y-124460000I279000J0D01*
G01*
X155219000Y-124460000D02*
G75*
G02*
X154661000Y-124460000I-279000J0D01*
G01*
X154661000Y-124460000D02*
G75*
G02*
X155219000Y-124460000I279000J0D01*
G01*
X157759000Y-124460000D02*
G75*
G02*
X157201000Y-124460000I-279000J0D01*
G01*
X157201000Y-124460000D02*
G75*
G02*
X157759000Y-124460000I279000J0D01*
G01*
X160553000Y-124460000D02*
G75*
G02*
X159995000Y-124460000I-279000J0D01*
G01*
X159995000Y-124460000D02*
G75*
G02*
X160553000Y-124460000I279000J0D01*
G01*
X162839000Y-124460000D02*
G75*
G02*
X162281000Y-124460000I-279000J0D01*
G01*
X162281000Y-124460000D02*
G75*
G02*
X162839000Y-124460000I279000J0D01*
G01*
X165379000Y-124460000D02*
G75*
G02*
X164821000Y-124460000I-279000J0D01*
G01*
X164821000Y-124460000D02*
G75*
G02*
X165379000Y-124460000I279000J0D01*
G01*
X167919000Y-124460000D02*
G75*
G02*
X167361000Y-124460000I-279000J0D01*
G01*
X167361000Y-124460000D02*
G75*
G02*
X167919000Y-124460000I279000J0D01*
G01*
X170459000Y-124460000D02*
G75*
G02*
X169901000Y-124460000I-279000J0D01*
G01*
X169901000Y-124460000D02*
G75*
G02*
X170459000Y-124460000I279000J0D01*
G01*
X172999000Y-124460000D02*
G75*
G02*
X172441000Y-124460000I-279000J0D01*
G01*
X172441000Y-124460000D02*
G75*
G02*
X172999000Y-124460000I279000J0D01*
G01*
X175539000Y-124460000D02*
G75*
G02*
X174981000Y-124460000I-279000J0D01*
G01*
X174981000Y-124460000D02*
G75*
G02*
X175539000Y-124460000I279000J0D01*
G01*
X178079000Y-124460000D02*
G75*
G02*
X177521000Y-124460000I-279000J0D01*
G01*
X177521000Y-124460000D02*
G75*
G02*
X178079000Y-124460000I279000J0D01*
G01*
X180619000Y-124460000D02*
G75*
G02*
X180061000Y-124460000I-279000J0D01*
G01*
X180061000Y-124460000D02*
G75*
G02*
X180619000Y-124460000I279000J0D01*
G01*
X183159000Y-124460000D02*
G75*
G02*
X182601000Y-124460000I-279000J0D01*
G01*
X182601000Y-124460000D02*
G75*
G02*
X183159000Y-124460000I279000J0D01*
G01*
X185699000Y-124460000D02*
G75*
G02*
X185141000Y-124460000I-279000J0D01*
G01*
X185141000Y-124460000D02*
G75*
G02*
X185699000Y-124460000I279000J0D01*
G01*
X188239000Y-124460000D02*
G75*
G02*
X187681000Y-124460000I-279000J0D01*
G01*
X187681000Y-124460000D02*
G75*
G02*
X188239000Y-124460000I279000J0D01*
G01*
X142519000Y-99060000D02*
G75*
G02*
X141961000Y-99060000I-279000J0D01*
G01*
X141961000Y-99060000D02*
G75*
G02*
X142519000Y-99060000I279000J0D01*
G01*
X145059000Y-99060000D02*
G75*
G02*
X144501000Y-99060000I-279000J0D01*
G01*
X144501000Y-99060000D02*
G75*
G02*
X145059000Y-99060000I279000J0D01*
G01*
X147599000Y-99060000D02*
G75*
G02*
X147041000Y-99060000I-279000J0D01*
G01*
X147041000Y-99060000D02*
G75*
G02*
X147599000Y-99060000I279000J0D01*
G01*
X150139000Y-99060000D02*
G75*
G02*
X149581000Y-99060000I-279000J0D01*
G01*
X149581000Y-99060000D02*
G75*
G02*
X150139000Y-99060000I279000J0D01*
G01*
X152679000Y-99060000D02*
G75*
G02*
X152121000Y-99060000I-279000J0D01*
G01*
X152121000Y-99060000D02*
G75*
G02*
X152679000Y-99060000I279000J0D01*
G01*
X155219000Y-99060000D02*
G75*
G02*
X154661000Y-99060000I-279000J0D01*
G01*
X154661000Y-99060000D02*
G75*
G02*
X155219000Y-99060000I279000J0D01*
G01*
X157759000Y-99060000D02*
G75*
G02*
X157201000Y-99060000I-279000J0D01*
G01*
X157201000Y-99060000D02*
G75*
G02*
X157759000Y-99060000I279000J0D01*
G01*
X160553000Y-99060000D02*
G75*
G02*
X159995000Y-99060000I-279000J0D01*
G01*
X159995000Y-99060000D02*
G75*
G02*
X160553000Y-99060000I279000J0D01*
G01*
X162839000Y-99060000D02*
G75*
G02*
X162281000Y-99060000I-279000J0D01*
G01*
X162281000Y-99060000D02*
G75*
G02*
X162839000Y-99060000I279000J0D01*
G01*
X165379000Y-99060000D02*
G75*
G02*
X164821000Y-99060000I-279000J0D01*
G01*
X164821000Y-99060000D02*
G75*
G02*
X165379000Y-99060000I279000J0D01*
G01*
X167919000Y-99060000D02*
G75*
G02*
X167361000Y-99060000I-279000J0D01*
G01*
X167361000Y-99060000D02*
G75*
G02*
X167919000Y-99060000I279000J0D01*
G01*
X170459000Y-99060000D02*
G75*
G02*
X169901000Y-99060000I-279000J0D01*
G01*
X169901000Y-99060000D02*
G75*
G02*
X170459000Y-99060000I279000J0D01*
G01*
X172999000Y-99060000D02*
G75*
G02*
X172441000Y-99060000I-279000J0D01*
G01*
X172441000Y-99060000D02*
G75*
G02*
X172999000Y-99060000I279000J0D01*
G01*
X175539000Y-99060000D02*
G75*
G02*
X174981000Y-99060000I-279000J0D01*
G01*
X174981000Y-99060000D02*
G75*
G02*
X175539000Y-99060000I279000J0D01*
G01*
X178079000Y-99060000D02*
G75*
G02*
X177521000Y-99060000I-279000J0D01*
G01*
X177521000Y-99060000D02*
G75*
G02*
X178079000Y-99060000I279000J0D01*
G01*
X180619000Y-99060000D02*
G75*
G02*
X180061000Y-99060000I-279000J0D01*
G01*
X180061000Y-99060000D02*
G75*
G02*
X180619000Y-99060000I279000J0D01*
G01*
X183159000Y-99060000D02*
G75*
G02*
X182601000Y-99060000I-279000J0D01*
G01*
X182601000Y-99060000D02*
G75*
G02*
X183159000Y-99060000I279000J0D01*
G01*
X185699000Y-99060000D02*
G75*
G02*
X185141000Y-99060000I-279000J0D01*
G01*
X185141000Y-99060000D02*
G75*
G02*
X185699000Y-99060000I279000J0D01*
G01*
X188239000Y-99060000D02*
G75*
G02*
X187681000Y-99060000I-279000J0D01*
G01*
X187681000Y-99060000D02*
G75*
G02*
X188239000Y-99060000I279000J0D01*
G01*
D13*
%TO.C,U2*%
X166305000Y-94090000D02*
X184205000Y-94090000D01*
X184205000Y-94090000D02*
X184205000Y-88790000D01*
X166305000Y-92440000D02*
X166305000Y-94090000D01*
X166305000Y-88790000D02*
X166305000Y-90440000D01*
X184205000Y-88790000D02*
X166305000Y-88790000D01*
X166305000Y-90440000D02*
G75*
G02*
X166305000Y-92440000I0J-1000000D01*
G01*
%TO.C,C1*%
X165200000Y-86300000D02*
X162460000Y-86300000D01*
X165200000Y-86300000D02*
X165200000Y-91540000D01*
X162460000Y-86300000D02*
X162460000Y-91540000D01*
X165200000Y-91540000D02*
X162460000Y-91540000D01*
%TO.C,R2*%
X188310000Y-92090000D02*
X188310000Y-88250000D01*
X190150000Y-92090000D02*
X190150000Y-88250000D01*
%TO.C,J7*%
X189760000Y-79890000D02*
X189760000Y-79150000D01*
X189760000Y-79150000D02*
X189260000Y-79150000D01*
X189520000Y-85710000D02*
X189520000Y-79390000D01*
X189520000Y-85710000D02*
X183860000Y-85710000D01*
X189520000Y-85250000D02*
X183860000Y-85250000D01*
X189520000Y-79950000D02*
X188750000Y-79950000D01*
X189520000Y-79390000D02*
X188750000Y-79390000D01*
X187170000Y-79950000D02*
X186210000Y-79950000D01*
X187170000Y-79390000D02*
X186210000Y-79390000D01*
X184630000Y-79950000D02*
X183860000Y-79950000D01*
X184630000Y-79390000D02*
X183860000Y-79390000D01*
X183860000Y-85710000D02*
X183860000Y-79390000D01*
%TO.C,J3*%
X182140000Y-79890000D02*
X182140000Y-79150000D01*
X182140000Y-79150000D02*
X181640000Y-79150000D01*
X181900000Y-85710000D02*
X181900000Y-79390000D01*
X181900000Y-85710000D02*
X176240000Y-85710000D01*
X181900000Y-85250000D02*
X176240000Y-85250000D01*
X181900000Y-79950000D02*
X181130000Y-79950000D01*
X181900000Y-79390000D02*
X181130000Y-79390000D01*
X179550000Y-79950000D02*
X178590000Y-79950000D01*
X179550000Y-79390000D02*
X178590000Y-79390000D01*
X177010000Y-79950000D02*
X176240000Y-79950000D01*
X177010000Y-79390000D02*
X176240000Y-79390000D01*
X176240000Y-85710000D02*
X176240000Y-79390000D01*
%TO.C,J6*%
X141500000Y-79890000D02*
X141500000Y-79150000D01*
X141500000Y-79150000D02*
X141000000Y-79150000D01*
X141260000Y-85710000D02*
X141260000Y-79390000D01*
X141260000Y-85710000D02*
X135600000Y-85710000D01*
X141260000Y-85250000D02*
X135600000Y-85250000D01*
X141260000Y-79950000D02*
X140490000Y-79950000D01*
X141260000Y-79390000D02*
X140490000Y-79390000D01*
X138910000Y-79950000D02*
X137950000Y-79950000D01*
X138910000Y-79390000D02*
X137950000Y-79390000D01*
X136370000Y-79950000D02*
X135600000Y-79950000D01*
X136370000Y-79390000D02*
X135600000Y-79390000D01*
X135600000Y-85710000D02*
X135600000Y-79390000D01*
%TO.C,R1*%
X185770000Y-92090000D02*
X185770000Y-88250000D01*
X187610000Y-92090000D02*
X187610000Y-88250000D01*
%TO.C,J1*%
X143520000Y-123105000D02*
X189300000Y-123105000D01*
X140920000Y-123105000D02*
X142250000Y-123105000D01*
X140920000Y-124435000D02*
X140920000Y-123105000D01*
X189300000Y-125765000D02*
X189300000Y-123105000D01*
X143520000Y-125765000D02*
X143520000Y-123105000D01*
X143520000Y-125765000D02*
X189300000Y-125765000D01*
%TO.C,J2*%
X143520000Y-97705000D02*
X189300000Y-97705000D01*
X140920000Y-97705000D02*
X142250000Y-97705000D01*
X140920000Y-99035000D02*
X140920000Y-97705000D01*
X189300000Y-100365000D02*
X189300000Y-97705000D01*
X143520000Y-100365000D02*
X143520000Y-97705000D01*
X143520000Y-100365000D02*
X189300000Y-100365000D01*
%TO.C,J5*%
X174520000Y-79890000D02*
X174520000Y-79150000D01*
X174520000Y-79150000D02*
X174020000Y-79150000D01*
X174280000Y-85710000D02*
X174280000Y-79390000D01*
X174280000Y-85710000D02*
X166080000Y-85710000D01*
X174280000Y-85250000D02*
X166080000Y-85250000D01*
X174280000Y-79950000D02*
X173510000Y-79950000D01*
X174280000Y-79390000D02*
X173510000Y-79390000D01*
X171930000Y-79950000D02*
X170970000Y-79950000D01*
X171930000Y-79390000D02*
X170970000Y-79390000D01*
X169390000Y-79950000D02*
X168430000Y-79950000D01*
X169390000Y-79390000D02*
X168430000Y-79390000D01*
X166850000Y-79950000D02*
X166080000Y-79950000D01*
X166850000Y-79390000D02*
X166080000Y-79390000D01*
X166080000Y-85710000D02*
X166080000Y-79390000D01*
%TO.C,J4*%
X155920000Y-85710000D02*
X155920000Y-79390000D01*
X156690000Y-79390000D02*
X155920000Y-79390000D01*
X156690000Y-79950000D02*
X155920000Y-79950000D01*
X159230000Y-79390000D02*
X158270000Y-79390000D01*
X159230000Y-79950000D02*
X158270000Y-79950000D01*
X161770000Y-79390000D02*
X160810000Y-79390000D01*
X161770000Y-79950000D02*
X160810000Y-79950000D01*
X164120000Y-79390000D02*
X163350000Y-79390000D01*
X164120000Y-79950000D02*
X163350000Y-79950000D01*
X164120000Y-85250000D02*
X155920000Y-85250000D01*
X164120000Y-85710000D02*
X155920000Y-85710000D01*
X164120000Y-85710000D02*
X164120000Y-79390000D01*
X164360000Y-79150000D02*
X163860000Y-79150000D01*
X164360000Y-79890000D02*
X164360000Y-79150000D01*
%TD*%
M02*
