M48
; DRILL file {KiCad 8.0.7-8.0.7-0~ubuntu24.04.1} date 2025-01-02T00:55:25+0100
; FORMAT={-:-/ absolute / metric / decimal}
; #@! TF.CreationDate,2025-01-02T00:55:25+01:00
; #@! TF.GenerationSoftware,Kicad,Pcbnew,8.0.7-8.0.7-0~ubuntu24.04.1
; #@! TF.FileFunction,NonPlated,1,2,NPTH
FMAT,2
METRIC
; #@! TA.AperFunction,NonPlated,NPTH,ComponentDrill
T1C1.100
; #@! TA.AperFunction,NonPlated,NPTH,ComponentDrill
T2C3.200
%
G90
G05
T1
X7.62Y87.63
X7.62Y85.09
X7.62Y82.55
X7.62Y77.47
X7.62Y74.93
X7.62Y72.39
X7.62Y67.31
X7.62Y64.77
X7.62Y62.23
X7.62Y57.15
X7.62Y54.61
X7.62Y52.07
X7.62Y46.99
X7.62Y44.45
X7.62Y41.91
X7.62Y36.83
X7.62Y34.29
X7.62Y31.75
X7.62Y26.67
X7.62Y24.13
X7.62Y21.59
X7.62Y16.51
X7.62Y13.97
X7.62Y11.43
X17.78Y7.62
X20.32Y7.62
X25.4Y7.62
X26.67Y90.17
X27.94Y7.62
X29.21Y90.17
X30.48Y7.62
X34.29Y90.17
X35.56Y7.62
X36.83Y90.17
X38.1Y7.62
X40.64Y7.62
X41.91Y90.17
X44.45Y90.17
X45.72Y7.62
X48.26Y7.62
X49.53Y90.17
X50.8Y7.62
X52.07Y90.17
X55.88Y7.62
X58.42Y7.62
X60.96Y7.62
X71.12Y87.63
X71.12Y85.09
X71.12Y82.55
X71.12Y77.47
X71.12Y74.93
X71.12Y72.39
X71.12Y67.31
X71.12Y64.77
X71.12Y62.23
X71.12Y57.15
X71.12Y54.61
X71.12Y52.07
X71.12Y46.99
X71.12Y44.45
X71.12Y41.91
X71.12Y36.83
X71.12Y34.29
X71.12Y31.75
X71.12Y26.67
X71.12Y24.13
X71.12Y21.59
X71.12Y16.51
X71.12Y13.97
X71.12Y11.43
T2
X3.81Y93.98
X3.81Y3.81
X74.93Y93.98
X74.93Y3.81
M30
