%TF.GenerationSoftware,KiCad,Pcbnew,8.0.7*%
%TF.CreationDate,2024-12-29T04:50:49+01:00*%
%TF.ProjectId,TeteDeLit,54657465-4465-44c6-9974-2e6b69636164,rev?*%
%TF.SameCoordinates,Original*%
%TF.FileFunction,Copper,L1,Top*%
%TF.FilePolarity,Positive*%
%FSLAX46Y46*%
G04 Gerber Fmt 4.6, Leading zero omitted, Abs format (unit mm)*
G04 Created by KiCad (PCBNEW 8.0.7) date 2024-12-29 04:50:49*
%MOMM*%
%LPD*%
G01*
G04 APERTURE LIST*
%ADD10C,0.187500*%
%TA.AperFunction,NonConductor*%
%ADD11C,0.187500*%
%TD*%
%ADD12C,0.150000*%
%TA.AperFunction,NonConductor*%
%ADD13C,0.150000*%
%TD*%
%TA.AperFunction,ComponentPad*%
%ADD14C,7.000000*%
%TD*%
%TA.AperFunction,ComponentPad*%
%ADD15R,1.600000X1.600000*%
%TD*%
%TA.AperFunction,ComponentPad*%
%ADD16O,1.600000X1.600000*%
%TD*%
%TA.AperFunction,ComponentPad*%
%ADD17C,1.600000*%
%TD*%
%TA.AperFunction,ComponentPad*%
%ADD18C,1.400000*%
%TD*%
%TA.AperFunction,ComponentPad*%
%ADD19O,1.400000X1.400000*%
%TD*%
%TA.AperFunction,ComponentPad*%
%ADD20R,2.200000X2.200000*%
%TD*%
%TA.AperFunction,ComponentPad*%
%ADD21C,2.200000*%
%TD*%
%TA.AperFunction,ComponentPad*%
%ADD22O,1.700000X1.700000*%
%TD*%
%TA.AperFunction,ComponentPad*%
%ADD23R,1.700000X1.700000*%
%TD*%
%TA.AperFunction,Conductor*%
%ADD24C,0.200000*%
%TD*%
%TA.AperFunction,Conductor*%
%ADD25C,2.000000*%
%TD*%
G04 APERTURE END LIST*
D10*
G36*
X148639107Y-80669529D02*
G01*
X148390927Y-80669529D01*
X148212069Y-80609909D01*
X148095619Y-80493459D01*
X148035597Y-80373415D01*
X147969464Y-80108880D01*
X147969464Y-79917677D01*
X148035597Y-79653142D01*
X148095619Y-79533098D01*
X148212069Y-79416648D01*
X148390927Y-79357029D01*
X148639107Y-79357029D01*
X148639107Y-80669529D01*
G37*
G36*
X147210535Y-80026861D02*
G01*
X147162979Y-80121973D01*
X147067869Y-80169529D01*
X146826417Y-80169529D01*
X146731305Y-80121973D01*
X146683750Y-80026861D01*
X146683750Y-79982992D01*
X147210535Y-79877635D01*
X147210535Y-80026861D01*
G37*
G36*
X149996249Y-80026861D02*
G01*
X149948693Y-80121973D01*
X149853583Y-80169529D01*
X149612131Y-80169529D01*
X149517019Y-80121973D01*
X149469464Y-80026861D01*
X149469464Y-79982992D01*
X149996249Y-79877635D01*
X149996249Y-80026861D01*
G37*
G36*
X152139106Y-80026861D02*
G01*
X152091550Y-80121973D01*
X151996440Y-80169529D01*
X151754988Y-80169529D01*
X151659876Y-80121973D01*
X151612321Y-80026861D01*
X151612321Y-79982992D01*
X152139106Y-79877635D01*
X152139106Y-80026861D01*
G37*
G36*
X146963038Y-76996841D02*
G01*
X147012950Y-77046754D01*
X147072973Y-77166799D01*
X147139106Y-77431332D01*
X147139106Y-77765393D01*
X147072973Y-78029926D01*
X147012950Y-78149971D01*
X146963038Y-78199884D01*
X146853581Y-78254613D01*
X146754988Y-78254613D01*
X146645533Y-78199885D01*
X146595619Y-78149972D01*
X146535597Y-78029928D01*
X146469463Y-77765391D01*
X146469463Y-77431334D01*
X146535597Y-77166797D01*
X146595619Y-77046753D01*
X146645533Y-76996840D01*
X146754988Y-76942113D01*
X146853581Y-76942113D01*
X146963038Y-76996841D01*
G37*
G36*
X148391609Y-76996841D02*
G01*
X148441521Y-77046754D01*
X148501544Y-77166799D01*
X148567677Y-77431332D01*
X148567677Y-77765393D01*
X148501544Y-78029926D01*
X148441521Y-78149971D01*
X148391609Y-78199884D01*
X148282152Y-78254613D01*
X148183559Y-78254613D01*
X148074104Y-78199885D01*
X148024190Y-78149972D01*
X147964168Y-78029928D01*
X147898034Y-77765391D01*
X147898034Y-77431334D01*
X147964168Y-77166797D01*
X148024190Y-77046753D01*
X148074104Y-76996840D01*
X148183559Y-76942113D01*
X148282152Y-76942113D01*
X148391609Y-76996841D01*
G37*
G36*
X153777186Y-81023696D02*
G01*
X143402812Y-81023696D01*
X143402812Y-79244989D01*
X143569479Y-79244989D01*
X143569479Y-79281569D01*
X143583478Y-79315364D01*
X143609343Y-79341229D01*
X143643138Y-79355228D01*
X143661428Y-79357029D01*
X143782154Y-79357029D01*
X143877264Y-79404584D01*
X143924821Y-79499697D01*
X143924821Y-80169529D01*
X143661428Y-80169529D01*
X143643138Y-80171330D01*
X143609343Y-80185329D01*
X143583478Y-80211194D01*
X143569479Y-80244989D01*
X143569479Y-80281569D01*
X143583478Y-80315364D01*
X143609343Y-80341229D01*
X143643138Y-80355228D01*
X143661428Y-80357029D01*
X143924821Y-80357029D01*
X143924821Y-80763279D01*
X143926622Y-80781569D01*
X143940621Y-80815364D01*
X143966486Y-80841229D01*
X144000281Y-80855228D01*
X144036861Y-80855228D01*
X144070656Y-80841229D01*
X144096521Y-80815364D01*
X144110520Y-80781569D01*
X144112321Y-80763279D01*
X144112321Y-80673561D01*
X144569479Y-80673561D01*
X144569479Y-80710139D01*
X144583477Y-80743935D01*
X144595137Y-80758141D01*
X144666566Y-80829570D01*
X144680772Y-80841230D01*
X144704669Y-80851127D01*
X144714567Y-80855228D01*
X144714568Y-80855228D01*
X144751146Y-80855228D01*
X144751147Y-80855228D01*
X144761044Y-80851127D01*
X144784942Y-80841230D01*
X144784947Y-80841224D01*
X144799149Y-80829570D01*
X144870577Y-80758141D01*
X144882236Y-80743934D01*
X144896234Y-80710139D01*
X144896233Y-80673560D01*
X144882235Y-80639765D01*
X144870576Y-80625558D01*
X144799148Y-80554131D01*
X144784942Y-80542471D01*
X144761044Y-80532573D01*
X144751147Y-80528473D01*
X144714567Y-80528473D01*
X144704669Y-80532573D01*
X144680772Y-80542471D01*
X144680767Y-80542475D01*
X144666566Y-80554130D01*
X144595137Y-80625558D01*
X144583482Y-80639759D01*
X144583477Y-80639765D01*
X144573579Y-80663662D01*
X144569916Y-80672507D01*
X144569479Y-80673561D01*
X144112321Y-80673561D01*
X144112321Y-80357029D01*
X144232856Y-80357029D01*
X144251146Y-80355228D01*
X144284941Y-80341229D01*
X144310806Y-80315364D01*
X144324805Y-80281569D01*
X144324805Y-80244989D01*
X144310806Y-80211194D01*
X144284941Y-80185329D01*
X144251146Y-80171330D01*
X144232856Y-80169529D01*
X144112321Y-80169529D01*
X144112321Y-79477565D01*
X144110520Y-79459275D01*
X144109230Y-79456162D01*
X144108992Y-79452803D01*
X144102423Y-79435638D01*
X144030994Y-79292781D01*
X144029068Y-79289721D01*
X144028588Y-79288281D01*
X144027032Y-79286486D01*
X144021204Y-79277228D01*
X144012322Y-79269525D01*
X144006905Y-79263279D01*
X144639107Y-79263279D01*
X144639107Y-80263279D01*
X144640908Y-80281569D01*
X144654907Y-80315364D01*
X144680772Y-80341229D01*
X144714567Y-80355228D01*
X144751147Y-80355228D01*
X144784942Y-80341229D01*
X144810807Y-80315364D01*
X144824806Y-80281569D01*
X144826607Y-80263279D01*
X144826607Y-79263279D01*
X144824806Y-79244989D01*
X145140908Y-79244989D01*
X145140908Y-79281569D01*
X145154907Y-79315364D01*
X145180772Y-79341229D01*
X145214567Y-79355228D01*
X145232857Y-79357029D01*
X145853393Y-79357029D01*
X145853393Y-80763279D01*
X145855194Y-80781569D01*
X145869193Y-80815364D01*
X145895058Y-80841229D01*
X145928853Y-80855228D01*
X145965433Y-80855228D01*
X145999228Y-80841229D01*
X146025093Y-80815364D01*
X146039092Y-80781569D01*
X146040893Y-80763279D01*
X146040893Y-79906136D01*
X146496250Y-79906136D01*
X146496250Y-80048993D01*
X146498051Y-80067283D01*
X146499340Y-80070395D01*
X146499579Y-80073755D01*
X146506147Y-80090919D01*
X146577575Y-80233776D01*
X146579500Y-80236834D01*
X146579981Y-80238277D01*
X146581539Y-80240074D01*
X146587366Y-80249330D01*
X146596247Y-80257032D01*
X146603948Y-80265912D01*
X146613199Y-80271735D01*
X146615000Y-80273297D01*
X146616445Y-80273778D01*
X146619501Y-80275702D01*
X146762358Y-80347131D01*
X146779523Y-80353700D01*
X146782882Y-80353938D01*
X146785995Y-80355228D01*
X146804285Y-80357029D01*
X147090000Y-80357029D01*
X147108290Y-80355228D01*
X147111402Y-80353938D01*
X147114762Y-80353700D01*
X147131927Y-80347131D01*
X147274783Y-80275703D01*
X147277843Y-80273776D01*
X147279285Y-80273296D01*
X147281080Y-80271738D01*
X147290337Y-80265912D01*
X147298037Y-80257032D01*
X147306919Y-80249330D01*
X147312747Y-80240070D01*
X147314303Y-80238277D01*
X147314782Y-80236837D01*
X147316710Y-80233776D01*
X147388138Y-80090919D01*
X147394706Y-80073754D01*
X147394944Y-80070395D01*
X147396234Y-80067283D01*
X147398035Y-80048993D01*
X147398035Y-79906136D01*
X147781964Y-79906136D01*
X147781964Y-80120422D01*
X147782277Y-80123609D01*
X147782074Y-80124979D01*
X147783087Y-80131831D01*
X147783765Y-80138712D01*
X147784294Y-80139989D01*
X147784763Y-80143160D01*
X147856191Y-80428873D01*
X147856672Y-80430222D01*
X147856721Y-80430898D01*
X147859627Y-80438493D01*
X147862374Y-80446181D01*
X147862778Y-80446727D01*
X147863290Y-80448063D01*
X147934718Y-80590919D01*
X147939671Y-80598788D01*
X147940620Y-80601078D01*
X147942734Y-80603654D01*
X147944509Y-80606473D01*
X147946379Y-80608095D01*
X147952280Y-80615284D01*
X148095137Y-80758141D01*
X148109343Y-80769801D01*
X148112455Y-80771090D01*
X148115000Y-80773297D01*
X148131782Y-80780789D01*
X148346067Y-80852218D01*
X148355135Y-80854280D01*
X148357424Y-80855228D01*
X148360740Y-80855554D01*
X148363988Y-80856293D01*
X148366457Y-80856117D01*
X148375714Y-80857029D01*
X148732857Y-80857029D01*
X148751147Y-80855228D01*
X148784942Y-80841229D01*
X148810807Y-80815364D01*
X148824806Y-80781569D01*
X148824806Y-80781568D01*
X148826607Y-80763279D01*
X148826607Y-79906136D01*
X149281964Y-79906136D01*
X149281964Y-80048993D01*
X149283765Y-80067283D01*
X149285054Y-80070395D01*
X149285293Y-80073755D01*
X149291861Y-80090919D01*
X149363289Y-80233776D01*
X149365214Y-80236834D01*
X149365695Y-80238277D01*
X149367253Y-80240074D01*
X149373080Y-80249330D01*
X149381961Y-80257032D01*
X149389662Y-80265912D01*
X149398913Y-80271735D01*
X149400714Y-80273297D01*
X149402159Y-80273778D01*
X149405215Y-80275702D01*
X149548072Y-80347131D01*
X149565237Y-80353700D01*
X149568596Y-80353938D01*
X149571709Y-80355228D01*
X149589999Y-80357029D01*
X149875714Y-80357029D01*
X149894004Y-80355228D01*
X149897116Y-80353938D01*
X149900476Y-80353700D01*
X149917641Y-80347131D01*
X150060497Y-80275703D01*
X150063557Y-80273776D01*
X150064999Y-80273296D01*
X150066794Y-80271738D01*
X150076051Y-80265912D01*
X150083751Y-80257032D01*
X150092633Y-80249330D01*
X150098461Y-80240070D01*
X150100017Y-80238277D01*
X150100496Y-80236837D01*
X150102424Y-80233776D01*
X150173852Y-80090919D01*
X150180420Y-80073754D01*
X150180658Y-80070395D01*
X150181948Y-80067283D01*
X150183749Y-80048993D01*
X150183749Y-79763186D01*
X150183750Y-79763181D01*
X150183749Y-79763176D01*
X150183749Y-79477565D01*
X150181948Y-79459275D01*
X150180658Y-79456162D01*
X150180420Y-79452804D01*
X150173852Y-79435639D01*
X150102424Y-79292782D01*
X150100496Y-79289720D01*
X150100017Y-79288281D01*
X150098461Y-79286487D01*
X150092633Y-79277228D01*
X150083751Y-79269525D01*
X150076051Y-79260646D01*
X150066794Y-79254819D01*
X150064999Y-79253262D01*
X150063557Y-79252781D01*
X150060497Y-79250855D01*
X150048765Y-79244989D01*
X150426622Y-79244989D01*
X150426622Y-79281569D01*
X150440621Y-79315364D01*
X150466486Y-79341229D01*
X150500281Y-79355228D01*
X150518571Y-79357029D01*
X150639297Y-79357029D01*
X150734407Y-79404584D01*
X150781964Y-79499697D01*
X150781964Y-80169529D01*
X150518571Y-80169529D01*
X150500281Y-80171330D01*
X150466486Y-80185329D01*
X150440621Y-80211194D01*
X150426622Y-80244989D01*
X150426622Y-80281569D01*
X150440621Y-80315364D01*
X150466486Y-80341229D01*
X150500281Y-80355228D01*
X150518571Y-80357029D01*
X150781964Y-80357029D01*
X150781964Y-80763279D01*
X150783765Y-80781569D01*
X150797764Y-80815364D01*
X150823629Y-80841229D01*
X150857424Y-80855228D01*
X150894004Y-80855228D01*
X150927799Y-80841229D01*
X150953664Y-80815364D01*
X150967663Y-80781569D01*
X150969464Y-80763279D01*
X150969464Y-80744989D01*
X152569479Y-80744989D01*
X152569479Y-80781569D01*
X152583478Y-80815364D01*
X152609343Y-80841229D01*
X152643138Y-80855228D01*
X152661428Y-80857029D01*
X153518570Y-80857029D01*
X153536860Y-80855228D01*
X153570655Y-80841229D01*
X153596520Y-80815364D01*
X153610519Y-80781569D01*
X153610519Y-80744989D01*
X153596520Y-80711194D01*
X153570655Y-80685329D01*
X153536860Y-80671330D01*
X153518570Y-80669529D01*
X153183749Y-80669529D01*
X153183749Y-79263279D01*
X153181948Y-79244989D01*
X153167949Y-79211194D01*
X153142084Y-79185329D01*
X153108289Y-79171330D01*
X153071709Y-79171330D01*
X153037914Y-79185329D01*
X153012049Y-79211194D01*
X152998050Y-79244989D01*
X152996249Y-79263279D01*
X152996249Y-80669529D01*
X152661428Y-80669529D01*
X152643138Y-80671330D01*
X152609343Y-80685329D01*
X152583478Y-80711194D01*
X152569479Y-80744989D01*
X150969464Y-80744989D01*
X150969464Y-80357029D01*
X151089999Y-80357029D01*
X151108289Y-80355228D01*
X151142084Y-80341229D01*
X151167949Y-80315364D01*
X151181948Y-80281569D01*
X151181948Y-80244989D01*
X151167949Y-80211194D01*
X151142084Y-80185329D01*
X151108289Y-80171330D01*
X151089999Y-80169529D01*
X150969464Y-80169529D01*
X150969464Y-79906136D01*
X151424821Y-79906136D01*
X151424821Y-80048993D01*
X151426622Y-80067283D01*
X151427911Y-80070395D01*
X151428150Y-80073755D01*
X151434718Y-80090919D01*
X151506146Y-80233776D01*
X151508071Y-80236834D01*
X151508552Y-80238277D01*
X151510110Y-80240074D01*
X151515937Y-80249330D01*
X151524818Y-80257032D01*
X151532519Y-80265912D01*
X151541770Y-80271735D01*
X151543571Y-80273297D01*
X151545016Y-80273778D01*
X151548072Y-80275702D01*
X151690929Y-80347131D01*
X151708094Y-80353700D01*
X151711453Y-80353938D01*
X151714566Y-80355228D01*
X151732856Y-80357029D01*
X152018571Y-80357029D01*
X152036861Y-80355228D01*
X152039973Y-80353938D01*
X152043333Y-80353700D01*
X152060498Y-80347131D01*
X152203354Y-80275703D01*
X152206414Y-80273776D01*
X152207856Y-80273296D01*
X152209651Y-80271738D01*
X152218908Y-80265912D01*
X152226608Y-80257032D01*
X152235490Y-80249330D01*
X152241318Y-80240070D01*
X152242874Y-80238277D01*
X152243353Y-80236837D01*
X152245281Y-80233776D01*
X152316709Y-80090919D01*
X152323277Y-80073754D01*
X152323515Y-80070395D01*
X152324805Y-80067283D01*
X152326606Y-80048993D01*
X152326606Y-79763186D01*
X152326607Y-79763181D01*
X152326606Y-79763176D01*
X152326606Y-79477565D01*
X152324805Y-79459275D01*
X152323515Y-79456162D01*
X152323277Y-79452804D01*
X152316709Y-79435639D01*
X152245281Y-79292782D01*
X152243353Y-79289720D01*
X152242874Y-79288281D01*
X152241318Y-79286487D01*
X152235490Y-79277228D01*
X152226608Y-79269525D01*
X152218908Y-79260646D01*
X152209651Y-79254819D01*
X152207856Y-79253262D01*
X152206414Y-79252781D01*
X152203354Y-79250855D01*
X152060498Y-79179427D01*
X152043333Y-79172858D01*
X152039973Y-79172619D01*
X152036861Y-79171330D01*
X152018571Y-79169529D01*
X151732856Y-79169529D01*
X151714566Y-79171330D01*
X151711453Y-79172619D01*
X151708094Y-79172858D01*
X151690929Y-79179427D01*
X151548072Y-79250856D01*
X151532519Y-79260646D01*
X151508552Y-79288281D01*
X151496985Y-79322982D01*
X151499578Y-79359470D01*
X151515937Y-79392188D01*
X151543572Y-79416155D01*
X151578273Y-79427722D01*
X151614761Y-79425129D01*
X151631926Y-79418560D01*
X151754988Y-79357029D01*
X151996440Y-79357029D01*
X152091550Y-79404584D01*
X152139106Y-79499696D01*
X152139106Y-79686421D01*
X151500285Y-79814187D01*
X151500281Y-79814187D01*
X151500277Y-79814188D01*
X151500185Y-79814207D01*
X151482603Y-79819560D01*
X151474970Y-79824671D01*
X151466486Y-79828186D01*
X151459924Y-79834747D01*
X151452210Y-79839914D01*
X151447114Y-79847557D01*
X151440621Y-79854051D01*
X151437068Y-79862626D01*
X151431920Y-79870350D01*
X151430137Y-79879358D01*
X151426622Y-79887846D01*
X151424821Y-79906136D01*
X150969464Y-79906136D01*
X150969464Y-79477565D01*
X150967663Y-79459275D01*
X150966373Y-79456162D01*
X150966135Y-79452803D01*
X150959566Y-79435638D01*
X150888137Y-79292781D01*
X150886211Y-79289721D01*
X150885731Y-79288281D01*
X150884175Y-79286486D01*
X150878347Y-79277228D01*
X150869465Y-79269525D01*
X150861765Y-79260646D01*
X150852509Y-79254819D01*
X150850712Y-79253261D01*
X150849269Y-79252780D01*
X150846211Y-79250855D01*
X150703355Y-79179427D01*
X150686190Y-79172858D01*
X150682830Y-79172619D01*
X150679718Y-79171330D01*
X150661428Y-79169529D01*
X150518571Y-79169529D01*
X150500281Y-79171330D01*
X150466486Y-79185329D01*
X150440621Y-79211194D01*
X150426622Y-79244989D01*
X150048765Y-79244989D01*
X149917641Y-79179427D01*
X149900476Y-79172858D01*
X149897116Y-79172619D01*
X149894004Y-79171330D01*
X149875714Y-79169529D01*
X149589999Y-79169529D01*
X149571709Y-79171330D01*
X149568596Y-79172619D01*
X149565237Y-79172858D01*
X149548072Y-79179427D01*
X149405215Y-79250856D01*
X149389662Y-79260646D01*
X149365695Y-79288281D01*
X149354128Y-79322982D01*
X149356721Y-79359470D01*
X149373080Y-79392188D01*
X149400715Y-79416155D01*
X149435416Y-79427722D01*
X149471904Y-79425129D01*
X149489069Y-79418560D01*
X149612131Y-79357029D01*
X149853583Y-79357029D01*
X149948693Y-79404584D01*
X149996249Y-79499696D01*
X149996249Y-79686421D01*
X149357428Y-79814187D01*
X149357424Y-79814187D01*
X149357420Y-79814188D01*
X149357328Y-79814207D01*
X149339746Y-79819560D01*
X149332113Y-79824671D01*
X149323629Y-79828186D01*
X149317067Y-79834747D01*
X149309353Y-79839914D01*
X149304257Y-79847557D01*
X149297764Y-79854051D01*
X149294211Y-79862626D01*
X149289063Y-79870350D01*
X149287280Y-79879358D01*
X149283765Y-79887846D01*
X149281964Y-79906136D01*
X148826607Y-79906136D01*
X148826607Y-79263279D01*
X148824806Y-79244989D01*
X148810807Y-79211194D01*
X148784942Y-79185329D01*
X148751147Y-79171330D01*
X148732857Y-79169529D01*
X148375714Y-79169529D01*
X148366457Y-79170440D01*
X148363988Y-79170265D01*
X148360740Y-79171003D01*
X148357424Y-79171330D01*
X148355135Y-79172277D01*
X148346067Y-79174340D01*
X148131782Y-79245769D01*
X148115000Y-79253261D01*
X148112455Y-79255467D01*
X148109343Y-79256757D01*
X148095137Y-79268417D01*
X147952280Y-79411274D01*
X147946379Y-79418462D01*
X147944509Y-79420085D01*
X147942734Y-79422903D01*
X147940620Y-79425480D01*
X147939671Y-79427769D01*
X147934718Y-79435639D01*
X147863290Y-79578495D01*
X147862778Y-79579830D01*
X147862374Y-79580377D01*
X147859627Y-79588064D01*
X147856721Y-79595660D01*
X147856672Y-79596335D01*
X147856191Y-79597685D01*
X147784763Y-79883398D01*
X147784294Y-79886568D01*
X147783765Y-79887846D01*
X147783087Y-79894726D01*
X147782074Y-79901579D01*
X147782277Y-79902948D01*
X147781964Y-79906136D01*
X147398035Y-79906136D01*
X147398035Y-79763186D01*
X147398036Y-79763181D01*
X147398035Y-79763176D01*
X147398035Y-79477565D01*
X147396234Y-79459275D01*
X147394944Y-79456162D01*
X147394706Y-79452804D01*
X147388138Y-79435639D01*
X147316710Y-79292782D01*
X147314782Y-79289720D01*
X147314303Y-79288281D01*
X147312747Y-79286487D01*
X147306919Y-79277228D01*
X147298037Y-79269525D01*
X147290337Y-79260646D01*
X147281080Y-79254819D01*
X147279285Y-79253262D01*
X147277843Y-79252781D01*
X147274783Y-79250855D01*
X147131927Y-79179427D01*
X147114762Y-79172858D01*
X147111402Y-79172619D01*
X147108290Y-79171330D01*
X147090000Y-79169529D01*
X146804285Y-79169529D01*
X146785995Y-79171330D01*
X146782882Y-79172619D01*
X146779523Y-79172858D01*
X146762358Y-79179427D01*
X146619501Y-79250856D01*
X146603948Y-79260646D01*
X146579981Y-79288281D01*
X146568414Y-79322982D01*
X146571007Y-79359470D01*
X146587366Y-79392188D01*
X146615001Y-79416155D01*
X146649702Y-79427722D01*
X146686190Y-79425129D01*
X146703355Y-79418560D01*
X146826417Y-79357029D01*
X147067869Y-79357029D01*
X147162979Y-79404584D01*
X147210535Y-79499696D01*
X147210535Y-79686421D01*
X146571714Y-79814187D01*
X146571710Y-79814187D01*
X146571706Y-79814188D01*
X146571614Y-79814207D01*
X146554032Y-79819560D01*
X146546399Y-79824671D01*
X146537915Y-79828186D01*
X146531353Y-79834747D01*
X146523639Y-79839914D01*
X146518543Y-79847557D01*
X146512050Y-79854051D01*
X146508497Y-79862626D01*
X146503349Y-79870350D01*
X146501566Y-79879358D01*
X146498051Y-79887846D01*
X146496250Y-79906136D01*
X146040893Y-79906136D01*
X146040893Y-79263279D01*
X146039092Y-79244989D01*
X146025093Y-79211194D01*
X145999228Y-79185329D01*
X145965433Y-79171330D01*
X145947143Y-79169529D01*
X145232857Y-79169529D01*
X145214567Y-79171330D01*
X145180772Y-79185329D01*
X145154907Y-79211194D01*
X145140908Y-79244989D01*
X144824806Y-79244989D01*
X144810807Y-79211194D01*
X144784942Y-79185329D01*
X144751147Y-79171330D01*
X144714567Y-79171330D01*
X144680772Y-79185329D01*
X144654907Y-79211194D01*
X144640908Y-79244989D01*
X144639107Y-79263279D01*
X144006905Y-79263279D01*
X144004622Y-79260646D01*
X143995366Y-79254819D01*
X143993569Y-79253261D01*
X143992126Y-79252780D01*
X143989068Y-79250855D01*
X143846212Y-79179427D01*
X143829047Y-79172858D01*
X143825687Y-79172619D01*
X143822575Y-79171330D01*
X143804285Y-79169529D01*
X143661428Y-79169529D01*
X143643138Y-79171330D01*
X143609343Y-79185329D01*
X143583478Y-79211194D01*
X143569479Y-79244989D01*
X143402812Y-79244989D01*
X143402812Y-77419792D01*
X146281963Y-77419792D01*
X146281963Y-77776934D01*
X146282276Y-77780121D01*
X146282073Y-77781491D01*
X146283086Y-77788343D01*
X146283764Y-77795224D01*
X146284293Y-77796501D01*
X146284762Y-77799672D01*
X146356191Y-78085386D01*
X146356672Y-78086735D01*
X146356721Y-78087411D01*
X146359627Y-78095006D01*
X146362374Y-78102694D01*
X146362778Y-78103240D01*
X146363290Y-78104576D01*
X146434718Y-78247432D01*
X146439671Y-78255301D01*
X146440620Y-78257591D01*
X146442734Y-78260167D01*
X146444509Y-78262986D01*
X146446379Y-78264608D01*
X146452280Y-78271797D01*
X146523707Y-78343225D01*
X146530896Y-78349124D01*
X146532519Y-78350996D01*
X146535340Y-78352771D01*
X146537914Y-78354884D01*
X146540199Y-78355830D01*
X146548072Y-78360786D01*
X146690929Y-78432215D01*
X146708094Y-78438784D01*
X146711453Y-78439022D01*
X146714566Y-78440312D01*
X146732856Y-78442113D01*
X146875713Y-78442113D01*
X146894003Y-78440312D01*
X146897115Y-78439022D01*
X146900475Y-78438784D01*
X146917639Y-78432216D01*
X147060497Y-78360787D01*
X147068366Y-78355833D01*
X147070656Y-78354885D01*
X147073232Y-78352770D01*
X147076051Y-78350996D01*
X147077673Y-78349125D01*
X147084862Y-78343225D01*
X147156290Y-78271798D01*
X147162189Y-78264608D01*
X147164061Y-78262986D01*
X147165836Y-78260164D01*
X147167949Y-78257591D01*
X147168895Y-78255305D01*
X147173851Y-78247433D01*
X147245280Y-78104576D01*
X147245791Y-78103240D01*
X147246196Y-78102694D01*
X147248942Y-78095006D01*
X147251849Y-78087411D01*
X147251897Y-78086735D01*
X147252379Y-78085386D01*
X147323807Y-77799672D01*
X147324275Y-77796501D01*
X147324805Y-77795224D01*
X147325482Y-77788343D01*
X147326496Y-77781491D01*
X147326292Y-77780121D01*
X147326606Y-77776934D01*
X147326606Y-77419792D01*
X147710534Y-77419792D01*
X147710534Y-77776934D01*
X147710847Y-77780121D01*
X147710644Y-77781491D01*
X147711657Y-77788343D01*
X147712335Y-77795224D01*
X147712864Y-77796501D01*
X147713333Y-77799672D01*
X147784762Y-78085386D01*
X147785243Y-78086735D01*
X147785292Y-78087411D01*
X147788198Y-78095006D01*
X147790945Y-78102694D01*
X147791349Y-78103240D01*
X147791861Y-78104576D01*
X147863289Y-78247432D01*
X147868242Y-78255301D01*
X147869191Y-78257591D01*
X147871305Y-78260167D01*
X147873080Y-78262986D01*
X147874950Y-78264608D01*
X147880851Y-78271797D01*
X147952278Y-78343225D01*
X147959467Y-78349124D01*
X147961090Y-78350996D01*
X147963911Y-78352771D01*
X147966485Y-78354884D01*
X147968770Y-78355830D01*
X147976643Y-78360786D01*
X148119500Y-78432215D01*
X148136665Y-78438784D01*
X148140024Y-78439022D01*
X148143137Y-78440312D01*
X148161427Y-78442113D01*
X148304284Y-78442113D01*
X148322574Y-78440312D01*
X148325686Y-78439022D01*
X148329046Y-78438784D01*
X148346210Y-78432216D01*
X148489068Y-78360787D01*
X148496937Y-78355833D01*
X148499227Y-78354885D01*
X148501803Y-78352770D01*
X148504622Y-78350996D01*
X148506244Y-78349125D01*
X148513433Y-78343225D01*
X148584861Y-78271798D01*
X148590760Y-78264608D01*
X148592632Y-78262986D01*
X148594407Y-78260164D01*
X148596520Y-78257591D01*
X148597466Y-78255305D01*
X148602422Y-78247433D01*
X148673851Y-78104576D01*
X148674362Y-78103240D01*
X148674767Y-78102694D01*
X148677513Y-78095006D01*
X148680420Y-78087411D01*
X148680468Y-78086735D01*
X148680950Y-78085386D01*
X148752378Y-77799672D01*
X148752846Y-77796501D01*
X148753376Y-77795224D01*
X148754053Y-77788343D01*
X148755067Y-77781491D01*
X148754863Y-77780121D01*
X148755177Y-77776934D01*
X148755177Y-77419792D01*
X148754863Y-77416604D01*
X148755067Y-77415235D01*
X148754053Y-77408382D01*
X148753376Y-77401502D01*
X148752846Y-77400224D01*
X148752378Y-77397054D01*
X148680950Y-77111340D01*
X148680468Y-77109990D01*
X148680420Y-77109315D01*
X148677513Y-77101719D01*
X148674767Y-77094032D01*
X148674362Y-77093485D01*
X148673851Y-77092150D01*
X148602422Y-76949293D01*
X148597466Y-76941420D01*
X148596520Y-76939135D01*
X148594407Y-76936561D01*
X148592632Y-76933740D01*
X148590760Y-76932117D01*
X148584861Y-76924928D01*
X148561436Y-76901503D01*
X149140907Y-76901503D01*
X149140907Y-76938082D01*
X149141831Y-76940312D01*
X149154905Y-76971877D01*
X149154910Y-76971882D01*
X149166565Y-76986084D01*
X149237994Y-77057512D01*
X149252195Y-77069166D01*
X149252200Y-77069171D01*
X149276097Y-77079068D01*
X149285995Y-77083169D01*
X149285996Y-77083169D01*
X149322574Y-77083169D01*
X149322575Y-77083169D01*
X149332472Y-77079068D01*
X149356370Y-77069171D01*
X149370576Y-77057511D01*
X149442004Y-76986084D01*
X149453663Y-76971877D01*
X149467661Y-76938082D01*
X149467661Y-76922425D01*
X149467662Y-76901503D01*
X149453664Y-76867708D01*
X149442005Y-76853501D01*
X149418577Y-76830073D01*
X149855192Y-76830073D01*
X149855192Y-76866653D01*
X149869191Y-76900448D01*
X149895056Y-76926313D01*
X149928851Y-76940312D01*
X149947141Y-76942113D01*
X150281963Y-76942113D01*
X150281963Y-78348363D01*
X150281969Y-78348429D01*
X150281963Y-78348462D01*
X150281982Y-78348558D01*
X150283764Y-78366653D01*
X150287316Y-78375230D01*
X150289137Y-78384330D01*
X150294247Y-78391961D01*
X150297763Y-78400448D01*
X150304325Y-78407010D01*
X150309491Y-78414724D01*
X150317135Y-78419820D01*
X150323628Y-78426313D01*
X150332200Y-78429864D01*
X150339927Y-78435015D01*
X150348938Y-78436797D01*
X150357423Y-78440312D01*
X150366707Y-78440312D01*
X150375812Y-78442113D01*
X150384816Y-78440312D01*
X150394003Y-78440312D01*
X150402580Y-78436759D01*
X150411680Y-78434939D01*
X150419311Y-78429828D01*
X150427798Y-78426313D01*
X150434360Y-78419750D01*
X150442074Y-78414585D01*
X150453595Y-78400515D01*
X150453663Y-78400448D01*
X150453675Y-78400417D01*
X150453718Y-78400366D01*
X150591427Y-78193801D01*
X150716958Y-78068270D01*
X150846210Y-78003645D01*
X150861764Y-77993854D01*
X150885731Y-77966220D01*
X150897298Y-77931518D01*
X150894706Y-77895030D01*
X150878347Y-77862312D01*
X150850712Y-77838345D01*
X150816010Y-77826778D01*
X150779523Y-77829371D01*
X150762358Y-77835939D01*
X150619501Y-77907367D01*
X150611631Y-77912320D01*
X150609342Y-77913269D01*
X150606765Y-77915383D01*
X150603947Y-77917158D01*
X150602324Y-77919028D01*
X150595136Y-77924929D01*
X150469463Y-78050602D01*
X150469463Y-76942113D01*
X150804284Y-76942113D01*
X150822574Y-76940312D01*
X150856369Y-76926313D01*
X150882234Y-76900448D01*
X150896233Y-76866653D01*
X150896233Y-76830073D01*
X150882234Y-76796278D01*
X150856369Y-76770413D01*
X150822574Y-76756414D01*
X150804284Y-76754613D01*
X149947141Y-76754613D01*
X149928851Y-76756414D01*
X149895056Y-76770413D01*
X149869191Y-76796278D01*
X149855192Y-76830073D01*
X149418577Y-76830073D01*
X149370577Y-76782072D01*
X149356375Y-76770417D01*
X149356370Y-76770412D01*
X149332472Y-76760514D01*
X149322575Y-76756414D01*
X149285995Y-76756414D01*
X149276097Y-76760514D01*
X149252200Y-76770412D01*
X149237994Y-76782072D01*
X149166565Y-76853501D01*
X149154905Y-76867707D01*
X149142273Y-76898206D01*
X149140907Y-76901503D01*
X148561436Y-76901503D01*
X148513433Y-76853501D01*
X148506244Y-76847600D01*
X148504622Y-76845730D01*
X148501803Y-76843955D01*
X148499227Y-76841841D01*
X148496937Y-76840892D01*
X148489068Y-76835939D01*
X148346210Y-76764510D01*
X148329046Y-76757942D01*
X148325686Y-76757703D01*
X148322574Y-76756414D01*
X148304284Y-76754613D01*
X148161427Y-76754613D01*
X148143137Y-76756414D01*
X148140024Y-76757703D01*
X148136665Y-76757942D01*
X148119500Y-76764511D01*
X147976643Y-76835940D01*
X147968770Y-76840895D01*
X147966485Y-76841842D01*
X147963911Y-76843954D01*
X147961090Y-76845730D01*
X147959467Y-76847601D01*
X147952278Y-76853501D01*
X147880851Y-76924929D01*
X147874950Y-76932117D01*
X147873080Y-76933740D01*
X147871305Y-76936558D01*
X147869191Y-76939135D01*
X147868242Y-76941424D01*
X147863289Y-76949294D01*
X147791861Y-77092150D01*
X147791349Y-77093485D01*
X147790945Y-77094032D01*
X147788198Y-77101719D01*
X147785292Y-77109315D01*
X147785243Y-77109990D01*
X147784762Y-77111340D01*
X147713333Y-77397054D01*
X147712864Y-77400224D01*
X147712335Y-77401502D01*
X147711657Y-77408382D01*
X147710644Y-77415235D01*
X147710847Y-77416604D01*
X147710534Y-77419792D01*
X147326606Y-77419792D01*
X147326292Y-77416604D01*
X147326496Y-77415235D01*
X147325482Y-77408382D01*
X147324805Y-77401502D01*
X147324275Y-77400224D01*
X147323807Y-77397054D01*
X147252379Y-77111340D01*
X147251897Y-77109990D01*
X147251849Y-77109315D01*
X147248942Y-77101719D01*
X147246196Y-77094032D01*
X147245791Y-77093485D01*
X147245280Y-77092150D01*
X147173851Y-76949293D01*
X147168895Y-76941420D01*
X147167949Y-76939135D01*
X147165836Y-76936561D01*
X147164061Y-76933740D01*
X147162189Y-76932117D01*
X147156290Y-76924928D01*
X147084862Y-76853501D01*
X147077673Y-76847600D01*
X147076051Y-76845730D01*
X147073232Y-76843955D01*
X147070656Y-76841841D01*
X147068366Y-76840892D01*
X147060497Y-76835939D01*
X146917639Y-76764510D01*
X146900475Y-76757942D01*
X146897115Y-76757703D01*
X146894003Y-76756414D01*
X146875713Y-76754613D01*
X146732856Y-76754613D01*
X146714566Y-76756414D01*
X146711453Y-76757703D01*
X146708094Y-76757942D01*
X146690929Y-76764511D01*
X146548072Y-76835940D01*
X146540199Y-76840895D01*
X146537914Y-76841842D01*
X146535340Y-76843954D01*
X146532519Y-76845730D01*
X146530896Y-76847601D01*
X146523707Y-76853501D01*
X146452280Y-76924929D01*
X146446379Y-76932117D01*
X146444509Y-76933740D01*
X146442734Y-76936558D01*
X146440620Y-76939135D01*
X146439671Y-76941424D01*
X146434718Y-76949294D01*
X146363290Y-77092150D01*
X146362778Y-77093485D01*
X146362374Y-77094032D01*
X146359627Y-77101719D01*
X146356721Y-77109315D01*
X146356672Y-77109990D01*
X146356191Y-77111340D01*
X146284762Y-77397054D01*
X146284293Y-77400224D01*
X146283764Y-77401502D01*
X146283086Y-77408382D01*
X146282073Y-77415235D01*
X146282276Y-77416604D01*
X146281963Y-77419792D01*
X143402812Y-77419792D01*
X143402812Y-76587946D01*
X153777186Y-76587946D01*
X153777186Y-81023696D01*
G37*
D11*
X163131428Y-77357250D02*
X161988571Y-77357250D01*
X162559999Y-76785821D02*
X162559999Y-77928678D01*
D10*
D11*
X158051428Y-77357250D02*
X156908571Y-77357250D01*
D10*
D11*
X168211428Y-77357250D02*
X167068571Y-77357250D01*
D10*
D11*
X173291428Y-77357250D02*
X172148571Y-77357250D01*
X172719999Y-76785821D02*
X172719999Y-77928678D01*
D10*
D11*
X187011428Y-76785821D02*
X187511428Y-77500107D01*
X187868571Y-76785821D02*
X187868571Y-78285821D01*
X187868571Y-78285821D02*
X187297142Y-78285821D01*
X187297142Y-78285821D02*
X187154285Y-78214392D01*
X187154285Y-78214392D02*
X187082856Y-78142964D01*
X187082856Y-78142964D02*
X187011428Y-78000107D01*
X187011428Y-78000107D02*
X187011428Y-77785821D01*
X187011428Y-77785821D02*
X187082856Y-77642964D01*
X187082856Y-77642964D02*
X187154285Y-77571535D01*
X187154285Y-77571535D02*
X187297142Y-77500107D01*
X187297142Y-77500107D02*
X187868571Y-77500107D01*
X186368571Y-76785821D02*
X186368571Y-78285821D01*
X186368571Y-77571535D02*
X185511428Y-77571535D01*
X185511428Y-76785821D02*
X185511428Y-78285821D01*
D10*
D11*
X179391428Y-76785821D02*
X180105714Y-76785821D01*
X180105714Y-76785821D02*
X180105714Y-78285821D01*
X178891428Y-76785821D02*
X178891428Y-78285821D01*
X178891428Y-77571535D02*
X178034285Y-77571535D01*
X178034285Y-76785821D02*
X178034285Y-78285821D01*
D10*
D11*
X170501428Y-76785821D02*
X171001428Y-77500107D01*
X171358571Y-76785821D02*
X171358571Y-78285821D01*
X171358571Y-78285821D02*
X170787142Y-78285821D01*
X170787142Y-78285821D02*
X170644285Y-78214392D01*
X170644285Y-78214392D02*
X170572856Y-78142964D01*
X170572856Y-78142964D02*
X170501428Y-78000107D01*
X170501428Y-78000107D02*
X170501428Y-77785821D01*
X170501428Y-77785821D02*
X170572856Y-77642964D01*
X170572856Y-77642964D02*
X170644285Y-77571535D01*
X170644285Y-77571535D02*
X170787142Y-77500107D01*
X170787142Y-77500107D02*
X171358571Y-77500107D01*
X169858571Y-76785821D02*
X169858571Y-78285821D01*
X169858571Y-77571535D02*
X169001428Y-77571535D01*
X169001428Y-76785821D02*
X169001428Y-78285821D01*
D10*
D11*
X160341428Y-76785821D02*
X161055714Y-76785821D01*
X161055714Y-76785821D02*
X161055714Y-78285821D01*
X159841428Y-76785821D02*
X159841428Y-78285821D01*
X159841428Y-77571535D02*
X158984285Y-77571535D01*
X158984285Y-76785821D02*
X158984285Y-78285821D01*
D12*
D13*
X137617142Y-77355300D02*
X136702857Y-77355300D01*
D10*
D11*
X140271428Y-77357250D02*
X139128571Y-77357250D01*
X139699999Y-76785821D02*
X139699999Y-77928678D01*
D14*
%TO.P,REF02,1*%
%TO.N,N/C*%
X194310000Y-80010000D03*
%TD*%
%TO.P,REF04,1*%
%TO.N,N/C*%
X194310000Y-123190000D03*
%TD*%
%TO.P,REF03,1*%
%TO.N,N/C*%
X130810000Y-123190000D03*
%TD*%
%TO.P,REF01,1*%
%TO.N,N/C*%
X130810000Y-80010000D03*
%TD*%
D15*
%TO.P,U2,1,\u002AOEB*%
%TO.N,GND*%
X167635000Y-95250000D03*
D16*
%TO.P,U2,2,NC*%
%TO.N,unconnected-(U2-NC-Pad2)*%
X170175000Y-95250000D03*
%TO.P,U2,3,A0*%
%TO.N,DATA_LH*%
X172715000Y-95250000D03*
%TO.P,U2,4,A1*%
%TO.N,DATA_RH*%
X175255000Y-95250000D03*
%TO.P,U2,5,A2*%
%TO.N,GND*%
X177795000Y-95250000D03*
%TO.P,U2,6,A3*%
X180335000Y-95250000D03*
%TO.P,U2,7,GND*%
X182875000Y-95250000D03*
%TO.P,U2,8,B3*%
%TO.N,unconnected-(U2-B3-Pad8)*%
X182875000Y-87630000D03*
%TO.P,U2,9,B2*%
%TO.N,unconnected-(U2-B2-Pad9)*%
X180335000Y-87630000D03*
%TO.P,U2,10,B1*%
%TO.N,Net-(J5-Pin_2)*%
X177795000Y-87630000D03*
%TO.P,U2,11,B0*%
%TO.N,Net-(J4-Pin_2)*%
X175255000Y-87630000D03*
%TO.P,U2,12,NC*%
%TO.N,unconnected-(U2-NC-Pad12)*%
X172715000Y-87630000D03*
%TO.P,U2,13,OEA*%
%TO.N,GND*%
X170175000Y-87630000D03*
%TO.P,U2,14,VCC*%
%TO.N,+5V*%
X167635000Y-87630000D03*
%TD*%
D17*
%TO.P,C1,1*%
%TO.N,+5V*%
X163830000Y-87670000D03*
%TO.P,C1,2*%
%TO.N,GND*%
X163830000Y-90170000D03*
%TD*%
D18*
%TO.P,R2,1*%
%TO.N,+3V3*%
X189230000Y-92710000D03*
D19*
%TO.P,R2,2*%
%TO.N,BUTTON_RH*%
X189230000Y-87630000D03*
%TD*%
D20*
%TO.P,J7,1,Pin_1*%
%TO.N,BUTTON_RH*%
X187960000Y-82550000D03*
D21*
%TO.P,J7,2,Pin_2*%
%TO.N,GND*%
X185420000Y-82550000D03*
%TD*%
D20*
%TO.P,J3,1,Pin_1*%
%TO.N,BUTTON_LH*%
X180340000Y-82550000D03*
D21*
%TO.P,J3,2,Pin_2*%
%TO.N,GND*%
X177800000Y-82550000D03*
%TD*%
D20*
%TO.P,J6,1,Pin_1*%
%TO.N,+5V*%
X139700000Y-82550000D03*
D21*
%TO.P,J6,2,Pin_2*%
%TO.N,GND*%
X137160000Y-82550000D03*
%TD*%
D18*
%TO.P,R1,1*%
%TO.N,+3V3*%
X186690000Y-92710000D03*
D19*
%TO.P,R1,2*%
%TO.N,BUTTON_LH*%
X186690000Y-87630000D03*
%TD*%
D22*
%TO.P,J1,19,Pin_19*%
%TO.N,+5V*%
X187970000Y-124435000D03*
%TO.P,J1,18,Pin_18*%
%TO.N,Net-(J1-Pin_18)*%
X185430000Y-124435000D03*
%TO.P,J1,17,Pin_17*%
%TO.N,Net-(J1-Pin_17)*%
X182890000Y-124435000D03*
%TO.P,J1,16,Pin_16*%
%TO.N,Net-(J1-Pin_16)*%
X180350000Y-124435000D03*
%TO.P,J1,15,Pin_15*%
%TO.N,Net-(J1-Pin_15)*%
X177810000Y-124435000D03*
%TO.P,J1,14,Pin_14*%
%TO.N,GND*%
X175270000Y-124435000D03*
%TO.P,J1,13,Pin_13*%
%TO.N,Net-(J1-Pin_13)*%
X172730000Y-124435000D03*
%TO.P,J1,12,Pin_12*%
%TO.N,Net-(J1-Pin_12)*%
X170190000Y-124435000D03*
%TO.P,J1,11,Pin_11*%
%TO.N,Net-(J1-Pin_11)*%
X167650000Y-124435000D03*
%TO.P,J1,10,Pin_10*%
%TO.N,Net-(J1-Pin_10)*%
X165110000Y-124435000D03*
%TO.P,J1,9,Pin_9*%
%TO.N,Net-(J1-Pin_9)*%
X162570000Y-124435000D03*
%TO.P,J1,8,Pin_8*%
%TO.N,Net-(J1-Pin_8)*%
X160030000Y-124435000D03*
%TO.P,J1,7,Pin_7*%
%TO.N,Net-(J1-Pin_7)*%
X157490000Y-124435000D03*
%TO.P,J1,6,Pin_6*%
%TO.N,Net-(J1-Pin_6)*%
X154950000Y-124435000D03*
%TO.P,J1,5,Pin_5*%
%TO.N,Net-(J1-Pin_5)*%
X152410000Y-124435000D03*
%TO.P,J1,4,Pin_4*%
%TO.N,Net-(J1-Pin_4)*%
X149870000Y-124435000D03*
%TO.P,J1,3,Pin_3*%
%TO.N,Net-(J1-Pin_3)*%
X147330000Y-124435000D03*
%TO.P,J1,2,Pin_2*%
%TO.N,Net-(J1-Pin_2)*%
X144790000Y-124435000D03*
D23*
%TO.P,J1,1,Pin_1*%
%TO.N,+3V3*%
X142250000Y-124435000D03*
%TD*%
D22*
%TO.P,J2,19,Pin_19*%
%TO.N,Net-(J2-Pin_19)*%
X187970000Y-99035000D03*
%TO.P,J2,18,Pin_18*%
%TO.N,Net-(J2-Pin_18)*%
X185430000Y-99035000D03*
%TO.P,J2,17,Pin_17*%
%TO.N,Net-(J2-Pin_17)*%
X182890000Y-99035000D03*
%TO.P,J2,16,Pin_16*%
%TO.N,BUTTON_RH*%
X180350000Y-99035000D03*
%TO.P,J2,15,Pin_15*%
%TO.N,DATA_RH*%
X177810000Y-99035000D03*
%TO.P,J2,14,Pin_14*%
%TO.N,DATA_LH*%
X175270000Y-99035000D03*
%TO.P,J2,13,Pin_13*%
%TO.N,BUTTON_LH*%
X172730000Y-99035000D03*
%TO.P,J2,12,Pin_12*%
%TO.N,Net-(J2-Pin_12)*%
X170190000Y-99035000D03*
%TO.P,J2,11,Pin_11*%
%TO.N,Net-(J2-Pin_11)*%
X167650000Y-99035000D03*
%TO.P,J2,10,Pin_10*%
%TO.N,Net-(J2-Pin_10)*%
X165110000Y-99035000D03*
%TO.P,J2,9,Pin_9*%
%TO.N,Net-(J2-Pin_9)*%
X162570000Y-99035000D03*
%TO.P,J2,8,Pin_8*%
%TO.N,Net-(J2-Pin_8)*%
X160030000Y-99035000D03*
%TO.P,J2,7,Pin_7*%
%TO.N,GND*%
X157490000Y-99035000D03*
%TO.P,J2,6,Pin_6*%
%TO.N,Net-(J2-Pin_6)*%
X154950000Y-99035000D03*
%TO.P,J2,5,Pin_5*%
%TO.N,Net-(J2-Pin_5)*%
X152410000Y-99035000D03*
%TO.P,J2,4,Pin_4*%
%TO.N,Net-(J2-Pin_4)*%
X149870000Y-99035000D03*
%TO.P,J2,3,Pin_3*%
%TO.N,Net-(J2-Pin_3)*%
X147330000Y-99035000D03*
%TO.P,J2,2,Pin_2*%
%TO.N,Net-(J2-Pin_2)*%
X144790000Y-99035000D03*
D23*
%TO.P,J2,1,Pin_1*%
%TO.N,GND*%
X142250000Y-99035000D03*
%TD*%
D20*
%TO.P,J5,1,Pin_1*%
%TO.N,+5V*%
X172720000Y-82550000D03*
D21*
%TO.P,J5,2,Pin_2*%
%TO.N,Net-(J5-Pin_2)*%
X170180000Y-82550000D03*
%TO.P,J5,3,Pin_3*%
%TO.N,GND*%
X167640000Y-82550000D03*
%TD*%
%TO.P,J4,3,Pin_3*%
%TO.N,GND*%
X157480000Y-82550000D03*
%TO.P,J4,2,Pin_2*%
%TO.N,Net-(J4-Pin_2)*%
X160020000Y-82550000D03*
D20*
%TO.P,J4,1,Pin_1*%
%TO.N,+5V*%
X162560000Y-82550000D03*
%TD*%
D24*
%TO.N,+5V*%
X137160000Y-87630000D02*
X139700000Y-85090000D01*
X139700000Y-85090000D02*
X139700000Y-82550000D01*
D25*
X140730000Y-84850000D02*
X167640000Y-84850000D01*
X167640000Y-84850000D02*
X171132692Y-84850000D01*
D24*
X167635000Y-87630000D02*
X167635000Y-84855000D01*
X167635000Y-84855000D02*
X167640000Y-84850000D01*
X163830000Y-87670000D02*
X167595000Y-87670000D01*
D25*
X139700000Y-83820000D02*
X140730000Y-84850000D01*
X139700000Y-82550000D02*
X139700000Y-83820000D01*
X162560000Y-82550000D02*
X162560000Y-84850000D01*
X171132692Y-84850000D02*
X172720000Y-83262692D01*
X172720000Y-83262692D02*
X172720000Y-82550000D01*
D24*
X137160000Y-87630000D02*
X137160000Y-124460000D01*
X137160000Y-124460000D02*
X138430000Y-125730000D01*
X138430000Y-125730000D02*
X186675000Y-125730000D01*
X186675000Y-125730000D02*
X187970000Y-124435000D01*
%TD*%
%TA.AperFunction,Conductor*%
%TO.N,GND*%
G36*
X136065396Y-76720185D02*
G01*
X136111151Y-76772989D01*
X136122357Y-76824500D01*
X136122357Y-77935800D01*
X138197642Y-77935800D01*
X138197642Y-76824500D01*
X138217327Y-76757461D01*
X138270131Y-76711706D01*
X138321642Y-76700500D01*
X138405321Y-76700500D01*
X138472360Y-76720185D01*
X138518115Y-76772989D01*
X138529321Y-76824500D01*
X138529321Y-78527928D01*
X140870678Y-78527928D01*
X140870678Y-76824500D01*
X140890363Y-76757461D01*
X140943167Y-76711706D01*
X140994678Y-76700500D01*
X143438678Y-76700500D01*
X143505717Y-76720185D01*
X143551472Y-76772989D01*
X143562678Y-76824500D01*
X143562678Y-80863102D01*
X153617320Y-80863102D01*
X153617320Y-79931153D01*
X156679500Y-79931153D01*
X156679500Y-80088846D01*
X156710261Y-80243489D01*
X156710264Y-80243501D01*
X156770602Y-80389172D01*
X156770609Y-80389185D01*
X156858210Y-80520288D01*
X156858213Y-80520292D01*
X156969707Y-80631786D01*
X156969711Y-80631789D01*
X157100814Y-80719390D01*
X157100827Y-80719397D01*
X157237505Y-80776010D01*
X157246503Y-80779737D01*
X157387851Y-80807853D01*
X157401153Y-80810499D01*
X157401156Y-80810500D01*
X157401158Y-80810500D01*
X157558844Y-80810500D01*
X157558845Y-80810499D01*
X157713497Y-80779737D01*
X157859179Y-80719394D01*
X157990289Y-80631789D01*
X158101789Y-80520289D01*
X158189394Y-80389179D01*
X158249737Y-80243497D01*
X158280500Y-80088842D01*
X158280500Y-79931158D01*
X158280500Y-79931155D01*
X158280499Y-79931153D01*
X158249738Y-79776510D01*
X158249737Y-79776503D01*
X158249735Y-79776498D01*
X158189397Y-79630827D01*
X158189390Y-79630814D01*
X158101789Y-79499711D01*
X158101786Y-79499707D01*
X157990292Y-79388213D01*
X157990288Y-79388210D01*
X157859185Y-79300609D01*
X157859172Y-79300602D01*
X157713501Y-79240264D01*
X157713489Y-79240261D01*
X157558845Y-79209500D01*
X157558842Y-79209500D01*
X157401158Y-79209500D01*
X157401155Y-79209500D01*
X157246510Y-79240261D01*
X157246498Y-79240264D01*
X157100827Y-79300602D01*
X157100814Y-79300609D01*
X156969711Y-79388210D01*
X156969707Y-79388213D01*
X156858213Y-79499707D01*
X156858210Y-79499711D01*
X156770609Y-79630814D01*
X156770602Y-79630827D01*
X156710264Y-79776498D01*
X156710261Y-79776510D01*
X156679500Y-79931153D01*
X153617320Y-79931153D01*
X153617320Y-76824500D01*
X153637005Y-76757461D01*
X153689809Y-76711706D01*
X153741320Y-76700500D01*
X156185321Y-76700500D01*
X156252360Y-76720185D01*
X156298115Y-76772989D01*
X156309321Y-76824500D01*
X156309321Y-77956500D01*
X158261035Y-77956500D01*
X158328074Y-77976185D01*
X158373829Y-78028989D01*
X158385035Y-78080500D01*
X158385035Y-78885071D01*
X161654964Y-78885071D01*
X161654964Y-78651928D01*
X161674649Y-78584889D01*
X161727453Y-78539134D01*
X161778964Y-78527928D01*
X163730678Y-78527928D01*
X163730678Y-76824500D01*
X163750363Y-76757461D01*
X163803167Y-76711706D01*
X163854678Y-76700500D01*
X166345321Y-76700500D01*
X166412360Y-76720185D01*
X166458115Y-76772989D01*
X166469321Y-76824500D01*
X166469321Y-77956500D01*
X168278178Y-77956500D01*
X168345217Y-77976185D01*
X168390972Y-78028989D01*
X168402178Y-78080500D01*
X168402178Y-78886145D01*
X171957821Y-78886145D01*
X171957821Y-78651928D01*
X171977506Y-78584889D01*
X172030310Y-78539134D01*
X172081821Y-78527928D01*
X173890678Y-78527928D01*
X173890678Y-76824500D01*
X173910363Y-76757461D01*
X173963167Y-76711706D01*
X174014678Y-76700500D01*
X177311035Y-76700500D01*
X177378074Y-76720185D01*
X177423829Y-76772989D01*
X177435035Y-76824500D01*
X177435035Y-78885071D01*
X180704964Y-78885071D01*
X180704964Y-76824500D01*
X180724649Y-76757461D01*
X180777453Y-76711706D01*
X180828964Y-76700500D01*
X184788178Y-76700500D01*
X184855217Y-76720185D01*
X184900972Y-76772989D01*
X184912178Y-76824500D01*
X184912178Y-78886145D01*
X188467821Y-78886145D01*
X188467821Y-76824500D01*
X188487506Y-76757461D01*
X188540310Y-76711706D01*
X188591821Y-76700500D01*
X191682978Y-76700500D01*
X191750017Y-76720185D01*
X191795772Y-76772989D01*
X191805716Y-76842147D01*
X191776691Y-76905703D01*
X191766251Y-76916378D01*
X191477807Y-77177807D01*
X191213846Y-77469043D01*
X190979692Y-77784763D01*
X190777620Y-78121899D01*
X190609562Y-78477227D01*
X190609561Y-78477229D01*
X190477143Y-78847315D01*
X190381637Y-79228593D01*
X190341421Y-79499711D01*
X190323962Y-79617409D01*
X190304675Y-80010000D01*
X190323962Y-80402591D01*
X190323962Y-80402597D01*
X190323963Y-80402599D01*
X190381637Y-80791406D01*
X190477143Y-81172684D01*
X190609561Y-81542770D01*
X190609562Y-81542772D01*
X190777620Y-81898100D01*
X190870997Y-82053889D01*
X190979694Y-82235239D01*
X191208174Y-82543309D01*
X191213846Y-82550956D01*
X191477807Y-82842192D01*
X191769043Y-83106153D01*
X191769049Y-83106158D01*
X192084761Y-83340306D01*
X192197141Y-83407664D01*
X192421899Y-83542379D01*
X192421902Y-83542380D01*
X192421903Y-83542381D01*
X192777228Y-83710438D01*
X193147316Y-83842857D01*
X193528600Y-83938364D01*
X193917409Y-83996038D01*
X194310000Y-84015325D01*
X194702591Y-83996038D01*
X195091400Y-83938364D01*
X195472684Y-83842857D01*
X195842772Y-83710438D01*
X196198097Y-83542381D01*
X196535239Y-83340306D01*
X196850951Y-83106158D01*
X197142192Y-82842192D01*
X197403622Y-82553748D01*
X197463228Y-82517295D01*
X197533081Y-82518854D01*
X197591001Y-82557930D01*
X197618601Y-82622118D01*
X197619500Y-82637022D01*
X197619500Y-120562977D01*
X197599815Y-120630016D01*
X197547011Y-120675771D01*
X197477853Y-120685715D01*
X197414297Y-120656690D01*
X197403622Y-120646250D01*
X197142192Y-120357807D01*
X196850956Y-120093846D01*
X196535236Y-119859692D01*
X196198100Y-119657620D01*
X195842772Y-119489562D01*
X195842770Y-119489561D01*
X195472684Y-119357143D01*
X195091406Y-119261637D01*
X195091401Y-119261636D01*
X195091400Y-119261636D01*
X194947256Y-119240254D01*
X194702599Y-119203963D01*
X194702597Y-119203962D01*
X194702591Y-119203962D01*
X194310000Y-119184675D01*
X193917409Y-119203962D01*
X193917403Y-119203962D01*
X193917400Y-119203963D01*
X193528593Y-119261637D01*
X193147315Y-119357143D01*
X192777229Y-119489561D01*
X192777227Y-119489562D01*
X192421899Y-119657620D01*
X192084763Y-119859692D01*
X191769043Y-120093846D01*
X191477807Y-120357807D01*
X191213846Y-120649043D01*
X190979692Y-120964763D01*
X190777620Y-121301899D01*
X190609562Y-121657227D01*
X190609561Y-121657229D01*
X190477143Y-122027315D01*
X190381637Y-122408593D01*
X190381636Y-122408600D01*
X190323962Y-122797409D01*
X190304675Y-123190000D01*
X190323962Y-123582591D01*
X190323962Y-123582597D01*
X190323963Y-123582599D01*
X190381637Y-123971406D01*
X190477143Y-124352684D01*
X190609561Y-124722770D01*
X190609562Y-124722772D01*
X190777620Y-125078100D01*
X190979692Y-125415236D01*
X190979694Y-125415239D01*
X191208174Y-125723309D01*
X191213846Y-125730956D01*
X191477807Y-126022192D01*
X191766251Y-126283622D01*
X191802705Y-126343228D01*
X191801146Y-126413081D01*
X191762070Y-126471001D01*
X191697882Y-126498601D01*
X191682978Y-126499500D01*
X187005959Y-126499500D01*
X186938920Y-126479815D01*
X186893165Y-126427011D01*
X186883221Y-126357853D01*
X186912246Y-126294297D01*
X186943955Y-126268115D01*
X186956904Y-126260639D01*
X187043716Y-126210520D01*
X187155520Y-126098716D01*
X187155520Y-126098714D01*
X187165728Y-126088507D01*
X187165730Y-126088504D01*
X187486470Y-125767763D01*
X187547791Y-125734280D01*
X187606238Y-125735670D01*
X187734592Y-125770063D01*
X187922918Y-125786539D01*
X187969999Y-125790659D01*
X187970000Y-125790659D01*
X187970001Y-125790659D01*
X188009234Y-125787226D01*
X188205408Y-125770063D01*
X188433663Y-125708903D01*
X188647830Y-125609035D01*
X188841401Y-125473495D01*
X189008495Y-125306401D01*
X189144035Y-125112830D01*
X189243903Y-124898663D01*
X189305063Y-124670408D01*
X189325659Y-124435000D01*
X189305063Y-124199592D01*
X189258626Y-124026285D01*
X189243905Y-123971344D01*
X189243904Y-123971343D01*
X189243903Y-123971337D01*
X189144035Y-123757171D01*
X189138425Y-123749158D01*
X189008494Y-123563597D01*
X188841402Y-123396506D01*
X188841395Y-123396501D01*
X188647834Y-123260967D01*
X188647830Y-123260965D01*
X188647828Y-123260964D01*
X188433663Y-123161097D01*
X188433659Y-123161096D01*
X188433655Y-123161094D01*
X188205413Y-123099938D01*
X188205403Y-123099936D01*
X187970001Y-123079341D01*
X187969999Y-123079341D01*
X187734596Y-123099936D01*
X187734586Y-123099938D01*
X187506344Y-123161094D01*
X187506335Y-123161098D01*
X187292171Y-123260964D01*
X187292169Y-123260965D01*
X187098597Y-123396505D01*
X186931505Y-123563597D01*
X186801575Y-123749158D01*
X186746998Y-123792783D01*
X186677500Y-123799977D01*
X186615145Y-123768454D01*
X186598425Y-123749158D01*
X186468494Y-123563597D01*
X186301402Y-123396506D01*
X186301395Y-123396501D01*
X186107834Y-123260967D01*
X186107830Y-123260965D01*
X186107828Y-123260964D01*
X185893663Y-123161097D01*
X185893659Y-123161096D01*
X185893655Y-123161094D01*
X185665413Y-123099938D01*
X185665403Y-123099936D01*
X185430001Y-123079341D01*
X185429999Y-123079341D01*
X185194596Y-123099936D01*
X185194586Y-123099938D01*
X184966344Y-123161094D01*
X184966335Y-123161098D01*
X184752171Y-123260964D01*
X184752169Y-123260965D01*
X184558597Y-123396505D01*
X184391505Y-123563597D01*
X184261575Y-123749158D01*
X184206998Y-123792783D01*
X184137500Y-123799977D01*
X184075145Y-123768454D01*
X184058425Y-123749158D01*
X183928494Y-123563597D01*
X183761402Y-123396506D01*
X183761395Y-123396501D01*
X183567834Y-123260967D01*
X183567830Y-123260965D01*
X183567828Y-123260964D01*
X183353663Y-123161097D01*
X183353659Y-123161096D01*
X183353655Y-123161094D01*
X183125413Y-123099938D01*
X183125403Y-123099936D01*
X182890001Y-123079341D01*
X182889999Y-123079341D01*
X182654596Y-123099936D01*
X182654586Y-123099938D01*
X182426344Y-123161094D01*
X182426335Y-123161098D01*
X182212171Y-123260964D01*
X182212169Y-123260965D01*
X182018597Y-123396505D01*
X181851505Y-123563597D01*
X181721575Y-123749158D01*
X181666998Y-123792783D01*
X181597500Y-123799977D01*
X181535145Y-123768454D01*
X181518425Y-123749158D01*
X181388494Y-123563597D01*
X181221402Y-123396506D01*
X181221395Y-123396501D01*
X181027834Y-123260967D01*
X181027830Y-123260965D01*
X181027828Y-123260964D01*
X180813663Y-123161097D01*
X180813659Y-123161096D01*
X180813655Y-123161094D01*
X180585413Y-123099938D01*
X180585403Y-123099936D01*
X180350001Y-123079341D01*
X180349999Y-123079341D01*
X180114596Y-123099936D01*
X180114586Y-123099938D01*
X179886344Y-123161094D01*
X179886335Y-123161098D01*
X179672171Y-123260964D01*
X179672169Y-123260965D01*
X179478597Y-123396505D01*
X179311505Y-123563597D01*
X179181575Y-123749158D01*
X179126998Y-123792783D01*
X179057500Y-123799977D01*
X178995145Y-123768454D01*
X178978425Y-123749158D01*
X178848494Y-123563597D01*
X178681402Y-123396506D01*
X178681395Y-123396501D01*
X178487834Y-123260967D01*
X178487830Y-123260965D01*
X178487828Y-123260964D01*
X178273663Y-123161097D01*
X178273659Y-123161096D01*
X178273655Y-123161094D01*
X178045413Y-123099938D01*
X178045403Y-123099936D01*
X177810001Y-123079341D01*
X177809999Y-123079341D01*
X177574596Y-123099936D01*
X177574586Y-123099938D01*
X177346344Y-123161094D01*
X177346335Y-123161098D01*
X177132171Y-123260964D01*
X177132169Y-123260965D01*
X176938597Y-123396505D01*
X176771505Y-123563597D01*
X176635965Y-123757169D01*
X176635964Y-123757171D01*
X176536098Y-123971335D01*
X176536094Y-123971344D01*
X176474938Y-124199586D01*
X176474936Y-124199596D01*
X176454341Y-124434999D01*
X176454341Y-124435000D01*
X176474936Y-124670403D01*
X176474938Y-124670413D01*
X176536094Y-124898655D01*
X176536099Y-124898669D01*
X176561479Y-124953096D01*
X176571971Y-125022173D01*
X176543451Y-125085957D01*
X176484974Y-125124196D01*
X176449097Y-125129500D01*
X174090903Y-125129500D01*
X174023864Y-125109815D01*
X173978109Y-125057011D01*
X173968165Y-124987853D01*
X173978521Y-124953096D01*
X174003900Y-124898669D01*
X174003903Y-124898663D01*
X174065063Y-124670408D01*
X174085659Y-124435000D01*
X174065063Y-124199592D01*
X174018626Y-124026285D01*
X174003905Y-123971344D01*
X174003904Y-123971343D01*
X174003903Y-123971337D01*
X173904035Y-123757171D01*
X173898425Y-123749158D01*
X173768494Y-123563597D01*
X173601402Y-123396506D01*
X173601395Y-123396501D01*
X173407834Y-123260967D01*
X173407830Y-123260965D01*
X173407828Y-123260964D01*
X173193663Y-123161097D01*
X173193659Y-123161096D01*
X173193655Y-123161094D01*
X172965413Y-123099938D01*
X172965403Y-123099936D01*
X172730001Y-123079341D01*
X172729999Y-123079341D01*
X172494596Y-123099936D01*
X172494586Y-123099938D01*
X172266344Y-123161094D01*
X172266335Y-123161098D01*
X172052171Y-123260964D01*
X172052169Y-123260965D01*
X171858597Y-123396505D01*
X171691505Y-123563597D01*
X171561575Y-123749158D01*
X171506998Y-123792783D01*
X171437500Y-123799977D01*
X171375145Y-123768454D01*
X171358425Y-123749158D01*
X171228494Y-123563597D01*
X171061402Y-123396506D01*
X171061395Y-123396501D01*
X170867834Y-123260967D01*
X170867830Y-123260965D01*
X170867828Y-123260964D01*
X170653663Y-123161097D01*
X170653659Y-123161096D01*
X170653655Y-123161094D01*
X170425413Y-123099938D01*
X170425403Y-123099936D01*
X170190001Y-123079341D01*
X170189999Y-123079341D01*
X169954596Y-123099936D01*
X169954586Y-123099938D01*
X169726344Y-123161094D01*
X169726335Y-123161098D01*
X169512171Y-123260964D01*
X169512169Y-123260965D01*
X169318597Y-123396505D01*
X169151505Y-123563597D01*
X169021575Y-123749158D01*
X168966998Y-123792783D01*
X168897500Y-123799977D01*
X168835145Y-123768454D01*
X168818425Y-123749158D01*
X168688494Y-123563597D01*
X168521402Y-123396506D01*
X168521395Y-123396501D01*
X168327834Y-123260967D01*
X168327830Y-123260965D01*
X168327828Y-123260964D01*
X168113663Y-123161097D01*
X168113659Y-123161096D01*
X168113655Y-123161094D01*
X167885413Y-123099938D01*
X167885403Y-123099936D01*
X167650001Y-123079341D01*
X167649999Y-123079341D01*
X167414596Y-123099936D01*
X167414586Y-123099938D01*
X167186344Y-123161094D01*
X167186335Y-123161098D01*
X166972171Y-123260964D01*
X166972169Y-123260965D01*
X166778597Y-123396505D01*
X166611505Y-123563597D01*
X166481575Y-123749158D01*
X166426998Y-123792783D01*
X166357500Y-123799977D01*
X166295145Y-123768454D01*
X166278425Y-123749158D01*
X166148494Y-123563597D01*
X165981402Y-123396506D01*
X165981395Y-123396501D01*
X165787834Y-123260967D01*
X165787830Y-123260965D01*
X165787828Y-123260964D01*
X165573663Y-123161097D01*
X165573659Y-123161096D01*
X165573655Y-123161094D01*
X165345413Y-123099938D01*
X165345403Y-123099936D01*
X165110001Y-123079341D01*
X165109999Y-123079341D01*
X164874596Y-123099936D01*
X164874586Y-123099938D01*
X164646344Y-123161094D01*
X164646335Y-123161098D01*
X164432171Y-123260964D01*
X164432169Y-123260965D01*
X164238597Y-123396505D01*
X164071505Y-123563597D01*
X163941575Y-123749158D01*
X163886998Y-123792783D01*
X163817500Y-123799977D01*
X163755145Y-123768454D01*
X163738425Y-123749158D01*
X163608494Y-123563597D01*
X163441402Y-123396506D01*
X163441395Y-123396501D01*
X163247834Y-123260967D01*
X163247830Y-123260965D01*
X163247828Y-123260964D01*
X163033663Y-123161097D01*
X163033659Y-123161096D01*
X163033655Y-123161094D01*
X162805413Y-123099938D01*
X162805403Y-123099936D01*
X162570001Y-123079341D01*
X162569999Y-123079341D01*
X162334596Y-123099936D01*
X162334586Y-123099938D01*
X162106344Y-123161094D01*
X162106335Y-123161098D01*
X161892171Y-123260964D01*
X161892169Y-123260965D01*
X161698597Y-123396505D01*
X161531505Y-123563597D01*
X161401575Y-123749158D01*
X161346998Y-123792783D01*
X161277500Y-123799977D01*
X161215145Y-123768454D01*
X161198425Y-123749158D01*
X161068494Y-123563597D01*
X160901402Y-123396506D01*
X160901395Y-123396501D01*
X160707834Y-123260967D01*
X160707830Y-123260965D01*
X160707828Y-123260964D01*
X160493663Y-123161097D01*
X160493659Y-123161096D01*
X160493655Y-123161094D01*
X160265413Y-123099938D01*
X160265403Y-123099936D01*
X160030001Y-123079341D01*
X160029999Y-123079341D01*
X159794596Y-123099936D01*
X159794586Y-123099938D01*
X159566344Y-123161094D01*
X159566335Y-123161098D01*
X159352171Y-123260964D01*
X159352169Y-123260965D01*
X159158597Y-123396505D01*
X158991505Y-123563597D01*
X158861575Y-123749158D01*
X158806998Y-123792783D01*
X158737500Y-123799977D01*
X158675145Y-123768454D01*
X158658425Y-123749158D01*
X158528494Y-123563597D01*
X158361402Y-123396506D01*
X158361395Y-123396501D01*
X158167834Y-123260967D01*
X158167830Y-123260965D01*
X158167828Y-123260964D01*
X157953663Y-123161097D01*
X157953659Y-123161096D01*
X157953655Y-123161094D01*
X157725413Y-123099938D01*
X157725403Y-123099936D01*
X157490001Y-123079341D01*
X157489999Y-123079341D01*
X157254596Y-123099936D01*
X157254586Y-123099938D01*
X157026344Y-123161094D01*
X157026335Y-123161098D01*
X156812171Y-123260964D01*
X156812169Y-123260965D01*
X156618597Y-123396505D01*
X156451505Y-123563597D01*
X156321575Y-123749158D01*
X156266998Y-123792783D01*
X156197500Y-123799977D01*
X156135145Y-123768454D01*
X156118425Y-123749158D01*
X155988494Y-123563597D01*
X155821402Y-123396506D01*
X155821395Y-123396501D01*
X155627834Y-123260967D01*
X155627830Y-123260965D01*
X155627828Y-123260964D01*
X155413663Y-123161097D01*
X155413659Y-123161096D01*
X155413655Y-123161094D01*
X155185413Y-123099938D01*
X155185403Y-123099936D01*
X154950001Y-123079341D01*
X154949999Y-123079341D01*
X154714596Y-123099936D01*
X154714586Y-123099938D01*
X154486344Y-123161094D01*
X154486335Y-123161098D01*
X154272171Y-123260964D01*
X154272169Y-123260965D01*
X154078597Y-123396505D01*
X153911505Y-123563597D01*
X153781575Y-123749158D01*
X153726998Y-123792783D01*
X153657500Y-123799977D01*
X153595145Y-123768454D01*
X153578425Y-123749158D01*
X153448494Y-123563597D01*
X153281402Y-123396506D01*
X153281395Y-123396501D01*
X153087834Y-123260967D01*
X153087830Y-123260965D01*
X153087828Y-123260964D01*
X152873663Y-123161097D01*
X152873659Y-123161096D01*
X152873655Y-123161094D01*
X152645413Y-123099938D01*
X152645403Y-123099936D01*
X152410001Y-123079341D01*
X152409999Y-123079341D01*
X152174596Y-123099936D01*
X152174586Y-123099938D01*
X151946344Y-123161094D01*
X151946335Y-123161098D01*
X151732171Y-123260964D01*
X151732169Y-123260965D01*
X151538597Y-123396505D01*
X151371505Y-123563597D01*
X151241575Y-123749158D01*
X151186998Y-123792783D01*
X151117500Y-123799977D01*
X151055145Y-123768454D01*
X151038425Y-123749158D01*
X150908494Y-123563597D01*
X150741402Y-123396506D01*
X150741395Y-123396501D01*
X150547834Y-123260967D01*
X150547830Y-123260965D01*
X150547828Y-123260964D01*
X150333663Y-123161097D01*
X150333659Y-123161096D01*
X150333655Y-123161094D01*
X150105413Y-123099938D01*
X150105403Y-123099936D01*
X149870001Y-123079341D01*
X149869999Y-123079341D01*
X149634596Y-123099936D01*
X149634586Y-123099938D01*
X149406344Y-123161094D01*
X149406335Y-123161098D01*
X149192171Y-123260964D01*
X149192169Y-123260965D01*
X148998597Y-123396505D01*
X148831505Y-123563597D01*
X148701575Y-123749158D01*
X148646998Y-123792783D01*
X148577500Y-123799977D01*
X148515145Y-123768454D01*
X148498425Y-123749158D01*
X148368494Y-123563597D01*
X148201402Y-123396506D01*
X148201395Y-123396501D01*
X148007834Y-123260967D01*
X148007830Y-123260965D01*
X148007828Y-123260964D01*
X147793663Y-123161097D01*
X147793659Y-123161096D01*
X147793655Y-123161094D01*
X147565413Y-123099938D01*
X147565403Y-123099936D01*
X147330001Y-123079341D01*
X147329999Y-123079341D01*
X147094596Y-123099936D01*
X147094586Y-123099938D01*
X146866344Y-123161094D01*
X146866335Y-123161098D01*
X146652171Y-123260964D01*
X146652169Y-123260965D01*
X146458597Y-123396505D01*
X146291505Y-123563597D01*
X146161575Y-123749158D01*
X146106998Y-123792783D01*
X146037500Y-123799977D01*
X145975145Y-123768454D01*
X145958425Y-123749158D01*
X145828494Y-123563597D01*
X145661402Y-123396506D01*
X145661395Y-123396501D01*
X145467834Y-123260967D01*
X145467830Y-123260965D01*
X145467828Y-123260964D01*
X145253663Y-123161097D01*
X145253659Y-123161096D01*
X145253655Y-123161094D01*
X145025413Y-123099938D01*
X145025403Y-123099936D01*
X144790001Y-123079341D01*
X144789999Y-123079341D01*
X144554596Y-123099936D01*
X144554586Y-123099938D01*
X144326344Y-123161094D01*
X144326335Y-123161098D01*
X144112171Y-123260964D01*
X144112169Y-123260965D01*
X143918600Y-123396503D01*
X143796673Y-123518430D01*
X143735350Y-123551914D01*
X143665658Y-123546930D01*
X143609725Y-123505058D01*
X143592810Y-123474081D01*
X143543797Y-123342671D01*
X143543793Y-123342664D01*
X143457547Y-123227455D01*
X143457544Y-123227452D01*
X143342335Y-123141206D01*
X143342328Y-123141202D01*
X143207482Y-123090908D01*
X143207483Y-123090908D01*
X143147883Y-123084501D01*
X143147881Y-123084500D01*
X143147873Y-123084500D01*
X143147864Y-123084500D01*
X141352129Y-123084500D01*
X141352123Y-123084501D01*
X141292516Y-123090908D01*
X141157671Y-123141202D01*
X141157664Y-123141206D01*
X141042455Y-123227452D01*
X141042452Y-123227455D01*
X140956206Y-123342664D01*
X140956202Y-123342671D01*
X140905908Y-123477517D01*
X140899501Y-123537116D01*
X140899500Y-123537135D01*
X140899501Y-125005500D01*
X140879816Y-125072539D01*
X140827013Y-125118294D01*
X140775501Y-125129500D01*
X138730097Y-125129500D01*
X138663058Y-125109815D01*
X138642416Y-125093181D01*
X137796819Y-124247584D01*
X137763334Y-124186261D01*
X137760500Y-124159903D01*
X137760500Y-99034999D01*
X143434341Y-99034999D01*
X143434341Y-99035000D01*
X143454936Y-99270403D01*
X143454938Y-99270413D01*
X143516094Y-99498655D01*
X143516096Y-99498659D01*
X143516097Y-99498663D01*
X143520000Y-99507032D01*
X143615965Y-99712830D01*
X143615967Y-99712834D01*
X143724281Y-99867521D01*
X143751505Y-99906401D01*
X143918599Y-100073495D01*
X144015384Y-100141265D01*
X144112165Y-100209032D01*
X144112167Y-100209033D01*
X144112170Y-100209035D01*
X144326337Y-100308903D01*
X144554592Y-100370063D01*
X144742918Y-100386539D01*
X144789999Y-100390659D01*
X144790000Y-100390659D01*
X144790001Y-100390659D01*
X144829234Y-100387226D01*
X145025408Y-100370063D01*
X145253663Y-100308903D01*
X145467830Y-100209035D01*
X145661401Y-100073495D01*
X145828495Y-99906401D01*
X145958425Y-99720842D01*
X146013002Y-99677217D01*
X146082500Y-99670023D01*
X146144855Y-99701546D01*
X146161575Y-99720842D01*
X146291500Y-99906395D01*
X146291505Y-99906401D01*
X146458599Y-100073495D01*
X146555384Y-100141265D01*
X146652165Y-100209032D01*
X146652167Y-100209033D01*
X146652170Y-100209035D01*
X146866337Y-100308903D01*
X147094592Y-100370063D01*
X147282918Y-100386539D01*
X147329999Y-100390659D01*
X147330000Y-100390659D01*
X147330001Y-100390659D01*
X147369234Y-100387226D01*
X147565408Y-100370063D01*
X147793663Y-100308903D01*
X148007830Y-100209035D01*
X148201401Y-100073495D01*
X148368495Y-99906401D01*
X148498425Y-99720842D01*
X148553002Y-99677217D01*
X148622500Y-99670023D01*
X148684855Y-99701546D01*
X148701575Y-99720842D01*
X148831500Y-99906395D01*
X148831505Y-99906401D01*
X148998599Y-100073495D01*
X149095384Y-100141265D01*
X149192165Y-100209032D01*
X149192167Y-100209033D01*
X149192170Y-100209035D01*
X149406337Y-100308903D01*
X149634592Y-100370063D01*
X149822918Y-100386539D01*
X149869999Y-100390659D01*
X149870000Y-100390659D01*
X149870001Y-100390659D01*
X149909234Y-100387226D01*
X150105408Y-100370063D01*
X150333663Y-100308903D01*
X150547830Y-100209035D01*
X150741401Y-100073495D01*
X150908495Y-99906401D01*
X151038425Y-99720842D01*
X151093002Y-99677217D01*
X151162500Y-99670023D01*
X151224855Y-99701546D01*
X151241575Y-99720842D01*
X151371500Y-99906395D01*
X151371505Y-99906401D01*
X151538599Y-100073495D01*
X151635384Y-100141265D01*
X151732165Y-100209032D01*
X151732167Y-100209033D01*
X151732170Y-100209035D01*
X151946337Y-100308903D01*
X152174592Y-100370063D01*
X152362918Y-100386539D01*
X152409999Y-100390659D01*
X152410000Y-100390659D01*
X152410001Y-100390659D01*
X152449234Y-100387226D01*
X152645408Y-100370063D01*
X152873663Y-100308903D01*
X153087830Y-100209035D01*
X153281401Y-100073495D01*
X153448495Y-99906401D01*
X153578425Y-99720842D01*
X153633002Y-99677217D01*
X153702500Y-99670023D01*
X153764855Y-99701546D01*
X153781575Y-99720842D01*
X153911500Y-99906395D01*
X153911505Y-99906401D01*
X154078599Y-100073495D01*
X154175384Y-100141265D01*
X154272165Y-100209032D01*
X154272167Y-100209033D01*
X154272170Y-100209035D01*
X154486337Y-100308903D01*
X154714592Y-100370063D01*
X154902918Y-100386539D01*
X154949999Y-100390659D01*
X154950000Y-100390659D01*
X154950001Y-100390659D01*
X154989234Y-100387226D01*
X155185408Y-100370063D01*
X155413663Y-100308903D01*
X155627830Y-100209035D01*
X155821401Y-100073495D01*
X155988495Y-99906401D01*
X156124035Y-99712830D01*
X156223903Y-99498663D01*
X156285063Y-99270408D01*
X156305659Y-99035000D01*
X156305659Y-99034999D01*
X158674341Y-99034999D01*
X158674341Y-99035000D01*
X158694936Y-99270403D01*
X158694938Y-99270413D01*
X158756094Y-99498655D01*
X158756096Y-99498659D01*
X158756097Y-99498663D01*
X158760000Y-99507032D01*
X158855965Y-99712830D01*
X158855967Y-99712834D01*
X158964281Y-99867521D01*
X158991505Y-99906401D01*
X159158599Y-100073495D01*
X159255384Y-100141265D01*
X159352165Y-100209032D01*
X159352167Y-100209033D01*
X159352170Y-100209035D01*
X159566337Y-100308903D01*
X159794592Y-100370063D01*
X159982918Y-100386539D01*
X160029999Y-100390659D01*
X160030000Y-100390659D01*
X160030001Y-100390659D01*
X160069234Y-100387226D01*
X160265408Y-100370063D01*
X160493663Y-100308903D01*
X160707830Y-100209035D01*
X160901401Y-100073495D01*
X161068495Y-99906401D01*
X161198425Y-99720842D01*
X161253002Y-99677217D01*
X161322500Y-99670023D01*
X161384855Y-99701546D01*
X161401575Y-99720842D01*
X161531500Y-99906395D01*
X161531505Y-99906401D01*
X161698599Y-100073495D01*
X161795384Y-100141265D01*
X161892165Y-100209032D01*
X161892167Y-100209033D01*
X161892170Y-100209035D01*
X162106337Y-100308903D01*
X162334592Y-100370063D01*
X162522918Y-100386539D01*
X162569999Y-100390659D01*
X162570000Y-100390659D01*
X162570001Y-100390659D01*
X162609234Y-100387226D01*
X162805408Y-100370063D01*
X163033663Y-100308903D01*
X163247830Y-100209035D01*
X163441401Y-100073495D01*
X163608495Y-99906401D01*
X163738425Y-99720842D01*
X163793002Y-99677217D01*
X163862500Y-99670023D01*
X163924855Y-99701546D01*
X163941575Y-99720842D01*
X164071500Y-99906395D01*
X164071505Y-99906401D01*
X164238599Y-100073495D01*
X164335384Y-100141265D01*
X164432165Y-100209032D01*
X164432167Y-100209033D01*
X164432170Y-100209035D01*
X164646337Y-100308903D01*
X164874592Y-100370063D01*
X165062918Y-100386539D01*
X165109999Y-100390659D01*
X165110000Y-100390659D01*
X165110001Y-100390659D01*
X165149234Y-100387226D01*
X165345408Y-100370063D01*
X165573663Y-100308903D01*
X165787830Y-100209035D01*
X165981401Y-100073495D01*
X166148495Y-99906401D01*
X166278425Y-99720842D01*
X166333002Y-99677217D01*
X166402500Y-99670023D01*
X166464855Y-99701546D01*
X166481575Y-99720842D01*
X166611500Y-99906395D01*
X166611505Y-99906401D01*
X166778599Y-100073495D01*
X166875384Y-100141265D01*
X166972165Y-100209032D01*
X166972167Y-100209033D01*
X166972170Y-100209035D01*
X167186337Y-100308903D01*
X167414592Y-100370063D01*
X167602918Y-100386539D01*
X167649999Y-100390659D01*
X167650000Y-100390659D01*
X167650001Y-100390659D01*
X167689234Y-100387226D01*
X167885408Y-100370063D01*
X168113663Y-100308903D01*
X168327830Y-100209035D01*
X168521401Y-100073495D01*
X168688495Y-99906401D01*
X168818425Y-99720842D01*
X168873002Y-99677217D01*
X168942500Y-99670023D01*
X169004855Y-99701546D01*
X169021575Y-99720842D01*
X169151500Y-99906395D01*
X169151505Y-99906401D01*
X169318599Y-100073495D01*
X169415384Y-100141265D01*
X169512165Y-100209032D01*
X169512167Y-100209033D01*
X169512170Y-100209035D01*
X169726337Y-100308903D01*
X169954592Y-100370063D01*
X170142918Y-100386539D01*
X170189999Y-100390659D01*
X170190000Y-100390659D01*
X170190001Y-100390659D01*
X170229234Y-100387226D01*
X170425408Y-100370063D01*
X170653663Y-100308903D01*
X170867830Y-100209035D01*
X171061401Y-100073495D01*
X171228495Y-99906401D01*
X171358425Y-99720842D01*
X171413002Y-99677217D01*
X171482500Y-99670023D01*
X171544855Y-99701546D01*
X171561575Y-99720842D01*
X171691500Y-99906395D01*
X171691505Y-99906401D01*
X171858599Y-100073495D01*
X171955384Y-100141265D01*
X172052165Y-100209032D01*
X172052167Y-100209033D01*
X172052170Y-100209035D01*
X172266337Y-100308903D01*
X172494592Y-100370063D01*
X172682918Y-100386539D01*
X172729999Y-100390659D01*
X172730000Y-100390659D01*
X172730001Y-100390659D01*
X172769234Y-100387226D01*
X172965408Y-100370063D01*
X173193663Y-100308903D01*
X173407830Y-100209035D01*
X173601401Y-100073495D01*
X173768495Y-99906401D01*
X173898425Y-99720842D01*
X173953002Y-99677217D01*
X174022500Y-99670023D01*
X174084855Y-99701546D01*
X174101575Y-99720842D01*
X174231500Y-99906395D01*
X174231505Y-99906401D01*
X174398599Y-100073495D01*
X174495384Y-100141265D01*
X174592165Y-100209032D01*
X174592167Y-100209033D01*
X174592170Y-100209035D01*
X174806337Y-100308903D01*
X175034592Y-100370063D01*
X175222918Y-100386539D01*
X175269999Y-100390659D01*
X175270000Y-100390659D01*
X175270001Y-100390659D01*
X175309234Y-100387226D01*
X175505408Y-100370063D01*
X175733663Y-100308903D01*
X175947830Y-100209035D01*
X176141401Y-100073495D01*
X176308495Y-99906401D01*
X176438425Y-99720842D01*
X176493002Y-99677217D01*
X176562500Y-99670023D01*
X176624855Y-99701546D01*
X176641575Y-99720842D01*
X176771500Y-99906395D01*
X176771505Y-99906401D01*
X176938599Y-100073495D01*
X177035384Y-100141265D01*
X177132165Y-100209032D01*
X177132167Y-100209033D01*
X177132170Y-100209035D01*
X177346337Y-100308903D01*
X177574592Y-100370063D01*
X177762918Y-100386539D01*
X177809999Y-100390659D01*
X177810000Y-100390659D01*
X177810001Y-100390659D01*
X177849234Y-100387226D01*
X178045408Y-100370063D01*
X178273663Y-100308903D01*
X178487830Y-100209035D01*
X178681401Y-100073495D01*
X178848495Y-99906401D01*
X178978425Y-99720842D01*
X179033002Y-99677217D01*
X179102500Y-99670023D01*
X179164855Y-99701546D01*
X179181575Y-99720842D01*
X179311500Y-99906395D01*
X179311505Y-99906401D01*
X179478599Y-100073495D01*
X179575384Y-100141265D01*
X179672165Y-100209032D01*
X179672167Y-100209033D01*
X179672170Y-100209035D01*
X179886337Y-100308903D01*
X180114592Y-100370063D01*
X180302918Y-100386539D01*
X180349999Y-100390659D01*
X180350000Y-100390659D01*
X180350001Y-100390659D01*
X180389234Y-100387226D01*
X180585408Y-100370063D01*
X180813663Y-100308903D01*
X181027830Y-100209035D01*
X181221401Y-100073495D01*
X181388495Y-99906401D01*
X181518425Y-99720842D01*
X181573002Y-99677217D01*
X181642500Y-99670023D01*
X181704855Y-99701546D01*
X181721575Y-99720842D01*
X181851500Y-99906395D01*
X181851505Y-99906401D01*
X182018599Y-100073495D01*
X182115384Y-100141265D01*
X182212165Y-100209032D01*
X182212167Y-100209033D01*
X182212170Y-100209035D01*
X182426337Y-100308903D01*
X182654592Y-100370063D01*
X182842918Y-100386539D01*
X182889999Y-100390659D01*
X182890000Y-100390659D01*
X182890001Y-100390659D01*
X182929234Y-100387226D01*
X183125408Y-100370063D01*
X183353663Y-100308903D01*
X183567830Y-100209035D01*
X183761401Y-100073495D01*
X183928495Y-99906401D01*
X184058425Y-99720842D01*
X184113002Y-99677217D01*
X184182500Y-99670023D01*
X184244855Y-99701546D01*
X184261575Y-99720842D01*
X184391500Y-99906395D01*
X184391505Y-99906401D01*
X184558599Y-100073495D01*
X184655384Y-100141265D01*
X184752165Y-100209032D01*
X184752167Y-100209033D01*
X184752170Y-100209035D01*
X184966337Y-100308903D01*
X185194592Y-100370063D01*
X185382918Y-100386539D01*
X185429999Y-100390659D01*
X185430000Y-100390659D01*
X185430001Y-100390659D01*
X185469234Y-100387226D01*
X185665408Y-100370063D01*
X185893663Y-100308903D01*
X186107830Y-100209035D01*
X186301401Y-100073495D01*
X186468495Y-99906401D01*
X186598425Y-99720842D01*
X186653002Y-99677217D01*
X186722500Y-99670023D01*
X186784855Y-99701546D01*
X186801575Y-99720842D01*
X186931500Y-99906395D01*
X186931505Y-99906401D01*
X187098599Y-100073495D01*
X187195384Y-100141265D01*
X187292165Y-100209032D01*
X187292167Y-100209033D01*
X187292170Y-100209035D01*
X187506337Y-100308903D01*
X187734592Y-100370063D01*
X187922918Y-100386539D01*
X187969999Y-100390659D01*
X187970000Y-100390659D01*
X187970001Y-100390659D01*
X188009234Y-100387226D01*
X188205408Y-100370063D01*
X188433663Y-100308903D01*
X188647830Y-100209035D01*
X188841401Y-100073495D01*
X189008495Y-99906401D01*
X189144035Y-99712830D01*
X189243903Y-99498663D01*
X189305063Y-99270408D01*
X189325659Y-99035000D01*
X189305063Y-98799592D01*
X189243903Y-98571337D01*
X189144035Y-98357171D01*
X189138425Y-98349158D01*
X189008494Y-98163597D01*
X188841402Y-97996506D01*
X188841395Y-97996501D01*
X188647834Y-97860967D01*
X188647830Y-97860965D01*
X188647828Y-97860964D01*
X188433663Y-97761097D01*
X188433659Y-97761096D01*
X188433655Y-97761094D01*
X188205413Y-97699938D01*
X188205403Y-97699936D01*
X187970001Y-97679341D01*
X187969999Y-97679341D01*
X187734596Y-97699936D01*
X187734586Y-97699938D01*
X187506344Y-97761094D01*
X187506335Y-97761098D01*
X187292171Y-97860964D01*
X187292169Y-97860965D01*
X187098597Y-97996505D01*
X186931505Y-98163597D01*
X186801575Y-98349158D01*
X186746998Y-98392783D01*
X186677500Y-98399977D01*
X186615145Y-98368454D01*
X186598425Y-98349158D01*
X186468494Y-98163597D01*
X186301402Y-97996506D01*
X186301395Y-97996501D01*
X186107834Y-97860967D01*
X186107830Y-97860965D01*
X186107828Y-97860964D01*
X185893663Y-97761097D01*
X185893659Y-97761096D01*
X185893655Y-97761094D01*
X185665413Y-97699938D01*
X185665403Y-97699936D01*
X185430001Y-97679341D01*
X185429999Y-97679341D01*
X185194596Y-97699936D01*
X185194586Y-97699938D01*
X184966344Y-97761094D01*
X184966335Y-97761098D01*
X184752171Y-97860964D01*
X184752169Y-97860965D01*
X184558597Y-97996505D01*
X184391505Y-98163597D01*
X184261575Y-98349158D01*
X184206998Y-98392783D01*
X184137500Y-98399977D01*
X184075145Y-98368454D01*
X184058425Y-98349158D01*
X183928494Y-98163597D01*
X183761402Y-97996506D01*
X183761395Y-97996501D01*
X183567834Y-97860967D01*
X183567830Y-97860965D01*
X183567828Y-97860964D01*
X183353663Y-97761097D01*
X183353659Y-97761096D01*
X183353655Y-97761094D01*
X183125413Y-97699938D01*
X183125403Y-97699936D01*
X182890001Y-97679341D01*
X182889999Y-97679341D01*
X182654596Y-97699936D01*
X182654586Y-97699938D01*
X182426344Y-97761094D01*
X182426335Y-97761098D01*
X182212171Y-97860964D01*
X182212169Y-97860965D01*
X182018597Y-97996505D01*
X181851505Y-98163597D01*
X181721575Y-98349158D01*
X181666998Y-98392783D01*
X181597500Y-98399977D01*
X181535145Y-98368454D01*
X181518425Y-98349158D01*
X181388494Y-98163597D01*
X181221402Y-97996506D01*
X181221395Y-97996501D01*
X181027834Y-97860967D01*
X181027830Y-97860965D01*
X181027828Y-97860964D01*
X180813663Y-97761097D01*
X180813659Y-97761096D01*
X180813655Y-97761094D01*
X180585413Y-97699938D01*
X180585403Y-97699936D01*
X180350001Y-97679341D01*
X180349999Y-97679341D01*
X180114596Y-97699936D01*
X180114586Y-97699938D01*
X179886344Y-97761094D01*
X179886335Y-97761098D01*
X179672171Y-97860964D01*
X179672169Y-97860965D01*
X179478597Y-97996505D01*
X179311505Y-98163597D01*
X179181575Y-98349158D01*
X179126998Y-98392783D01*
X179057500Y-98399977D01*
X178995145Y-98368454D01*
X178978425Y-98349158D01*
X178848494Y-98163597D01*
X178681402Y-97996506D01*
X178681395Y-97996501D01*
X178487834Y-97860967D01*
X178487830Y-97860965D01*
X178487828Y-97860964D01*
X178273663Y-97761097D01*
X178273659Y-97761096D01*
X178273655Y-97761094D01*
X178045413Y-97699938D01*
X178045403Y-97699936D01*
X177810001Y-97679341D01*
X177809999Y-97679341D01*
X177574596Y-97699936D01*
X177574586Y-97699938D01*
X177346344Y-97761094D01*
X177346335Y-97761098D01*
X177132171Y-97860964D01*
X177132169Y-97860965D01*
X176938597Y-97996505D01*
X176771505Y-98163597D01*
X176641575Y-98349158D01*
X176586998Y-98392783D01*
X176517500Y-98399977D01*
X176455145Y-98368454D01*
X176438425Y-98349158D01*
X176308494Y-98163597D01*
X176141402Y-97996506D01*
X176141395Y-97996501D01*
X175947834Y-97860967D01*
X175947830Y-97860965D01*
X175947828Y-97860964D01*
X175733663Y-97761097D01*
X175733659Y-97761096D01*
X175733655Y-97761094D01*
X175505413Y-97699938D01*
X175505403Y-97699936D01*
X175270001Y-97679341D01*
X175269999Y-97679341D01*
X175034596Y-97699936D01*
X175034586Y-97699938D01*
X174806344Y-97761094D01*
X174806335Y-97761098D01*
X174592171Y-97860964D01*
X174592169Y-97860965D01*
X174398597Y-97996505D01*
X174231505Y-98163597D01*
X174101575Y-98349158D01*
X174046998Y-98392783D01*
X173977500Y-98399977D01*
X173915145Y-98368454D01*
X173898425Y-98349158D01*
X173768494Y-98163597D01*
X173601402Y-97996506D01*
X173601395Y-97996501D01*
X173407834Y-97860967D01*
X173407830Y-97860965D01*
X173407828Y-97860964D01*
X173193663Y-97761097D01*
X173193659Y-97761096D01*
X173193655Y-97761094D01*
X172965413Y-97699938D01*
X172965403Y-97699936D01*
X172730001Y-97679341D01*
X172729999Y-97679341D01*
X172494596Y-97699936D01*
X172494586Y-97699938D01*
X172266344Y-97761094D01*
X172266335Y-97761098D01*
X172052171Y-97860964D01*
X172052169Y-97860965D01*
X171858597Y-97996505D01*
X171691505Y-98163597D01*
X171561575Y-98349158D01*
X171506998Y-98392783D01*
X171437500Y-98399977D01*
X171375145Y-98368454D01*
X171358425Y-98349158D01*
X171228494Y-98163597D01*
X171061402Y-97996506D01*
X171061395Y-97996501D01*
X170867834Y-97860967D01*
X170867830Y-97860965D01*
X170867828Y-97860964D01*
X170653663Y-97761097D01*
X170653659Y-97761096D01*
X170653655Y-97761094D01*
X170425413Y-97699938D01*
X170425403Y-97699936D01*
X170190001Y-97679341D01*
X170189999Y-97679341D01*
X169954596Y-97699936D01*
X169954586Y-97699938D01*
X169726344Y-97761094D01*
X169726335Y-97761098D01*
X169512171Y-97860964D01*
X169512169Y-97860965D01*
X169318597Y-97996505D01*
X169151505Y-98163597D01*
X169021575Y-98349158D01*
X168966998Y-98392783D01*
X168897500Y-98399977D01*
X168835145Y-98368454D01*
X168818425Y-98349158D01*
X168688494Y-98163597D01*
X168521402Y-97996506D01*
X168521395Y-97996501D01*
X168327834Y-97860967D01*
X168327830Y-97860965D01*
X168327828Y-97860964D01*
X168113663Y-97761097D01*
X168113659Y-97761096D01*
X168113655Y-97761094D01*
X167885413Y-97699938D01*
X167885403Y-97699936D01*
X167650001Y-97679341D01*
X167649999Y-97679341D01*
X167414596Y-97699936D01*
X167414586Y-97699938D01*
X167186344Y-97761094D01*
X167186335Y-97761098D01*
X166972171Y-97860964D01*
X166972169Y-97860965D01*
X166778597Y-97996505D01*
X166611505Y-98163597D01*
X166481575Y-98349158D01*
X166426998Y-98392783D01*
X166357500Y-98399977D01*
X166295145Y-98368454D01*
X166278425Y-98349158D01*
X166148494Y-98163597D01*
X165981402Y-97996506D01*
X165981395Y-97996501D01*
X165787834Y-97860967D01*
X165787830Y-97860965D01*
X165787828Y-97860964D01*
X165573663Y-97761097D01*
X165573659Y-97761096D01*
X165573655Y-97761094D01*
X165345413Y-97699938D01*
X165345403Y-97699936D01*
X165110001Y-97679341D01*
X165109999Y-97679341D01*
X164874596Y-97699936D01*
X164874586Y-97699938D01*
X164646344Y-97761094D01*
X164646335Y-97761098D01*
X164432171Y-97860964D01*
X164432169Y-97860965D01*
X164238597Y-97996505D01*
X164071505Y-98163597D01*
X163941575Y-98349158D01*
X163886998Y-98392783D01*
X163817500Y-98399977D01*
X163755145Y-98368454D01*
X163738425Y-98349158D01*
X163608494Y-98163597D01*
X163441402Y-97996506D01*
X163441395Y-97996501D01*
X163247834Y-97860967D01*
X163247830Y-97860965D01*
X163247828Y-97860964D01*
X163033663Y-97761097D01*
X163033659Y-97761096D01*
X163033655Y-97761094D01*
X162805413Y-97699938D01*
X162805403Y-97699936D01*
X162570001Y-97679341D01*
X162569999Y-97679341D01*
X162334596Y-97699936D01*
X162334586Y-97699938D01*
X162106344Y-97761094D01*
X162106335Y-97761098D01*
X161892171Y-97860964D01*
X161892169Y-97860965D01*
X161698597Y-97996505D01*
X161531505Y-98163597D01*
X161401575Y-98349158D01*
X161346998Y-98392783D01*
X161277500Y-98399977D01*
X161215145Y-98368454D01*
X161198425Y-98349158D01*
X161068494Y-98163597D01*
X160901402Y-97996506D01*
X160901395Y-97996501D01*
X160707834Y-97860967D01*
X160707830Y-97860965D01*
X160707828Y-97860964D01*
X160493663Y-97761097D01*
X160493659Y-97761096D01*
X160493655Y-97761094D01*
X160265413Y-97699938D01*
X160265403Y-97699936D01*
X160030001Y-97679341D01*
X160029999Y-97679341D01*
X159794596Y-97699936D01*
X159794586Y-97699938D01*
X159566344Y-97761094D01*
X159566335Y-97761098D01*
X159352171Y-97860964D01*
X159352169Y-97860965D01*
X159158597Y-97996505D01*
X158991505Y-98163597D01*
X158855965Y-98357169D01*
X158855964Y-98357171D01*
X158756098Y-98571335D01*
X158756094Y-98571344D01*
X158694938Y-98799586D01*
X158694936Y-98799596D01*
X158674341Y-99034999D01*
X156305659Y-99034999D01*
X156285063Y-98799592D01*
X156223903Y-98571337D01*
X156124035Y-98357171D01*
X156118425Y-98349158D01*
X155988494Y-98163597D01*
X155821402Y-97996506D01*
X155821395Y-97996501D01*
X155627834Y-97860967D01*
X155627830Y-97860965D01*
X155627828Y-97860964D01*
X155413663Y-97761097D01*
X155413659Y-97761096D01*
X155413655Y-97761094D01*
X155185413Y-97699938D01*
X155185403Y-97699936D01*
X154950001Y-97679341D01*
X154949999Y-97679341D01*
X154714596Y-97699936D01*
X154714586Y-97699938D01*
X154486344Y-97761094D01*
X154486335Y-97761098D01*
X154272171Y-97860964D01*
X154272169Y-97860965D01*
X154078597Y-97996505D01*
X153911505Y-98163597D01*
X153781575Y-98349158D01*
X153726998Y-98392783D01*
X153657500Y-98399977D01*
X153595145Y-98368454D01*
X153578425Y-98349158D01*
X153448494Y-98163597D01*
X153281402Y-97996506D01*
X153281395Y-97996501D01*
X153087834Y-97860967D01*
X153087830Y-97860965D01*
X153087828Y-97860964D01*
X152873663Y-97761097D01*
X152873659Y-97761096D01*
X152873655Y-97761094D01*
X152645413Y-97699938D01*
X152645403Y-97699936D01*
X152410001Y-97679341D01*
X152409999Y-97679341D01*
X152174596Y-97699936D01*
X152174586Y-97699938D01*
X151946344Y-97761094D01*
X151946335Y-97761098D01*
X151732171Y-97860964D01*
X151732169Y-97860965D01*
X151538597Y-97996505D01*
X151371505Y-98163597D01*
X151241575Y-98349158D01*
X151186998Y-98392783D01*
X151117500Y-98399977D01*
X151055145Y-98368454D01*
X151038425Y-98349158D01*
X150908494Y-98163597D01*
X150741402Y-97996506D01*
X150741395Y-97996501D01*
X150547834Y-97860967D01*
X150547830Y-97860965D01*
X150547828Y-97860964D01*
X150333663Y-97761097D01*
X150333659Y-97761096D01*
X150333655Y-97761094D01*
X150105413Y-97699938D01*
X150105403Y-97699936D01*
X149870001Y-97679341D01*
X149869999Y-97679341D01*
X149634596Y-97699936D01*
X149634586Y-97699938D01*
X149406344Y-97761094D01*
X149406335Y-97761098D01*
X149192171Y-97860964D01*
X149192169Y-97860965D01*
X148998597Y-97996505D01*
X148831505Y-98163597D01*
X148701575Y-98349158D01*
X148646998Y-98392783D01*
X148577500Y-98399977D01*
X148515145Y-98368454D01*
X148498425Y-98349158D01*
X148368494Y-98163597D01*
X148201402Y-97996506D01*
X148201395Y-97996501D01*
X148007834Y-97860967D01*
X148007830Y-97860965D01*
X148007828Y-97860964D01*
X147793663Y-97761097D01*
X147793659Y-97761096D01*
X147793655Y-97761094D01*
X147565413Y-97699938D01*
X147565403Y-97699936D01*
X147330001Y-97679341D01*
X147329999Y-97679341D01*
X147094596Y-97699936D01*
X147094586Y-97699938D01*
X146866344Y-97761094D01*
X146866335Y-97761098D01*
X146652171Y-97860964D01*
X146652169Y-97860965D01*
X146458597Y-97996505D01*
X146291505Y-98163597D01*
X146161575Y-98349158D01*
X146106998Y-98392783D01*
X146037500Y-98399977D01*
X145975145Y-98368454D01*
X145958425Y-98349158D01*
X145828494Y-98163597D01*
X145661402Y-97996506D01*
X145661395Y-97996501D01*
X145467834Y-97860967D01*
X145467830Y-97860965D01*
X145467828Y-97860964D01*
X145253663Y-97761097D01*
X145253659Y-97761096D01*
X145253655Y-97761094D01*
X145025413Y-97699938D01*
X145025403Y-97699936D01*
X144790001Y-97679341D01*
X144789999Y-97679341D01*
X144554596Y-97699936D01*
X144554586Y-97699938D01*
X144326344Y-97761094D01*
X144326335Y-97761098D01*
X144112171Y-97860964D01*
X144112169Y-97860965D01*
X143918597Y-97996505D01*
X143751505Y-98163597D01*
X143615965Y-98357169D01*
X143615964Y-98357171D01*
X143516098Y-98571335D01*
X143516094Y-98571344D01*
X143454938Y-98799586D01*
X143454936Y-98799596D01*
X143434341Y-99034999D01*
X137760500Y-99034999D01*
X137760500Y-95249998D01*
X168869532Y-95249998D01*
X168869532Y-95250001D01*
X168889364Y-95476686D01*
X168889366Y-95476697D01*
X168948258Y-95696488D01*
X168948261Y-95696497D01*
X169044431Y-95902732D01*
X169044432Y-95902734D01*
X169174954Y-96089141D01*
X169335858Y-96250045D01*
X169335861Y-96250047D01*
X169522266Y-96380568D01*
X169728504Y-96476739D01*
X169948308Y-96535635D01*
X170110230Y-96549801D01*
X170174998Y-96555468D01*
X170175000Y-96555468D01*
X170175002Y-96555468D01*
X170231673Y-96550509D01*
X170401692Y-96535635D01*
X170621496Y-96476739D01*
X170827734Y-96380568D01*
X171014139Y-96250047D01*
X171175047Y-96089139D01*
X171305568Y-95902734D01*
X171332618Y-95844724D01*
X171378790Y-95792285D01*
X171445983Y-95773133D01*
X171512865Y-95793348D01*
X171557382Y-95844725D01*
X171584429Y-95902728D01*
X171584432Y-95902734D01*
X171714954Y-96089141D01*
X171875858Y-96250045D01*
X171875861Y-96250047D01*
X172062266Y-96380568D01*
X172268504Y-96476739D01*
X172488308Y-96535635D01*
X172650230Y-96549801D01*
X172714998Y-96555468D01*
X172715000Y-96555468D01*
X172715002Y-96555468D01*
X172771673Y-96550509D01*
X172941692Y-96535635D01*
X173161496Y-96476739D01*
X173367734Y-96380568D01*
X173554139Y-96250047D01*
X173715047Y-96089139D01*
X173845568Y-95902734D01*
X173872618Y-95844724D01*
X173918790Y-95792285D01*
X173985983Y-95773133D01*
X174052865Y-95793348D01*
X174097382Y-95844725D01*
X174124429Y-95902728D01*
X174124432Y-95902734D01*
X174254954Y-96089141D01*
X174415858Y-96250045D01*
X174415861Y-96250047D01*
X174602266Y-96380568D01*
X174808504Y-96476739D01*
X175028308Y-96535635D01*
X175190230Y-96549801D01*
X175254998Y-96555468D01*
X175255000Y-96555468D01*
X175255002Y-96555468D01*
X175311673Y-96550509D01*
X175481692Y-96535635D01*
X175701496Y-96476739D01*
X175907734Y-96380568D01*
X176094139Y-96250047D01*
X176255047Y-96089139D01*
X176385568Y-95902734D01*
X176481739Y-95696496D01*
X176540635Y-95476692D01*
X176560468Y-95250000D01*
X176540635Y-95023308D01*
X176481739Y-94803504D01*
X176385568Y-94597266D01*
X176255047Y-94410861D01*
X176255045Y-94410858D01*
X176094141Y-94249954D01*
X175907734Y-94119432D01*
X175907732Y-94119431D01*
X175701497Y-94023261D01*
X175701488Y-94023258D01*
X175481697Y-93964366D01*
X175481693Y-93964365D01*
X175481692Y-93964365D01*
X175481691Y-93964364D01*
X175481686Y-93964364D01*
X175255002Y-93944532D01*
X175254998Y-93944532D01*
X175028313Y-93964364D01*
X175028302Y-93964366D01*
X174808511Y-94023258D01*
X174808502Y-94023261D01*
X174602267Y-94119431D01*
X174602265Y-94119432D01*
X174415858Y-94249954D01*
X174254954Y-94410858D01*
X174124432Y-94597265D01*
X174124431Y-94597267D01*
X174097382Y-94655275D01*
X174051209Y-94707714D01*
X173984016Y-94726866D01*
X173917135Y-94706650D01*
X173872618Y-94655275D01*
X173845568Y-94597267D01*
X173845567Y-94597265D01*
X173715045Y-94410858D01*
X173554141Y-94249954D01*
X173367734Y-94119432D01*
X173367732Y-94119431D01*
X173161497Y-94023261D01*
X173161488Y-94023258D01*
X172941697Y-93964366D01*
X172941693Y-93964365D01*
X172941692Y-93964365D01*
X172941691Y-93964364D01*
X172941686Y-93964364D01*
X172715002Y-93944532D01*
X172714998Y-93944532D01*
X172488313Y-93964364D01*
X172488302Y-93964366D01*
X172268511Y-94023258D01*
X172268502Y-94023261D01*
X172062267Y-94119431D01*
X172062265Y-94119432D01*
X171875858Y-94249954D01*
X171714954Y-94410858D01*
X171584432Y-94597265D01*
X171584431Y-94597267D01*
X171557382Y-94655275D01*
X171511209Y-94707714D01*
X171444016Y-94726866D01*
X171377135Y-94706650D01*
X171332618Y-94655275D01*
X171305568Y-94597267D01*
X171305567Y-94597265D01*
X171175045Y-94410858D01*
X171014141Y-94249954D01*
X170827734Y-94119432D01*
X170827732Y-94119431D01*
X170621497Y-94023261D01*
X170621488Y-94023258D01*
X170401697Y-93964366D01*
X170401693Y-93964365D01*
X170401692Y-93964365D01*
X170401691Y-93964364D01*
X170401686Y-93964364D01*
X170175002Y-93944532D01*
X170174998Y-93944532D01*
X169948313Y-93964364D01*
X169948302Y-93964366D01*
X169728511Y-94023258D01*
X169728502Y-94023261D01*
X169522267Y-94119431D01*
X169522265Y-94119432D01*
X169335858Y-94249954D01*
X169174954Y-94410858D01*
X169044432Y-94597265D01*
X169044431Y-94597267D01*
X168948261Y-94803502D01*
X168948258Y-94803511D01*
X168889366Y-95023302D01*
X168889364Y-95023313D01*
X168869532Y-95249998D01*
X137760500Y-95249998D01*
X137760500Y-92709999D01*
X185484357Y-92709999D01*
X185484357Y-92710000D01*
X185504884Y-92931535D01*
X185504885Y-92931537D01*
X185565769Y-93145523D01*
X185565775Y-93145538D01*
X185664938Y-93344683D01*
X185664943Y-93344691D01*
X185799020Y-93522238D01*
X185963437Y-93672123D01*
X185963439Y-93672125D01*
X186152595Y-93789245D01*
X186152596Y-93789245D01*
X186152599Y-93789247D01*
X186360060Y-93869618D01*
X186578757Y-93910500D01*
X186578759Y-93910500D01*
X186801241Y-93910500D01*
X186801243Y-93910500D01*
X187019940Y-93869618D01*
X187227401Y-93789247D01*
X187416562Y-93672124D01*
X187580981Y-93522236D01*
X187715058Y-93344689D01*
X187814229Y-93145528D01*
X187840734Y-93052371D01*
X187878013Y-92993278D01*
X187941323Y-92963721D01*
X188010562Y-92973083D01*
X188063749Y-93018393D01*
X188079266Y-93052372D01*
X188105769Y-93145523D01*
X188105775Y-93145538D01*
X188204938Y-93344683D01*
X188204943Y-93344691D01*
X188339020Y-93522238D01*
X188503437Y-93672123D01*
X188503439Y-93672125D01*
X188692595Y-93789245D01*
X188692596Y-93789245D01*
X188692599Y-93789247D01*
X188900060Y-93869618D01*
X189118757Y-93910500D01*
X189118759Y-93910500D01*
X189341241Y-93910500D01*
X189341243Y-93910500D01*
X189559940Y-93869618D01*
X189767401Y-93789247D01*
X189956562Y-93672124D01*
X190120981Y-93522236D01*
X190255058Y-93344689D01*
X190354229Y-93145528D01*
X190415115Y-92931536D01*
X190435643Y-92710000D01*
X190415115Y-92488464D01*
X190354229Y-92274472D01*
X190354224Y-92274461D01*
X190255061Y-92075316D01*
X190255056Y-92075308D01*
X190120979Y-91897761D01*
X189956562Y-91747876D01*
X189956560Y-91747874D01*
X189767404Y-91630754D01*
X189767398Y-91630752D01*
X189559940Y-91550382D01*
X189341243Y-91509500D01*
X189118757Y-91509500D01*
X188900060Y-91550382D01*
X188768864Y-91601207D01*
X188692601Y-91630752D01*
X188692595Y-91630754D01*
X188503439Y-91747874D01*
X188503437Y-91747876D01*
X188339020Y-91897761D01*
X188204943Y-92075308D01*
X188204938Y-92075316D01*
X188105775Y-92274461D01*
X188105769Y-92274476D01*
X188079266Y-92367627D01*
X188041987Y-92426721D01*
X187978677Y-92456278D01*
X187909438Y-92446916D01*
X187856251Y-92401606D01*
X187840734Y-92367627D01*
X187814230Y-92274476D01*
X187814229Y-92274472D01*
X187814224Y-92274461D01*
X187715061Y-92075316D01*
X187715056Y-92075308D01*
X187580979Y-91897761D01*
X187416562Y-91747876D01*
X187416560Y-91747874D01*
X187227404Y-91630754D01*
X187227398Y-91630752D01*
X187019940Y-91550382D01*
X186801243Y-91509500D01*
X186578757Y-91509500D01*
X186360060Y-91550382D01*
X186228864Y-91601207D01*
X186152601Y-91630752D01*
X186152595Y-91630754D01*
X185963439Y-91747874D01*
X185963437Y-91747876D01*
X185799020Y-91897761D01*
X185664943Y-92075308D01*
X185664938Y-92075316D01*
X185565775Y-92274461D01*
X185565769Y-92274476D01*
X185504885Y-92488462D01*
X185504884Y-92488464D01*
X185484357Y-92709999D01*
X137760500Y-92709999D01*
X137760500Y-87930097D01*
X137780185Y-87863058D01*
X137796819Y-87842416D01*
X138661970Y-86977265D01*
X139615184Y-86024050D01*
X139676505Y-85990567D01*
X139746197Y-85995551D01*
X139775744Y-86011412D01*
X139943566Y-86133343D01*
X140042992Y-86184003D01*
X140154003Y-86240566D01*
X140154005Y-86240566D01*
X140154008Y-86240568D01*
X140274412Y-86279689D01*
X140378631Y-86313553D01*
X140611903Y-86350500D01*
X140611908Y-86350500D01*
X140848092Y-86350500D01*
X162441908Y-86350500D01*
X162678092Y-86350500D01*
X163053811Y-86350500D01*
X163120850Y-86370185D01*
X163166605Y-86422989D01*
X163176549Y-86492147D01*
X163147524Y-86555703D01*
X163124934Y-86576075D01*
X162990858Y-86669954D01*
X162829954Y-86830858D01*
X162699432Y-87017265D01*
X162699431Y-87017267D01*
X162603261Y-87223502D01*
X162603258Y-87223511D01*
X162544366Y-87443302D01*
X162544364Y-87443313D01*
X162524532Y-87669998D01*
X162524532Y-87670001D01*
X162544364Y-87896686D01*
X162544366Y-87896697D01*
X162603258Y-88116488D01*
X162603261Y-88116497D01*
X162699431Y-88322732D01*
X162699432Y-88322734D01*
X162829954Y-88509141D01*
X162990858Y-88670045D01*
X162990861Y-88670047D01*
X163177266Y-88800568D01*
X163383504Y-88896739D01*
X163603308Y-88955635D01*
X163765230Y-88969801D01*
X163829998Y-88975468D01*
X163830000Y-88975468D01*
X163830002Y-88975468D01*
X163886673Y-88970509D01*
X164056692Y-88955635D01*
X164276496Y-88896739D01*
X164482734Y-88800568D01*
X164669139Y-88670047D01*
X164830047Y-88509139D01*
X164960118Y-88323375D01*
X165014693Y-88279752D01*
X165061692Y-88270500D01*
X166431315Y-88270500D01*
X166498354Y-88290185D01*
X166532890Y-88323377D01*
X166634954Y-88469141D01*
X166795858Y-88630045D01*
X166795861Y-88630047D01*
X166982266Y-88760568D01*
X167188504Y-88856739D01*
X167408308Y-88915635D01*
X167570230Y-88929801D01*
X167634998Y-88935468D01*
X167635000Y-88935468D01*
X167635002Y-88935468D01*
X167691673Y-88930509D01*
X167861692Y-88915635D01*
X168081496Y-88856739D01*
X168287734Y-88760568D01*
X168474139Y-88630047D01*
X168635047Y-88469139D01*
X168765568Y-88282734D01*
X168861739Y-88076496D01*
X168920635Y-87856692D01*
X168940468Y-87630000D01*
X168940468Y-87629998D01*
X171409532Y-87629998D01*
X171409532Y-87630001D01*
X171429364Y-87856686D01*
X171429366Y-87856697D01*
X171488258Y-88076488D01*
X171488261Y-88076497D01*
X171584431Y-88282732D01*
X171584432Y-88282734D01*
X171714954Y-88469141D01*
X171875858Y-88630045D01*
X171875861Y-88630047D01*
X172062266Y-88760568D01*
X172268504Y-88856739D01*
X172488308Y-88915635D01*
X172650230Y-88929801D01*
X172714998Y-88935468D01*
X172715000Y-88935468D01*
X172715002Y-88935468D01*
X172771673Y-88930509D01*
X172941692Y-88915635D01*
X173161496Y-88856739D01*
X173367734Y-88760568D01*
X173554139Y-88630047D01*
X173715047Y-88469139D01*
X173845568Y-88282734D01*
X173872618Y-88224724D01*
X173918790Y-88172285D01*
X173985983Y-88153133D01*
X174052865Y-88173348D01*
X174097382Y-88224725D01*
X174124429Y-88282728D01*
X174124432Y-88282734D01*
X174254954Y-88469141D01*
X174415858Y-88630045D01*
X174415861Y-88630047D01*
X174602266Y-88760568D01*
X174808504Y-88856739D01*
X175028308Y-88915635D01*
X175190230Y-88929801D01*
X175254998Y-88935468D01*
X175255000Y-88935468D01*
X175255002Y-88935468D01*
X175311673Y-88930509D01*
X175481692Y-88915635D01*
X175701496Y-88856739D01*
X175907734Y-88760568D01*
X176094139Y-88630047D01*
X176255047Y-88469139D01*
X176385568Y-88282734D01*
X176412618Y-88224724D01*
X176458790Y-88172285D01*
X176525983Y-88153133D01*
X176592865Y-88173348D01*
X176637382Y-88224725D01*
X176664429Y-88282728D01*
X176664432Y-88282734D01*
X176794954Y-88469141D01*
X176955858Y-88630045D01*
X176955861Y-88630047D01*
X177142266Y-88760568D01*
X177348504Y-88856739D01*
X177568308Y-88915635D01*
X177730230Y-88929801D01*
X177794998Y-88935468D01*
X177795000Y-88935468D01*
X177795002Y-88935468D01*
X177851673Y-88930509D01*
X178021692Y-88915635D01*
X178241496Y-88856739D01*
X178447734Y-88760568D01*
X178634139Y-88630047D01*
X178795047Y-88469139D01*
X178925568Y-88282734D01*
X178952618Y-88224724D01*
X178998790Y-88172285D01*
X179065983Y-88153133D01*
X179132865Y-88173348D01*
X179177382Y-88224725D01*
X179204429Y-88282728D01*
X179204432Y-88282734D01*
X179334954Y-88469141D01*
X179495858Y-88630045D01*
X179495861Y-88630047D01*
X179682266Y-88760568D01*
X179888504Y-88856739D01*
X180108308Y-88915635D01*
X180270230Y-88929801D01*
X180334998Y-88935468D01*
X180335000Y-88935468D01*
X180335002Y-88935468D01*
X180391673Y-88930509D01*
X180561692Y-88915635D01*
X180781496Y-88856739D01*
X180987734Y-88760568D01*
X181174139Y-88630047D01*
X181335047Y-88469139D01*
X181465568Y-88282734D01*
X181492618Y-88224724D01*
X181538790Y-88172285D01*
X181605983Y-88153133D01*
X181672865Y-88173348D01*
X181717382Y-88224725D01*
X181744429Y-88282728D01*
X181744432Y-88282734D01*
X181874954Y-88469141D01*
X182035858Y-88630045D01*
X182035861Y-88630047D01*
X182222266Y-88760568D01*
X182428504Y-88856739D01*
X182648308Y-88915635D01*
X182810230Y-88929801D01*
X182874998Y-88935468D01*
X182875000Y-88935468D01*
X182875002Y-88935468D01*
X182931673Y-88930509D01*
X183101692Y-88915635D01*
X183321496Y-88856739D01*
X183527734Y-88760568D01*
X183714139Y-88630047D01*
X183875047Y-88469139D01*
X184005568Y-88282734D01*
X184101739Y-88076496D01*
X184160635Y-87856692D01*
X184180468Y-87630000D01*
X184180468Y-87629999D01*
X185484357Y-87629999D01*
X185484357Y-87630000D01*
X185504884Y-87851535D01*
X185504885Y-87851537D01*
X185565769Y-88065523D01*
X185565775Y-88065538D01*
X185664938Y-88264683D01*
X185664943Y-88264691D01*
X185799020Y-88442238D01*
X185963437Y-88592123D01*
X185963439Y-88592125D01*
X186152595Y-88709245D01*
X186152596Y-88709245D01*
X186152599Y-88709247D01*
X186360060Y-88789618D01*
X186578757Y-88830500D01*
X186578759Y-88830500D01*
X186801241Y-88830500D01*
X186801243Y-88830500D01*
X187019940Y-88789618D01*
X187227401Y-88709247D01*
X187416562Y-88592124D01*
X187580981Y-88442236D01*
X187715058Y-88264689D01*
X187814229Y-88065528D01*
X187840734Y-87972371D01*
X187878013Y-87913278D01*
X187941323Y-87883721D01*
X188010562Y-87893083D01*
X188063749Y-87938393D01*
X188079266Y-87972372D01*
X188105769Y-88065523D01*
X188105775Y-88065538D01*
X188204938Y-88264683D01*
X188204943Y-88264691D01*
X188339020Y-88442238D01*
X188503437Y-88592123D01*
X188503439Y-88592125D01*
X188692595Y-88709245D01*
X188692596Y-88709245D01*
X188692599Y-88709247D01*
X188900060Y-88789618D01*
X189118757Y-88830500D01*
X189118759Y-88830500D01*
X189341241Y-88830500D01*
X189341243Y-88830500D01*
X189559940Y-88789618D01*
X189767401Y-88709247D01*
X189956562Y-88592124D01*
X190120981Y-88442236D01*
X190255058Y-88264689D01*
X190354229Y-88065528D01*
X190415115Y-87851536D01*
X190435643Y-87630000D01*
X190415115Y-87408464D01*
X190354229Y-87194472D01*
X190354224Y-87194461D01*
X190255061Y-86995316D01*
X190255056Y-86995308D01*
X190120979Y-86817761D01*
X189956562Y-86667876D01*
X189956560Y-86667874D01*
X189767404Y-86550754D01*
X189767398Y-86550752D01*
X189559940Y-86470382D01*
X189341243Y-86429500D01*
X189118757Y-86429500D01*
X188900060Y-86470382D01*
X188768864Y-86521207D01*
X188692601Y-86550752D01*
X188692595Y-86550754D01*
X188503439Y-86667874D01*
X188503437Y-86667876D01*
X188339020Y-86817761D01*
X188204943Y-86995308D01*
X188204938Y-86995316D01*
X188105775Y-87194461D01*
X188105769Y-87194476D01*
X188079266Y-87287627D01*
X188041987Y-87346721D01*
X187978677Y-87376278D01*
X187909438Y-87366916D01*
X187856251Y-87321606D01*
X187840734Y-87287627D01*
X187814230Y-87194476D01*
X187814229Y-87194472D01*
X187814224Y-87194461D01*
X187715061Y-86995316D01*
X187715056Y-86995308D01*
X187580979Y-86817761D01*
X187416562Y-86667876D01*
X187416560Y-86667874D01*
X187227404Y-86550754D01*
X187227398Y-86550752D01*
X187019940Y-86470382D01*
X186801243Y-86429500D01*
X186578757Y-86429500D01*
X186360060Y-86470382D01*
X186228864Y-86521207D01*
X186152601Y-86550752D01*
X186152595Y-86550754D01*
X185963439Y-86667874D01*
X185963437Y-86667876D01*
X185799020Y-86817761D01*
X185664943Y-86995308D01*
X185664938Y-86995316D01*
X185565775Y-87194461D01*
X185565769Y-87194476D01*
X185504885Y-87408462D01*
X185504884Y-87408464D01*
X185484357Y-87629999D01*
X184180468Y-87629999D01*
X184160635Y-87403308D01*
X184101739Y-87183504D01*
X184005568Y-86977266D01*
X183875047Y-86790861D01*
X183875045Y-86790858D01*
X183714141Y-86629954D01*
X183527734Y-86499432D01*
X183527732Y-86499431D01*
X183321497Y-86403261D01*
X183321488Y-86403258D01*
X183101697Y-86344366D01*
X183101693Y-86344365D01*
X183101692Y-86344365D01*
X183101691Y-86344364D01*
X183101686Y-86344364D01*
X182875002Y-86324532D01*
X182874998Y-86324532D01*
X182648313Y-86344364D01*
X182648302Y-86344366D01*
X182428511Y-86403258D01*
X182428502Y-86403261D01*
X182222267Y-86499431D01*
X182222265Y-86499432D01*
X182035858Y-86629954D01*
X181874954Y-86790858D01*
X181744432Y-86977265D01*
X181744431Y-86977267D01*
X181717382Y-87035275D01*
X181671209Y-87087714D01*
X181604016Y-87106866D01*
X181537135Y-87086650D01*
X181492618Y-87035275D01*
X181484220Y-87017265D01*
X181465568Y-86977266D01*
X181335047Y-86790861D01*
X181335045Y-86790858D01*
X181174141Y-86629954D01*
X180987734Y-86499432D01*
X180987732Y-86499431D01*
X180781497Y-86403261D01*
X180781488Y-86403258D01*
X180561697Y-86344366D01*
X180561693Y-86344365D01*
X180561692Y-86344365D01*
X180561691Y-86344364D01*
X180561686Y-86344364D01*
X180335002Y-86324532D01*
X180334998Y-86324532D01*
X180108313Y-86344364D01*
X180108302Y-86344366D01*
X179888511Y-86403258D01*
X179888502Y-86403261D01*
X179682267Y-86499431D01*
X179682265Y-86499432D01*
X179495858Y-86629954D01*
X179334954Y-86790858D01*
X179204432Y-86977265D01*
X179204431Y-86977267D01*
X179177382Y-87035275D01*
X179131209Y-87087714D01*
X179064016Y-87106866D01*
X178997135Y-87086650D01*
X178952618Y-87035275D01*
X178944220Y-87017265D01*
X178925568Y-86977266D01*
X178795047Y-86790861D01*
X178795045Y-86790858D01*
X178634141Y-86629954D01*
X178447734Y-86499432D01*
X178447732Y-86499431D01*
X178241497Y-86403261D01*
X178241488Y-86403258D01*
X178021697Y-86344366D01*
X178021693Y-86344365D01*
X178021692Y-86344365D01*
X178021691Y-86344364D01*
X178021686Y-86344364D01*
X177795002Y-86324532D01*
X177794998Y-86324532D01*
X177568313Y-86344364D01*
X177568302Y-86344366D01*
X177348511Y-86403258D01*
X177348502Y-86403261D01*
X177142267Y-86499431D01*
X177142265Y-86499432D01*
X176955858Y-86629954D01*
X176794954Y-86790858D01*
X176664432Y-86977265D01*
X176664431Y-86977267D01*
X176637382Y-87035275D01*
X176591209Y-87087714D01*
X176524016Y-87106866D01*
X176457135Y-87086650D01*
X176412618Y-87035275D01*
X176404220Y-87017265D01*
X176385568Y-86977266D01*
X176255047Y-86790861D01*
X176255045Y-86790858D01*
X176094141Y-86629954D01*
X175907734Y-86499432D01*
X175907732Y-86499431D01*
X175701497Y-86403261D01*
X175701488Y-86403258D01*
X175481697Y-86344366D01*
X175481693Y-86344365D01*
X175481692Y-86344365D01*
X175481691Y-86344364D01*
X175481686Y-86344364D01*
X175255002Y-86324532D01*
X175254998Y-86324532D01*
X175028313Y-86344364D01*
X175028302Y-86344366D01*
X174808511Y-86403258D01*
X174808502Y-86403261D01*
X174602267Y-86499431D01*
X174602265Y-86499432D01*
X174415858Y-86629954D01*
X174254954Y-86790858D01*
X174124432Y-86977265D01*
X174124431Y-86977267D01*
X174097382Y-87035275D01*
X174051209Y-87087714D01*
X173984016Y-87106866D01*
X173917135Y-87086650D01*
X173872618Y-87035275D01*
X173864220Y-87017265D01*
X173845568Y-86977266D01*
X173715047Y-86790861D01*
X173715045Y-86790858D01*
X173554141Y-86629954D01*
X173367734Y-86499432D01*
X173367732Y-86499431D01*
X173161497Y-86403261D01*
X173161488Y-86403258D01*
X172941697Y-86344366D01*
X172941693Y-86344365D01*
X172941692Y-86344365D01*
X172941691Y-86344364D01*
X172941686Y-86344364D01*
X172715002Y-86324532D01*
X172714998Y-86324532D01*
X172488313Y-86344364D01*
X172488302Y-86344366D01*
X172268511Y-86403258D01*
X172268502Y-86403261D01*
X172062267Y-86499431D01*
X172062265Y-86499432D01*
X171875858Y-86629954D01*
X171714954Y-86790858D01*
X171584432Y-86977265D01*
X171584431Y-86977267D01*
X171488261Y-87183502D01*
X171488258Y-87183511D01*
X171429366Y-87403302D01*
X171429364Y-87403313D01*
X171409532Y-87629998D01*
X168940468Y-87629998D01*
X168920635Y-87403308D01*
X168861739Y-87183504D01*
X168765568Y-86977266D01*
X168635047Y-86790861D01*
X168635045Y-86790858D01*
X168474141Y-86629954D01*
X168397193Y-86576075D01*
X168353568Y-86521499D01*
X168346374Y-86452000D01*
X168377897Y-86389645D01*
X168438126Y-86354231D01*
X168468316Y-86350500D01*
X171250789Y-86350500D01*
X171484060Y-86313553D01*
X171708684Y-86240568D01*
X171919126Y-86133343D01*
X172110202Y-85994517D01*
X173864518Y-84240202D01*
X173914930Y-84170814D01*
X173970257Y-84128150D01*
X173971869Y-84127535D01*
X174062331Y-84093796D01*
X174177546Y-84007546D01*
X174263796Y-83892331D01*
X174314091Y-83757483D01*
X174320500Y-83697873D01*
X174320499Y-81402135D01*
X178739500Y-81402135D01*
X178739500Y-83697870D01*
X178739501Y-83697876D01*
X178745908Y-83757483D01*
X178796202Y-83892328D01*
X178796206Y-83892335D01*
X178882452Y-84007544D01*
X178882455Y-84007547D01*
X178997664Y-84093793D01*
X178997671Y-84093797D01*
X179132517Y-84144091D01*
X179132516Y-84144091D01*
X179139444Y-84144835D01*
X179192127Y-84150500D01*
X181487872Y-84150499D01*
X181547483Y-84144091D01*
X181682331Y-84093796D01*
X181797546Y-84007546D01*
X181883796Y-83892331D01*
X181934091Y-83757483D01*
X181940500Y-83697873D01*
X181940499Y-81402135D01*
X186359500Y-81402135D01*
X186359500Y-83697870D01*
X186359501Y-83697876D01*
X186365908Y-83757483D01*
X186416202Y-83892328D01*
X186416206Y-83892335D01*
X186502452Y-84007544D01*
X186502455Y-84007547D01*
X186617664Y-84093793D01*
X186617671Y-84093797D01*
X186752517Y-84144091D01*
X186752516Y-84144091D01*
X186759444Y-84144835D01*
X186812127Y-84150500D01*
X189107872Y-84150499D01*
X189167483Y-84144091D01*
X189302331Y-84093796D01*
X189417546Y-84007546D01*
X189503796Y-83892331D01*
X189554091Y-83757483D01*
X189560500Y-83697873D01*
X189560499Y-81402128D01*
X189554091Y-81342517D01*
X189520017Y-81251161D01*
X189503797Y-81207671D01*
X189503793Y-81207664D01*
X189417547Y-81092455D01*
X189417544Y-81092452D01*
X189302335Y-81006206D01*
X189302328Y-81006202D01*
X189167482Y-80955908D01*
X189167483Y-80955908D01*
X189107883Y-80949501D01*
X189107881Y-80949500D01*
X189107873Y-80949500D01*
X189107865Y-80949500D01*
X188403574Y-80949500D01*
X188336535Y-80929815D01*
X188290780Y-80877011D01*
X188280836Y-80807853D01*
X188309861Y-80744297D01*
X188334683Y-80722398D01*
X188470289Y-80631789D01*
X188581786Y-80520292D01*
X188581789Y-80520289D01*
X188669394Y-80389179D01*
X188729737Y-80243497D01*
X188760500Y-80088842D01*
X188760500Y-79931158D01*
X188760500Y-79931155D01*
X188760499Y-79931153D01*
X188729738Y-79776510D01*
X188729737Y-79776503D01*
X188729735Y-79776498D01*
X188669397Y-79630827D01*
X188669390Y-79630814D01*
X188581789Y-79499711D01*
X188581786Y-79499707D01*
X188470292Y-79388213D01*
X188470288Y-79388210D01*
X188339185Y-79300609D01*
X188339172Y-79300602D01*
X188193501Y-79240264D01*
X188193489Y-79240261D01*
X188038845Y-79209500D01*
X188038842Y-79209500D01*
X187881158Y-79209500D01*
X187881155Y-79209500D01*
X187726510Y-79240261D01*
X187726498Y-79240264D01*
X187580827Y-79300602D01*
X187580814Y-79300609D01*
X187449711Y-79388210D01*
X187449707Y-79388213D01*
X187338213Y-79499707D01*
X187338210Y-79499711D01*
X187250609Y-79630814D01*
X187250602Y-79630827D01*
X187190264Y-79776498D01*
X187190261Y-79776510D01*
X187159500Y-79931153D01*
X187159500Y-80088846D01*
X187190261Y-80243489D01*
X187190264Y-80243501D01*
X187250602Y-80389172D01*
X187250609Y-80389185D01*
X187338210Y-80520288D01*
X187338213Y-80520292D01*
X187449707Y-80631786D01*
X187449711Y-80631789D01*
X187585316Y-80722398D01*
X187630121Y-80776010D01*
X187638828Y-80845335D01*
X187608674Y-80908363D01*
X187549230Y-80945082D01*
X187516425Y-80949500D01*
X186812129Y-80949500D01*
X186812123Y-80949501D01*
X186752516Y-80955908D01*
X186617671Y-81006202D01*
X186617664Y-81006206D01*
X186502455Y-81092452D01*
X186502452Y-81092455D01*
X186416206Y-81207664D01*
X186416202Y-81207671D01*
X186365908Y-81342517D01*
X186359501Y-81402116D01*
X186359501Y-81402123D01*
X186359500Y-81402135D01*
X181940499Y-81402135D01*
X181940499Y-81402128D01*
X181934091Y-81342517D01*
X181900017Y-81251161D01*
X181883797Y-81207671D01*
X181883793Y-81207664D01*
X181797547Y-81092455D01*
X181797544Y-81092452D01*
X181682335Y-81006206D01*
X181682328Y-81006202D01*
X181547482Y-80955908D01*
X181547483Y-80955908D01*
X181487883Y-80949501D01*
X181487881Y-80949500D01*
X181487873Y-80949500D01*
X181487865Y-80949500D01*
X180783574Y-80949500D01*
X180716535Y-80929815D01*
X180670780Y-80877011D01*
X180660836Y-80807853D01*
X180689861Y-80744297D01*
X180714683Y-80722398D01*
X180850289Y-80631789D01*
X180961786Y-80520292D01*
X180961789Y-80520289D01*
X181049394Y-80389179D01*
X181109737Y-80243497D01*
X181140500Y-80088842D01*
X181140500Y-79931158D01*
X181140500Y-79931155D01*
X181140499Y-79931153D01*
X184619500Y-79931153D01*
X184619500Y-80088846D01*
X184650261Y-80243489D01*
X184650264Y-80243501D01*
X184710602Y-80389172D01*
X184710609Y-80389185D01*
X184798210Y-80520288D01*
X184798213Y-80520292D01*
X184909707Y-80631786D01*
X184909711Y-80631789D01*
X185040814Y-80719390D01*
X185040827Y-80719397D01*
X185177505Y-80776010D01*
X185186503Y-80779737D01*
X185327851Y-80807853D01*
X185341153Y-80810499D01*
X185341156Y-80810500D01*
X185341158Y-80810500D01*
X185498844Y-80810500D01*
X185498845Y-80810499D01*
X185653497Y-80779737D01*
X185799179Y-80719394D01*
X185930289Y-80631789D01*
X186041789Y-80520289D01*
X186129394Y-80389179D01*
X186189737Y-80243497D01*
X186220500Y-80088842D01*
X186220500Y-79931158D01*
X186220500Y-79931155D01*
X186220499Y-79931153D01*
X186189738Y-79776510D01*
X186189737Y-79776503D01*
X186189735Y-79776498D01*
X186129397Y-79630827D01*
X186129390Y-79630814D01*
X186041789Y-79499711D01*
X186041786Y-79499707D01*
X185930292Y-79388213D01*
X185930288Y-79388210D01*
X185799185Y-79300609D01*
X185799172Y-79300602D01*
X185653501Y-79240264D01*
X185653489Y-79240261D01*
X185498845Y-79209500D01*
X185498842Y-79209500D01*
X185341158Y-79209500D01*
X185341155Y-79209500D01*
X185186510Y-79240261D01*
X185186498Y-79240264D01*
X185040827Y-79300602D01*
X185040814Y-79300609D01*
X184909711Y-79388210D01*
X184909707Y-79388213D01*
X184798213Y-79499707D01*
X184798210Y-79499711D01*
X184710609Y-79630814D01*
X184710602Y-79630827D01*
X184650264Y-79776498D01*
X184650261Y-79776510D01*
X184619500Y-79931153D01*
X181140499Y-79931153D01*
X181109738Y-79776510D01*
X181109737Y-79776503D01*
X181109735Y-79776498D01*
X181049397Y-79630827D01*
X181049390Y-79630814D01*
X180961789Y-79499711D01*
X180961786Y-79499707D01*
X180850292Y-79388213D01*
X180850288Y-79388210D01*
X180719185Y-79300609D01*
X180719172Y-79300602D01*
X180573501Y-79240264D01*
X180573489Y-79240261D01*
X180418845Y-79209500D01*
X180418842Y-79209500D01*
X180261158Y-79209500D01*
X180261155Y-79209500D01*
X180106510Y-79240261D01*
X180106498Y-79240264D01*
X179960827Y-79300602D01*
X179960814Y-79300609D01*
X179829711Y-79388210D01*
X179829707Y-79388213D01*
X179718213Y-79499707D01*
X179718210Y-79499711D01*
X179630609Y-79630814D01*
X179630602Y-79630827D01*
X179570264Y-79776498D01*
X179570261Y-79776510D01*
X179539500Y-79931153D01*
X179539500Y-80088846D01*
X179570261Y-80243489D01*
X179570264Y-80243501D01*
X179630602Y-80389172D01*
X179630609Y-80389185D01*
X179718210Y-80520288D01*
X179718213Y-80520292D01*
X179829707Y-80631786D01*
X179829711Y-80631789D01*
X179965316Y-80722398D01*
X180010121Y-80776010D01*
X180018828Y-80845335D01*
X179988674Y-80908363D01*
X179929230Y-80945082D01*
X179896425Y-80949500D01*
X179192129Y-80949500D01*
X179192123Y-80949501D01*
X179132516Y-80955908D01*
X178997671Y-81006202D01*
X178997664Y-81006206D01*
X178882455Y-81092452D01*
X178882452Y-81092455D01*
X178796206Y-81207664D01*
X178796202Y-81207671D01*
X178745908Y-81342517D01*
X178739501Y-81402116D01*
X178739501Y-81402123D01*
X178739500Y-81402135D01*
X174320499Y-81402135D01*
X174320499Y-81402128D01*
X174314091Y-81342517D01*
X174280017Y-81251161D01*
X174263797Y-81207671D01*
X174263793Y-81207664D01*
X174177547Y-81092455D01*
X174177544Y-81092452D01*
X174062335Y-81006206D01*
X174062328Y-81006202D01*
X173927482Y-80955908D01*
X173927483Y-80955908D01*
X173867883Y-80949501D01*
X173867881Y-80949500D01*
X173867873Y-80949500D01*
X173867865Y-80949500D01*
X173163574Y-80949500D01*
X173096535Y-80929815D01*
X173050780Y-80877011D01*
X173040836Y-80807853D01*
X173069861Y-80744297D01*
X173094683Y-80722398D01*
X173230289Y-80631789D01*
X173341786Y-80520292D01*
X173341789Y-80520289D01*
X173429394Y-80389179D01*
X173489737Y-80243497D01*
X173520500Y-80088842D01*
X173520500Y-79931158D01*
X173520500Y-79931155D01*
X173520499Y-79931153D01*
X176999500Y-79931153D01*
X176999500Y-80088846D01*
X177030261Y-80243489D01*
X177030264Y-80243501D01*
X177090602Y-80389172D01*
X177090609Y-80389185D01*
X177178210Y-80520288D01*
X177178213Y-80520292D01*
X177289707Y-80631786D01*
X177289711Y-80631789D01*
X177420814Y-80719390D01*
X177420827Y-80719397D01*
X177557505Y-80776010D01*
X177566503Y-80779737D01*
X177707851Y-80807853D01*
X177721153Y-80810499D01*
X177721156Y-80810500D01*
X177721158Y-80810500D01*
X177878844Y-80810500D01*
X177878845Y-80810499D01*
X178033497Y-80779737D01*
X178179179Y-80719394D01*
X178310289Y-80631789D01*
X178421789Y-80520289D01*
X178509394Y-80389179D01*
X178569737Y-80243497D01*
X178600500Y-80088842D01*
X178600500Y-79931158D01*
X178600500Y-79931155D01*
X178600499Y-79931153D01*
X178569738Y-79776510D01*
X178569737Y-79776503D01*
X178569735Y-79776498D01*
X178509397Y-79630827D01*
X178509390Y-79630814D01*
X178421789Y-79499711D01*
X178421786Y-79499707D01*
X178310292Y-79388213D01*
X178310288Y-79388210D01*
X178179185Y-79300609D01*
X178179172Y-79300602D01*
X178033501Y-79240264D01*
X178033489Y-79240261D01*
X177878845Y-79209500D01*
X177878842Y-79209500D01*
X177721158Y-79209500D01*
X177721155Y-79209500D01*
X177566510Y-79240261D01*
X177566498Y-79240264D01*
X177420827Y-79300602D01*
X177420814Y-79300609D01*
X177289711Y-79388210D01*
X177289707Y-79388213D01*
X177178213Y-79499707D01*
X177178210Y-79499711D01*
X177090609Y-79630814D01*
X177090602Y-79630827D01*
X177030264Y-79776498D01*
X177030261Y-79776510D01*
X176999500Y-79931153D01*
X173520499Y-79931153D01*
X173489738Y-79776510D01*
X173489737Y-79776503D01*
X173489735Y-79776498D01*
X173429397Y-79630827D01*
X173429390Y-79630814D01*
X173341789Y-79499711D01*
X173341786Y-79499707D01*
X173230292Y-79388213D01*
X173230288Y-79388210D01*
X173099185Y-79300609D01*
X173099172Y-79300602D01*
X172953501Y-79240264D01*
X172953489Y-79240261D01*
X172798845Y-79209500D01*
X172798842Y-79209500D01*
X172641158Y-79209500D01*
X172641155Y-79209500D01*
X172486510Y-79240261D01*
X172486498Y-79240264D01*
X172340827Y-79300602D01*
X172340814Y-79300609D01*
X172209711Y-79388210D01*
X172209707Y-79388213D01*
X172098213Y-79499707D01*
X172098210Y-79499711D01*
X172010609Y-79630814D01*
X172010602Y-79630827D01*
X171950264Y-79776498D01*
X171950261Y-79776510D01*
X171919500Y-79931153D01*
X171919500Y-80088846D01*
X171950261Y-80243489D01*
X171950264Y-80243501D01*
X172010602Y-80389172D01*
X172010609Y-80389185D01*
X172098210Y-80520288D01*
X172098213Y-80520292D01*
X172209707Y-80631786D01*
X172209711Y-80631789D01*
X172345316Y-80722398D01*
X172390121Y-80776010D01*
X172398828Y-80845335D01*
X172368674Y-80908363D01*
X172309230Y-80945082D01*
X172276425Y-80949500D01*
X171572129Y-80949500D01*
X171572123Y-80949501D01*
X171512516Y-80955908D01*
X171377671Y-81006202D01*
X171377664Y-81006206D01*
X171262455Y-81092452D01*
X171205072Y-81169105D01*
X171149138Y-81210976D01*
X171079446Y-81215959D01*
X171041016Y-81200520D01*
X170908859Y-81119533D01*
X170676110Y-81023126D01*
X170508956Y-80982997D01*
X170448364Y-80948206D01*
X170416200Y-80886180D01*
X170422676Y-80816611D01*
X170465735Y-80761587D01*
X170490451Y-80747862D01*
X170559173Y-80719397D01*
X170559176Y-80719395D01*
X170559179Y-80719394D01*
X170690289Y-80631789D01*
X170801789Y-80520289D01*
X170889394Y-80389179D01*
X170949737Y-80243497D01*
X170980500Y-80088842D01*
X170980500Y-79931158D01*
X170980500Y-79931155D01*
X170980499Y-79931153D01*
X170949738Y-79776510D01*
X170949737Y-79776503D01*
X170949735Y-79776498D01*
X170889397Y-79630827D01*
X170889390Y-79630814D01*
X170801789Y-79499711D01*
X170801786Y-79499707D01*
X170690292Y-79388213D01*
X170690288Y-79388210D01*
X170559185Y-79300609D01*
X170559172Y-79300602D01*
X170413501Y-79240264D01*
X170413489Y-79240261D01*
X170258845Y-79209500D01*
X170258842Y-79209500D01*
X170101158Y-79209500D01*
X170101155Y-79209500D01*
X169946510Y-79240261D01*
X169946498Y-79240264D01*
X169800827Y-79300602D01*
X169800814Y-79300609D01*
X169669711Y-79388210D01*
X169669707Y-79388213D01*
X169558213Y-79499707D01*
X169558210Y-79499711D01*
X169470609Y-79630814D01*
X169470602Y-79630827D01*
X169410264Y-79776498D01*
X169410261Y-79776510D01*
X169379500Y-79931153D01*
X169379500Y-80088846D01*
X169410261Y-80243489D01*
X169410264Y-80243501D01*
X169470602Y-80389172D01*
X169470609Y-80389185D01*
X169558210Y-80520288D01*
X169558213Y-80520292D01*
X169669707Y-80631786D01*
X169669711Y-80631789D01*
X169800814Y-80719390D01*
X169800827Y-80719397D01*
X169869548Y-80747862D01*
X169923952Y-80791703D01*
X169946017Y-80857997D01*
X169928738Y-80925696D01*
X169877601Y-80973307D01*
X169851043Y-80982997D01*
X169683889Y-81023126D01*
X169451140Y-81119533D01*
X169236346Y-81251160D01*
X169236343Y-81251161D01*
X169044776Y-81414776D01*
X168881161Y-81606343D01*
X168881160Y-81606346D01*
X168749533Y-81821140D01*
X168653126Y-82053889D01*
X168594317Y-82298848D01*
X168574551Y-82550000D01*
X168594317Y-82801151D01*
X168653127Y-83046112D01*
X168653127Y-83046114D01*
X168707776Y-83178048D01*
X168715245Y-83247517D01*
X168683970Y-83309996D01*
X168623881Y-83345648D01*
X168593215Y-83349500D01*
X164284500Y-83349500D01*
X164217461Y-83329815D01*
X164171706Y-83277011D01*
X164160500Y-83225500D01*
X164160499Y-81402129D01*
X164160498Y-81402123D01*
X164160497Y-81402116D01*
X164154091Y-81342517D01*
X164120017Y-81251161D01*
X164103797Y-81207671D01*
X164103793Y-81207664D01*
X164017547Y-81092455D01*
X164017544Y-81092452D01*
X163902335Y-81006206D01*
X163902328Y-81006202D01*
X163767482Y-80955908D01*
X163767483Y-80955908D01*
X163707883Y-80949501D01*
X163707881Y-80949500D01*
X163707873Y-80949500D01*
X163707865Y-80949500D01*
X163003574Y-80949500D01*
X162936535Y-80929815D01*
X162890780Y-80877011D01*
X162880836Y-80807853D01*
X162909861Y-80744297D01*
X162934683Y-80722398D01*
X163070289Y-80631789D01*
X163181786Y-80520292D01*
X163181789Y-80520289D01*
X163269394Y-80389179D01*
X163329737Y-80243497D01*
X163360500Y-80088842D01*
X163360500Y-79931158D01*
X163360500Y-79931155D01*
X163360499Y-79931153D01*
X166839500Y-79931153D01*
X166839500Y-80088846D01*
X166870261Y-80243489D01*
X166870264Y-80243501D01*
X166930602Y-80389172D01*
X166930609Y-80389185D01*
X167018210Y-80520288D01*
X167018213Y-80520292D01*
X167129707Y-80631786D01*
X167129711Y-80631789D01*
X167260814Y-80719390D01*
X167260827Y-80719397D01*
X167397505Y-80776010D01*
X167406503Y-80779737D01*
X167547851Y-80807853D01*
X167561153Y-80810499D01*
X167561156Y-80810500D01*
X167561158Y-80810500D01*
X167718844Y-80810500D01*
X167718845Y-80810499D01*
X167873497Y-80779737D01*
X168019179Y-80719394D01*
X168150289Y-80631789D01*
X168261789Y-80520289D01*
X168349394Y-80389179D01*
X168409737Y-80243497D01*
X168440500Y-80088842D01*
X168440500Y-79931158D01*
X168440500Y-79931155D01*
X168440499Y-79931153D01*
X168409738Y-79776510D01*
X168409737Y-79776503D01*
X168409735Y-79776498D01*
X168349397Y-79630827D01*
X168349390Y-79630814D01*
X168261789Y-79499711D01*
X168261786Y-79499707D01*
X168150292Y-79388213D01*
X168150288Y-79388210D01*
X168019185Y-79300609D01*
X168019172Y-79300602D01*
X167873501Y-79240264D01*
X167873489Y-79240261D01*
X167718845Y-79209500D01*
X167718842Y-79209500D01*
X167561158Y-79209500D01*
X167561155Y-79209500D01*
X167406510Y-79240261D01*
X167406498Y-79240264D01*
X167260827Y-79300602D01*
X167260814Y-79300609D01*
X167129711Y-79388210D01*
X167129707Y-79388213D01*
X167018213Y-79499707D01*
X167018210Y-79499711D01*
X166930609Y-79630814D01*
X166930602Y-79630827D01*
X166870264Y-79776498D01*
X166870261Y-79776510D01*
X166839500Y-79931153D01*
X163360499Y-79931153D01*
X163329738Y-79776510D01*
X163329737Y-79776503D01*
X163329735Y-79776498D01*
X163269397Y-79630827D01*
X163269390Y-79630814D01*
X163181789Y-79499711D01*
X163181786Y-79499707D01*
X163070292Y-79388213D01*
X163070288Y-79388210D01*
X162939185Y-79300609D01*
X162939172Y-79300602D01*
X162793501Y-79240264D01*
X162793489Y-79240261D01*
X162638845Y-79209500D01*
X162638842Y-79209500D01*
X162481158Y-79209500D01*
X162481155Y-79209500D01*
X162326510Y-79240261D01*
X162326498Y-79240264D01*
X162180827Y-79300602D01*
X162180814Y-79300609D01*
X162049711Y-79388210D01*
X162049707Y-79388213D01*
X161938213Y-79499707D01*
X161938210Y-79499711D01*
X161850609Y-79630814D01*
X161850602Y-79630827D01*
X161790264Y-79776498D01*
X161790261Y-79776510D01*
X161759500Y-79931153D01*
X161759500Y-80088846D01*
X161790261Y-80243489D01*
X161790264Y-80243501D01*
X161850602Y-80389172D01*
X161850609Y-80389185D01*
X161938210Y-80520288D01*
X161938213Y-80520292D01*
X162049707Y-80631786D01*
X162049711Y-80631789D01*
X162185316Y-80722398D01*
X162230121Y-80776010D01*
X162238828Y-80845335D01*
X162208674Y-80908363D01*
X162149230Y-80945082D01*
X162116425Y-80949500D01*
X161412129Y-80949500D01*
X161412123Y-80949501D01*
X161352516Y-80955908D01*
X161217671Y-81006202D01*
X161217664Y-81006206D01*
X161102455Y-81092452D01*
X161045072Y-81169105D01*
X160989138Y-81210976D01*
X160919446Y-81215959D01*
X160881016Y-81200520D01*
X160748859Y-81119533D01*
X160516110Y-81023126D01*
X160348956Y-80982997D01*
X160288364Y-80948206D01*
X160256200Y-80886180D01*
X160262676Y-80816611D01*
X160305735Y-80761587D01*
X160330451Y-80747862D01*
X160399173Y-80719397D01*
X160399176Y-80719395D01*
X160399179Y-80719394D01*
X160530289Y-80631789D01*
X160641789Y-80520289D01*
X160729394Y-80389179D01*
X160789737Y-80243497D01*
X160820500Y-80088842D01*
X160820500Y-79931158D01*
X160820500Y-79931155D01*
X160820499Y-79931153D01*
X160789738Y-79776510D01*
X160789737Y-79776503D01*
X160789735Y-79776498D01*
X160729397Y-79630827D01*
X160729390Y-79630814D01*
X160641789Y-79499711D01*
X160641786Y-79499707D01*
X160530292Y-79388213D01*
X160530288Y-79388210D01*
X160399185Y-79300609D01*
X160399172Y-79300602D01*
X160253501Y-79240264D01*
X160253489Y-79240261D01*
X160098845Y-79209500D01*
X160098842Y-79209500D01*
X159941158Y-79209500D01*
X159941155Y-79209500D01*
X159786510Y-79240261D01*
X159786498Y-79240264D01*
X159640827Y-79300602D01*
X159640814Y-79300609D01*
X159509711Y-79388210D01*
X159509707Y-79388213D01*
X159398213Y-79499707D01*
X159398210Y-79499711D01*
X159310609Y-79630814D01*
X159310602Y-79630827D01*
X159250264Y-79776498D01*
X159250261Y-79776510D01*
X159219500Y-79931153D01*
X159219500Y-80088846D01*
X159250261Y-80243489D01*
X159250264Y-80243501D01*
X159310602Y-80389172D01*
X159310609Y-80389185D01*
X159398210Y-80520288D01*
X159398213Y-80520292D01*
X159509707Y-80631786D01*
X159509711Y-80631789D01*
X159640814Y-80719390D01*
X159640827Y-80719397D01*
X159709548Y-80747862D01*
X159763952Y-80791703D01*
X159786017Y-80857997D01*
X159768738Y-80925696D01*
X159717601Y-80973307D01*
X159691043Y-80982997D01*
X159523889Y-81023126D01*
X159291140Y-81119533D01*
X159076346Y-81251160D01*
X159076343Y-81251161D01*
X158884776Y-81414776D01*
X158721161Y-81606343D01*
X158721160Y-81606346D01*
X158589533Y-81821140D01*
X158493126Y-82053889D01*
X158434317Y-82298848D01*
X158414551Y-82550000D01*
X158434317Y-82801151D01*
X158493127Y-83046112D01*
X158493127Y-83046114D01*
X158547776Y-83178048D01*
X158555245Y-83247517D01*
X158523970Y-83309996D01*
X158463881Y-83345648D01*
X158433215Y-83349500D01*
X141424499Y-83349500D01*
X141357460Y-83329815D01*
X141311705Y-83277011D01*
X141300499Y-83225500D01*
X141300499Y-81402129D01*
X141300498Y-81402123D01*
X141300497Y-81402116D01*
X141294091Y-81342517D01*
X141260017Y-81251161D01*
X141243797Y-81207671D01*
X141243793Y-81207664D01*
X141157547Y-81092455D01*
X141157544Y-81092452D01*
X141042335Y-81006206D01*
X141042328Y-81006202D01*
X140907482Y-80955908D01*
X140907483Y-80955908D01*
X140847883Y-80949501D01*
X140847881Y-80949500D01*
X140847873Y-80949500D01*
X140847865Y-80949500D01*
X140143574Y-80949500D01*
X140076535Y-80929815D01*
X140030780Y-80877011D01*
X140020836Y-80807853D01*
X140049861Y-80744297D01*
X140074683Y-80722398D01*
X140210289Y-80631789D01*
X140321786Y-80520292D01*
X140321789Y-80520289D01*
X140409394Y-80389179D01*
X140469737Y-80243497D01*
X140500500Y-80088842D01*
X140500500Y-79931158D01*
X140500500Y-79931155D01*
X140500499Y-79931153D01*
X140469738Y-79776510D01*
X140469737Y-79776503D01*
X140469735Y-79776498D01*
X140409397Y-79630827D01*
X140409390Y-79630814D01*
X140321789Y-79499711D01*
X140321786Y-79499707D01*
X140210292Y-79388213D01*
X140210288Y-79388210D01*
X140079185Y-79300609D01*
X140079172Y-79300602D01*
X139933501Y-79240264D01*
X139933489Y-79240261D01*
X139778845Y-79209500D01*
X139778842Y-79209500D01*
X139621158Y-79209500D01*
X139621155Y-79209500D01*
X139466510Y-79240261D01*
X139466498Y-79240264D01*
X139320827Y-79300602D01*
X139320814Y-79300609D01*
X139189711Y-79388210D01*
X139189707Y-79388213D01*
X139078213Y-79499707D01*
X139078210Y-79499711D01*
X138990609Y-79630814D01*
X138990602Y-79630827D01*
X138930264Y-79776498D01*
X138930261Y-79776510D01*
X138899500Y-79931153D01*
X138899500Y-80088846D01*
X138930261Y-80243489D01*
X138930264Y-80243501D01*
X138990602Y-80389172D01*
X138990609Y-80389185D01*
X139078210Y-80520288D01*
X139078213Y-80520292D01*
X139189707Y-80631786D01*
X139189711Y-80631789D01*
X139325316Y-80722398D01*
X139370121Y-80776010D01*
X139378828Y-80845335D01*
X139348674Y-80908363D01*
X139289230Y-80945082D01*
X139256425Y-80949500D01*
X138552129Y-80949500D01*
X138552123Y-80949501D01*
X138492516Y-80955908D01*
X138357671Y-81006202D01*
X138357664Y-81006206D01*
X138242455Y-81092452D01*
X138242452Y-81092455D01*
X138156206Y-81207664D01*
X138156202Y-81207671D01*
X138105908Y-81342517D01*
X138099501Y-81402116D01*
X138099501Y-81402123D01*
X138099500Y-81402135D01*
X138099500Y-83697870D01*
X138099501Y-83697876D01*
X138105908Y-83757483D01*
X138156202Y-83892328D01*
X138156206Y-83892335D01*
X138183522Y-83928825D01*
X138206728Y-83983736D01*
X138236446Y-84171365D01*
X138309433Y-84395994D01*
X138416657Y-84606434D01*
X138555484Y-84797511D01*
X138761687Y-85003714D01*
X138795172Y-85065037D01*
X138790188Y-85134729D01*
X138761687Y-85179076D01*
X136791286Y-87149478D01*
X136679481Y-87261282D01*
X136679480Y-87261284D01*
X136630154Y-87346721D01*
X136629361Y-87348094D01*
X136629359Y-87348096D01*
X136600425Y-87398209D01*
X136600424Y-87398210D01*
X136588342Y-87443302D01*
X136559499Y-87550943D01*
X136559499Y-87550945D01*
X136559499Y-87719046D01*
X136559500Y-87719059D01*
X136559500Y-124373330D01*
X136559499Y-124373348D01*
X136559499Y-124539054D01*
X136559498Y-124539054D01*
X136600423Y-124691785D01*
X136629358Y-124741900D01*
X136629359Y-124741904D01*
X136629360Y-124741904D01*
X136679479Y-124828714D01*
X136679481Y-124828717D01*
X136798349Y-124947585D01*
X136798355Y-124947590D01*
X137945139Y-126094374D01*
X137945149Y-126094385D01*
X137949479Y-126098715D01*
X137949480Y-126098716D01*
X138061284Y-126210520D01*
X138148095Y-126260639D01*
X138161040Y-126268113D01*
X138209255Y-126318678D01*
X138222479Y-126387285D01*
X138196512Y-126452150D01*
X138139598Y-126492680D01*
X138099040Y-126499500D01*
X133437022Y-126499500D01*
X133369983Y-126479815D01*
X133324228Y-126427011D01*
X133314284Y-126357853D01*
X133343309Y-126294297D01*
X133353749Y-126283622D01*
X133434405Y-126210520D01*
X133642192Y-126022192D01*
X133906158Y-125730951D01*
X134140306Y-125415239D01*
X134342381Y-125078097D01*
X134510438Y-124722772D01*
X134642857Y-124352684D01*
X134738364Y-123971400D01*
X134796038Y-123582591D01*
X134815325Y-123190000D01*
X134796038Y-122797409D01*
X134738364Y-122408600D01*
X134642857Y-122027316D01*
X134510438Y-121657228D01*
X134342381Y-121301903D01*
X134140306Y-120964761D01*
X133906158Y-120649049D01*
X133906153Y-120649043D01*
X133642192Y-120357807D01*
X133350956Y-120093846D01*
X133035236Y-119859692D01*
X132698100Y-119657620D01*
X132342772Y-119489562D01*
X132342770Y-119489561D01*
X131972684Y-119357143D01*
X131591406Y-119261637D01*
X131591401Y-119261636D01*
X131591400Y-119261636D01*
X131447256Y-119240254D01*
X131202599Y-119203963D01*
X131202597Y-119203962D01*
X131202591Y-119203962D01*
X130810000Y-119184675D01*
X130417409Y-119203962D01*
X130417403Y-119203962D01*
X130417400Y-119203963D01*
X130028593Y-119261637D01*
X129647315Y-119357143D01*
X129277229Y-119489561D01*
X129277227Y-119489562D01*
X128921899Y-119657620D01*
X128584763Y-119859692D01*
X128269043Y-120093846D01*
X127977807Y-120357807D01*
X127716378Y-120646250D01*
X127656772Y-120682704D01*
X127586919Y-120681145D01*
X127528999Y-120642069D01*
X127501399Y-120577881D01*
X127500500Y-120562977D01*
X127500500Y-82637022D01*
X127520185Y-82569983D01*
X127572989Y-82524228D01*
X127642147Y-82514284D01*
X127705703Y-82543309D01*
X127716378Y-82553749D01*
X127977807Y-82842192D01*
X128269043Y-83106153D01*
X128269049Y-83106158D01*
X128584761Y-83340306D01*
X128697141Y-83407664D01*
X128921899Y-83542379D01*
X128921902Y-83542380D01*
X128921903Y-83542381D01*
X129277228Y-83710438D01*
X129647316Y-83842857D01*
X130028600Y-83938364D01*
X130417409Y-83996038D01*
X130810000Y-84015325D01*
X131202591Y-83996038D01*
X131591400Y-83938364D01*
X131972684Y-83842857D01*
X132342772Y-83710438D01*
X132698097Y-83542381D01*
X133035239Y-83340306D01*
X133350951Y-83106158D01*
X133642192Y-82842192D01*
X133906158Y-82550951D01*
X134140306Y-82235239D01*
X134342381Y-81898097D01*
X134510438Y-81542772D01*
X134642857Y-81172684D01*
X134738364Y-80791400D01*
X134796038Y-80402591D01*
X134815325Y-80010000D01*
X134811451Y-79931153D01*
X136359500Y-79931153D01*
X136359500Y-80088846D01*
X136390261Y-80243489D01*
X136390264Y-80243501D01*
X136450602Y-80389172D01*
X136450609Y-80389185D01*
X136538210Y-80520288D01*
X136538213Y-80520292D01*
X136649707Y-80631786D01*
X136649711Y-80631789D01*
X136780814Y-80719390D01*
X136780827Y-80719397D01*
X136917505Y-80776010D01*
X136926503Y-80779737D01*
X137067851Y-80807853D01*
X137081153Y-80810499D01*
X137081156Y-80810500D01*
X137081158Y-80810500D01*
X137238844Y-80810500D01*
X137238845Y-80810499D01*
X137393497Y-80779737D01*
X137539179Y-80719394D01*
X137670289Y-80631789D01*
X137781789Y-80520289D01*
X137869394Y-80389179D01*
X137929737Y-80243497D01*
X137960500Y-80088842D01*
X137960500Y-79931158D01*
X137960500Y-79931155D01*
X137960499Y-79931153D01*
X137929738Y-79776510D01*
X137929737Y-79776503D01*
X137929735Y-79776498D01*
X137869397Y-79630827D01*
X137869390Y-79630814D01*
X137781789Y-79499711D01*
X137781786Y-79499707D01*
X137670292Y-79388213D01*
X137670288Y-79388210D01*
X137539185Y-79300609D01*
X137539172Y-79300602D01*
X137393501Y-79240264D01*
X137393489Y-79240261D01*
X137238845Y-79209500D01*
X137238842Y-79209500D01*
X137081158Y-79209500D01*
X137081155Y-79209500D01*
X136926510Y-79240261D01*
X136926498Y-79240264D01*
X136780827Y-79300602D01*
X136780814Y-79300609D01*
X136649711Y-79388210D01*
X136649707Y-79388213D01*
X136538213Y-79499707D01*
X136538210Y-79499711D01*
X136450609Y-79630814D01*
X136450602Y-79630827D01*
X136390264Y-79776498D01*
X136390261Y-79776510D01*
X136359500Y-79931153D01*
X134811451Y-79931153D01*
X134796038Y-79617409D01*
X134738364Y-79228600D01*
X134642857Y-78847316D01*
X134510438Y-78477228D01*
X134342381Y-78121903D01*
X134140306Y-77784761D01*
X133906158Y-77469049D01*
X133906153Y-77469043D01*
X133642192Y-77177807D01*
X133353749Y-76916378D01*
X133317295Y-76856772D01*
X133318854Y-76786919D01*
X133357930Y-76728999D01*
X133422118Y-76701399D01*
X133437022Y-76700500D01*
X135998357Y-76700500D01*
X136065396Y-76720185D01*
G37*
%TD.AperFunction*%
%TD*%
%TA.AperFunction,NonConductor*%
G36*
X128250017Y-76720185D02*
G01*
X128295772Y-76772989D01*
X128305716Y-76842147D01*
X128276691Y-76905703D01*
X128266251Y-76916378D01*
X127977807Y-77177807D01*
X127716378Y-77466250D01*
X127656772Y-77502704D01*
X127586919Y-77501145D01*
X127528999Y-77462069D01*
X127501399Y-77397881D01*
X127500500Y-77382977D01*
X127500500Y-76824500D01*
X127520185Y-76757461D01*
X127572989Y-76711706D01*
X127624500Y-76700500D01*
X128182978Y-76700500D01*
X128250017Y-76720185D01*
G37*
%TD.AperFunction*%
%TA.AperFunction,NonConductor*%
G36*
X197562539Y-76720185D02*
G01*
X197608294Y-76772989D01*
X197619500Y-76824500D01*
X197619500Y-77382977D01*
X197599815Y-77450016D01*
X197547011Y-77495771D01*
X197477853Y-77505715D01*
X197414297Y-77476690D01*
X197403622Y-77466250D01*
X197142192Y-77177807D01*
X196853749Y-76916378D01*
X196817295Y-76856772D01*
X196818854Y-76786919D01*
X196857930Y-76728999D01*
X196922118Y-76701399D01*
X196937022Y-76700500D01*
X197495500Y-76700500D01*
X197562539Y-76720185D01*
G37*
%TD.AperFunction*%
%TA.AperFunction,NonConductor*%
G36*
X166868723Y-86370185D02*
G01*
X166914478Y-86422989D01*
X166924422Y-86492147D01*
X166895397Y-86555703D01*
X166872807Y-86576075D01*
X166795858Y-86629954D01*
X166634954Y-86790858D01*
X166504432Y-86977265D01*
X166500851Y-86984943D01*
X166494807Y-86997905D01*
X166448637Y-87050343D01*
X166382426Y-87069500D01*
X165061692Y-87069500D01*
X164994653Y-87049815D01*
X164960119Y-87016625D01*
X164830047Y-86830861D01*
X164830045Y-86830858D01*
X164669141Y-86669954D01*
X164535066Y-86576075D01*
X164491441Y-86521499D01*
X164484247Y-86452000D01*
X164515769Y-86389645D01*
X164575999Y-86354231D01*
X164606189Y-86350500D01*
X166801684Y-86350500D01*
X166868723Y-86370185D01*
G37*
%TD.AperFunction*%
%TA.AperFunction,NonConductor*%
G36*
X197533081Y-125698854D02*
G01*
X197591001Y-125737930D01*
X197618601Y-125802118D01*
X197619500Y-125817022D01*
X197619500Y-126375500D01*
X197599815Y-126442539D01*
X197547011Y-126488294D01*
X197495500Y-126499500D01*
X196937022Y-126499500D01*
X196869983Y-126479815D01*
X196824228Y-126427011D01*
X196814284Y-126357853D01*
X196843309Y-126294297D01*
X196853749Y-126283622D01*
X196934405Y-126210520D01*
X197142192Y-126022192D01*
X197403622Y-125733748D01*
X197463228Y-125697295D01*
X197533081Y-125698854D01*
G37*
%TD.AperFunction*%
%TA.AperFunction,NonConductor*%
G36*
X127705703Y-125723309D02*
G01*
X127716378Y-125733749D01*
X127977807Y-126022192D01*
X128266251Y-126283622D01*
X128302705Y-126343228D01*
X128301146Y-126413081D01*
X128262070Y-126471001D01*
X128197882Y-126498601D01*
X128182978Y-126499500D01*
X127624500Y-126499500D01*
X127557461Y-126479815D01*
X127511706Y-126427011D01*
X127500500Y-126375500D01*
X127500500Y-125817022D01*
X127520185Y-125749983D01*
X127572989Y-125704228D01*
X127642147Y-125694284D01*
X127705703Y-125723309D01*
G37*
%TD.AperFunction*%
M02*
